STARTFONT 2.1
COMMENT
COMMENT Converted from OpenType font "FreeMono.ttf" by "otf2bdf 3.0".
COMMENT
FONT -FreeType-FreeMono-Bold-R-Normal--50-120-300-300-P-221-ISO10646-1
SIZE 12 300 300
FONTBOUNDINGBOX 75 52 -40 -11
STARTPROPERTIES 19
FOUNDRY "FreeType"
FAMILY_NAME "FreeMono"
WEIGHT_NAME "Bold"
SLANT "R"
SETWIDTH_NAME "Normal"
ADD_STYLE_NAME ""
PIXEL_SIZE 50
POINT_SIZE 120
RESOLUTION_X 300
RESOLUTION_Y 300
SPACING "P"
AVERAGE_WIDTH 221
CHARSET_REGISTRY "ISO10646"
CHARSET_ENCODING "1"
FONT_ASCENT 40
FONT_DESCENT 10
COPYRIGHT "Copyright 2002, 2003, 2005, 2008, 2009, 2010, 2012 GNU Freefont contributors."
_OTF_FONTFILE "FreeMono.ttf"
_OTF_PSNAME "FreeMono"
ENDPROPERTIES
CHARS 4125
STARTCHAR 0020
ENCODING 32
SWIDTH 600 0
DWIDTH 30 0
BBX 0 0 0 0
BITMAP
ENDCHAR
STARTCHAR 0021
ENCODING 33
SWIDTH 600 0
DWIDTH 30 0
BBX 6 32 12 -1
BITMAP
30
78
78
78
78
78
78
78
78
78
78
30
30
30
30
30
30
30
30
30
00
00
00
00
00
00
00
78
FC
FC
FC
78
ENDCHAR
STARTCHAR 0022
ENCODING 34
SWIDTH 600 0
DWIDTH 30 0
BBX 16 14 7 16
BITMAP
FE7F
7C3E
7C3E
7C3E
7C3E
7C3E
7C3E
7C3E
3C1E
381C
381C
381C
381C
381C
ENDCHAR
STARTCHAR 0023
ENCODING 35
SWIDTH 600 0
DWIDTH 30 0
BBX 20 35 5 -3
BITMAP
018600
018600
018600
018600
018600
030600
030600
030600
030E00
030C00
030C00
030C00
7FFFF0
7FFFF0
030C00
030C00
030C00
030C00
030C00
070C00
060C00
FFFFE0
FFFFE0
061800
061800
061800
061800
061800
061800
061800
061800
061800
061800
061800
041800
ENDCHAR
STARTCHAR 0024
ENCODING 36
SWIDTH 600 0
DWIDTH 30 0
BBX 18 35 6 -3
BITMAP
00C000
00C000
00C000
07F980
1FFF80
3C0780
300380
700180
600180
600000
600000
700000
380000
1F0000
0FF800
00FE00
000F80
000380
0001C0
0000C0
0000C0
C000C0
C000C0
E00180
F00380
FC0F00
DFFE00
03F800
00C000
00C000
00C000
00C000
00C000
00C000
00C000
ENDCHAR
STARTCHAR 0025
ENCODING 37
SWIDTH 600 0
DWIDTH 30 0
BBX 21 30 5 1
BITMAP
0FC000
1FE000
303000
703800
601800
601800
601800
601800
303000
387000
1FE000
078038
0001F0
001FC0
00FE00
07E000
3F0000
F80000
C01E00
007F80
00E1C0
00C0C0
018060
018060
018060
018060
01C0E0
00E0C0
007F80
003F00
ENDCHAR
STARTCHAR 0026
ENCODING 38
SWIDTH 600 0
DWIDTH 30 0
BBX 19 27 5 -1
BITMAP
01F400
07FE00
0E0800
1C0000
180000
180000
180000
180000
0C0000
0C0000
060000
070000
0F0000
3F8000
3981E0
60C1C0
E0E380
C06300
C07300
C03600
C01E00
C01C00
601C00
703E00
3877C0
1FE3E0
07C000
ENDCHAR
STARTCHAR 0027
ENCODING 39
SWIDTH 600 0
DWIDTH 30 0
BBX 7 14 12 16
BITMAP
FE
7C
7C
7C
7C
7C
7C
7C
3C
38
38
38
38
38
ENDCHAR
STARTCHAR 0028
ENCODING 40
SWIDTH 600 0
DWIDTH 30 0
BBX 8 36 15 -6
BITMAP
03
07
06
0E
0C
1C
18
38
38
30
70
70
70
E0
E0
E0
E0
E0
E0
E0
E0
E0
E0
70
70
70
30
38
38
18
1C
1C
0E
06
07
03
ENDCHAR
STARTCHAR 0029
ENCODING 41
SWIDTH 600 0
DWIDTH 30 0
BBX 8 36 8 -6
BITMAP
C0
E0
60
70
30
38
18
1C
1C
0C
0E
0E
0E
07
07
07
07
07
07
07
07
07
07
0E
0E
0E
0C
1C
1C
18
38
30
70
60
E0
C0
ENDCHAR
STARTCHAR 002A
ENCODING 42
SWIDTH 600 0
DWIDTH 30 0
BBX 18 17 6 12
BITMAP
00C000
00C000
00C000
00C000
00C000
00C000
E0C1C0
FCCFC0
3FFF00
03F000
01E000
03F000
073000
061800
0E1C00
1C0E00
180600
ENDCHAR
STARTCHAR 002B
ENCODING 43
SWIDTH 600 0
DWIDTH 30 0
BBX 22 24 4 2
BITMAP
003000
003000
003000
003000
003000
003000
003000
003000
003000
003000
003000
FFFFFC
FFFFFC
003000
003000
003000
003000
003000
003000
003000
003000
003000
003000
003000
ENDCHAR
STARTCHAR 002C
ENCODING 44
SWIDTH 600 0
DWIDTH 30 0
BBX 10 15 7 -7
BITMAP
0FC0
1FC0
1F80
1F80
3F00
3F00
3E00
3C00
7C00
7800
7800
F000
F000
E000
C000
ENDCHAR
STARTCHAR 002D
ENCODING 45
SWIDTH 600 0
DWIDTH 30 0
BBX 22 2 4 13
BITMAP
FFFFFC
FFFFFC
ENDCHAR
STARTCHAR 002E
ENCODING 46
SWIDTH 600 0
DWIDTH 30 0
BBX 7 7 11 -1
BITMAP
10
7E
FE
FE
FE
7E
3C
ENDCHAR
STARTCHAR 002F
ENCODING 47
SWIDTH 600 0
DWIDTH 30 0
BBX 18 37 6 -4
BITMAP
0000C0
0000C0
000180
000180
000300
000300
000600
000600
000E00
000C00
001C00
001800
001800
003000
003000
006000
006000
00E000
00C000
01C000
018000
038000
030000
030000
060000
060000
0C0000
0C0000
1C0000
180000
380000
300000
700000
600000
600000
C00000
C00000
ENDCHAR
STARTCHAR 0030
ENCODING 48
SWIDTH 600 0
DWIDTH 30 0
BBX 18 31 6 0
BITMAP
07F800
0FFC00
1C0E00
380700
300300
700380
600180
600180
E000C0
C000C0
C000C0
C000C0
C000C0
C000C0
C000C0
C000C0
C000C0
C000C0
C000C0
C000C0
C000C0
C000C0
E001C0
600180
600180
700380
380300
180600
1E1E00
07FC00
03F000
ENDCHAR
STARTCHAR 0031
ENCODING 49
SWIDTH 600 0
DWIDTH 30 0
BBX 18 31 6 0
BITMAP
01C000
03C000
03C000
06C000
0EC000
1CC000
38C000
70C000
60C000
00C000
00C000
00C000
00C000
00C000
00C000
00C000
00C000
00C000
00C000
00C000
00C000
00C000
00C000
00C000
00C000
00C000
00C000
00C000
00C000
FFFFC0
FFFFC0
ENDCHAR
STARTCHAR 0032
ENCODING 50
SWIDTH 600 0
DWIDTH 30 0
BBX 19 31 5 0
BITMAP
004000
07FC00
1FFE00
3C0700
700180
6000C0
E000C0
C00060
000060
000060
000060
0000C0
0001C0
000180
000300
000600
000C00
001800
003000
006000
00C000
018000
030000
060000
0C0000
180000
300060
400060
800060
FFFFE0
FFFFE0
ENDCHAR
STARTCHAR 0033
ENCODING 51
SWIDTH 600 0
DWIDTH 30 0
BBX 20 32 5 -1
BITMAP
002000
07FE00
1FFF00
380380
7001C0
0000E0
000060
000060
000060
000060
000060
0000C0
0001C0
000780
00FF00
00FE00
000F00
0001C0
0000C0
000060
000070
000030
000030
000030
000030
000070
000060
C000E0
F001C0
7C0780
1FFE00
03F800
ENDCHAR
STARTCHAR 0034
ENCODING 52
SWIDTH 600 0
DWIDTH 30 0
BBX 18 30 6 0
BITMAP
001E00
003E00
003600
006600
00C600
00C600
018600
018600
030600
020600
060600
040600
0C0600
180600
180600
300600
200600
600600
400600
C00600
FFFFC0
FFFFC0
000600
000600
000600
000600
000600
000600
00FFC0
00FFC0
ENDCHAR
STARTCHAR 0035
ENCODING 53
SWIDTH 600 0
DWIDTH 30 0
BBX 21 31 4 -1
BITMAP
1FFFC0
1FFFC0
180000
180000
180000
180000
180000
180000
180000
180000
18FE00
1FFF80
1F03C0
1800E0
000070
000030
000038
000018
000018
000018
000018
000018
000018
000038
000030
400070
E00060
7801C0
1E0780
0FFF00
01FC00
ENDCHAR
STARTCHAR 0036
ENCODING 54
SWIDTH 600 0
DWIDTH 30 0
BBX 18 31 7 0
BITMAP
007FC0
01FC00
03C000
070000
0E0000
1C0000
380000
300000
700000
600000
600000
E00000
C1F800
C3FC00
CF0E00
CC0300
D80380
F00180
F000C0
E000C0
E000C0
6000C0
6000C0
6000C0
7001C0
300180
380380
1C0700
0E0E00
07FC00
01F000
ENDCHAR
STARTCHAR 0037
ENCODING 55
SWIDTH 600 0
DWIDTH 30 0
BBX 19 30 5 0
BITMAP
FFFFE0
FFFFE0
C00060
C00060
C000E0
0000C0
0000C0
0000C0
000180
000180
000180
000300
000300
000300
000600
000600
000600
000C00
000C00
000C00
001800
001800
001800
003800
003000
003000
007000
006000
006000
004000
ENDCHAR
STARTCHAR 0038
ENCODING 56
SWIDTH 600 0
DWIDTH 30 0
BBX 18 31 6 0
BITMAP
07F800
0FFC00
1C0E00
380700
300300
600180
600180
600180
600180
600180
700380
300300
180600
0E1C00
07F800
07F800
1C0E00
380300
600180
600180
C000C0
C000C0
C000C0
C000C0
C000C0
600180
700380
380700
1C0E00
0FFC00
03F000
ENDCHAR
STARTCHAR 0039
ENCODING 57
SWIDTH 600 0
DWIDTH 30 0
BBX 19 32 7 -1
BITMAP
008000
07F800
1FFC00
380E00
700300
600380
600180
C000C0
C000C0
C000C0
C00060
C000E0
C001E0
6001E0
700360
380660
1C1C60
0FF860
03E060
0000E0
0000C0
0000C0
0001C0
000180
000380
000700
000E00
001E00
003800
01F000
FFE000
7F0000
ENDCHAR
STARTCHAR 003A
ENCODING 58
SWIDTH 600 0
DWIDTH 30 0
BBX 7 22 11 -1
BITMAP
3C
7E
FE
FE
FE
7E
10
00
00
00
00
00
00
00
00
10
7E
FE
FE
FE
7E
3C
ENDCHAR
STARTCHAR 003B
ENCODING 59
SWIDTH 600 0
DWIDTH 30 0
BBX 10 28 7 -7
BITMAP
0780
0FC0
1FC0
1FC0
1FC0
0FC0
0200
0000
0000
0000
0000
0000
0000
0000
1FC0
1F80
1F80
3F00
3F00
3E00
3C00
7C00
7800
7800
F000
F000
E000
E000
ENDCHAR
STARTCHAR 003C
ENCODING 60
SWIDTH 600 0
DWIDTH 30 0
BBX 22 24 4 2
BITMAP
00000C
00003C
000078
0001E0
000780
001E00
007C00
00F000
03C000
0F0000
3C0000
F80000
780000
3C0000
0F0000
03C000
00F000
003C00
001F00
000780
0001E0
000078
00001C
00000C
ENDCHAR
STARTCHAR 003D
ENCODING 61
SWIDTH 600 0
DWIDTH 30 0
BBX 24 9 3 10
BITMAP
FFFFFF
FFFFFF
000000
000000
000000
000000
000000
FFFFFF
FFFFFF
ENDCHAR
STARTCHAR 003E
ENCODING 62
SWIDTH 600 0
DWIDTH 30 0
BBX 22 24 4 2
BITMAP
C00000
F00000
780000
1E0000
078000
01E000
00F800
003C00
000F00
0003C0
0000F0
00007C
000078
0001F0
0003C0
000F00
003C00
00F000
03E000
078000
1E0000
780000
E00000
C00000
ENDCHAR
STARTCHAR 003F
ENCODING 63
SWIDTH 600 0
DWIDTH 30 0
BBX 17 29 7 0
BITMAP
1FF800
7FFC00
F00E00
C00700
C00380
C00180
C00180
000180
000180
000180
000300
000700
000E00
003C00
00F800
01E000
018000
018000
018000
018000
000000
000000
000000
000000
03E000
07F000
07F000
07F000
03E000
ENDCHAR
STARTCHAR 0040
ENCODING 64
SWIDTH 600 0
DWIDTH 30 0
BBX 19 34 5 -3
BITMAP
01F800
07FE00
0E0700
1C0380
380180
3000C0
6000C0
6000C0
E000C0
C000C0
C00FC0
C03FC0
C078C0
C0E0C0
C0C0C0
C180C0
C180C0
C180C0
C180C0
C180C0
C0C0C0
C0F0C0
C07FE0
C01FE0
C00000
E00000
600000
600000
300000
380000
1C0080
0F0780
07FF00
01FC00
ENDCHAR
STARTCHAR 0041
ENCODING 65
SWIDTH 600 0
DWIDTH 30 0
BBX 28 28 1 0
BITMAP
0FFF0000
0FFF0000
001B0000
00198000
00318000
0031C000
0030C000
0060C000
0060E000
00E06000
00C06000
00C03000
01C03000
01803800
01801800
03001800
03001C00
07FFFC00
07FFFE00
06000600
0E000600
0C000700
0C000300
18000300
18000180
18000180
FFC03FF0
FFC03FF0
ENDCHAR
STARTCHAR 0042
ENCODING 66
SWIDTH 600 0
DWIDTH 30 0
BBX 25 28 2 0
BITMAP
FFFFC000
FFFFF000
0C007800
0C001C00
0C000E00
0C000600
0C000600
0C000600
0C000600
0C000C00
0C001C00
0C007800
0FFFE000
0FFFF800
0C003C00
0C000E00
0C000700
0C000380
0C000180
0C000180
0C000180
0C000180
0C000380
0C000300
0C000700
0C001E00
FFFFFC00
FFFFF000
ENDCHAR
STARTCHAR 0043
ENCODING 67
SWIDTH 600 0
DWIDTH 30 0
BBX 24 29 3 0
BITMAP
01FF86
07FFE6
0F0076
1C001E
18000E
30000E
700006
600006
600000
C00000
C00000
C00000
C00000
C00000
C00000
C00000
C00000
C00000
C00000
E00000
600000
700000
300003
180007
1C000E
0F001C
03C0F8
01FFE0
003F80
ENDCHAR
STARTCHAR 0044
ENCODING 68
SWIDTH 600 0
DWIDTH 30 0
BBX 24 28 2 0
BITMAP
FFFF00
FFFFC0
1801E0
180078
180018
18001C
18000E
180006
180006
180007
180003
180003
180003
180003
180003
180003
180003
180003
180003
180006
180006
18000E
18001C
180018
180078
1801F0
FFFFC0
FFFF00
ENDCHAR
STARTCHAR 0045
ENCODING 69
SWIDTH 600 0
DWIDTH 30 0
BBX 24 28 2 0
BITMAP
FFFFFE
FFFFFE
0C0006
0C0006
0C0006
0C0006
0C0006
0C0006
0C0000
0C0300
0C0300
0C0300
0FFF00
0FFF00
0C0300
0C0300
0C0300
0C0000
0C0000
0C0003
0C0003
0C0003
0C0003
0C0003
0C0003
0C0003
FFFFFF
FFFFFF
ENDCHAR
STARTCHAR 0046
ENCODING 70
SWIDTH 600 0
DWIDTH 30 0
BBX 24 28 2 0
BITMAP
FFFFFF
FFFFFF
0C0003
0C0003
0C0003
0C0003
0C0003
0C0003
0C0000
0C0300
0C0300
0C0300
0FFF00
0FFF00
0C0300
0C0300
0C0300
0C0000
0C0000
0C0000
0C0000
0C0000
0C0000
0C0000
0C0000
0C0000
FFFC00
FFFC00
ENDCHAR
STARTCHAR 0047
ENCODING 71
SWIDTH 600 0
DWIDTH 30 0
BBX 25 29 3 0
BITMAP
01FFC600
03FFF600
0F003E00
1C000E00
18000600
30000600
70000600
60000000
60000000
E0000000
C0000000
C0000000
C0000000
C0000000
C0000000
C0000000
C007FF80
C007FF80
C0000600
C0000600
60000600
60000600
70000600
38000600
1C000600
0E000600
07C03E00
01FFF800
007FC000
ENDCHAR
STARTCHAR 0048
ENCODING 72
SWIDTH 600 0
DWIDTH 30 0
BBX 24 28 3 0
BITMAP
7F81FE
7F81FE
180018
180018
180018
180018
180018
180018
180018
180018
180018
180018
1FFFF8
1FFFF8
180018
180018
180018
180018
180018
180018
180018
180018
180018
180018
180018
180018
FF81FF
FF81FF
ENDCHAR
STARTCHAR 0049
ENCODING 73
SWIDTH 600 0
DWIDTH 30 0
BBX 18 28 6 0
BITMAP
FFFFC0
FFFFC0
00C000
00C000
00C000
00C000
00C000
00C000
00C000
00C000
00C000
00C000
00C000
00C000
00C000
00C000
00C000
00C000
00C000
00C000
00C000
00C000
00C000
00C000
00C000
00C000
FFFFC0
FFFFC0
ENDCHAR
STARTCHAR 004A
ENCODING 74
SWIDTH 600 0
DWIDTH 30 0
BBX 25 29 4 -1
BITMAP
00FFFF80
00FFFF80
00006000
00006000
00006000
00006000
00006000
00006000
00006000
00006000
00006000
00006000
00006000
00006000
00006000
00006000
C0006000
C0006000
C0006000
C0006000
C0006000
C0006000
C000E000
C000C000
E001C000
78038000
3E0F0000
0FFE0000
03F80000
ENDCHAR
STARTCHAR 004B
ENCODING 75
SWIDTH 600 0
DWIDTH 30 0
BBX 26 28 2 0
BITMAP
FFE07F80
FFE0FF80
0C000C00
0C003800
0C007000
0C00E000
0C01C000
0C038000
0C070000
0C0E0000
0C380000
0C700000
0CF80000
0DFE0000
0F870000
0F038000
0E01C000
0C00C000
0C00E000
0C006000
0C003000
0C003000
0C003800
0C001800
0C001C00
0C000C00
FFE00FC0
FFE007C0
ENDCHAR
STARTCHAR 004C
ENCODING 76
SWIDTH 600 0
DWIDTH 30 0
BBX 24 28 3 0
BITMAP
FFFC00
FFFC00
030000
030000
030000
030000
030000
030000
030000
030000
030000
030000
030000
030000
030000
030000
030000
030003
030003
030003
030003
030003
030003
030003
030003
030003
FFFFFF
FFFFFF
ENDCHAR
STARTCHAR 004D
ENCODING 77
SWIDTH 600 0
DWIDTH 30 0
BBX 29 28 1 0
BITMAP
7E0003F0
7E0003F0
1B0006C0
1B0006C0
19800EC0
19800CC0
19C01CC0
18C018C0
18E038C0
186030C0
186030C0
183060C0
183060C0
1818C0C0
1818C0C0
180DC0C0
180D80C0
180F80C0
180700C0
180700C0
180000C0
180000C0
180000C0
180000C0
180000C0
180000C0
FFC01FF8
FFC01FF8
ENDCHAR
STARTCHAR 004E
ENCODING 78
SWIDTH 600 0
DWIDTH 30 0
BBX 27 28 1 0
BITMAP
FE007FE0
FF007FE0
0F000300
0F800300
0D800300
0CC00300
0CE00300
0C600300
0C700300
0C300300
0C180300
0C1C0300
0C0C0300
0C060300
0C070300
0C030300
0C038300
0C018300
0C00C300
0C00E300
0C006300
0C007300
0C003300
0C001B00
0C001F00
0C000F00
7FE00700
7FE00700
ENDCHAR
STARTCHAR 004F
ENCODING 79
SWIDTH 600 0
DWIDTH 30 0
BBX 24 29 3 0
BITMAP
00FF80
03FFC0
0700E0
0E0070
1C0038
38001C
30000C
70000E
600006
600006
C00003
C00003
C00003
C00003
C00003
C00003
C00003
C00003
E00007
600006
600006
70000E
30000C
180018
1C0038
0E0070
0781E0
01FF80
007E00
ENDCHAR
STARTCHAR 0050
ENCODING 80
SWIDTH 600 0
DWIDTH 30 0
BBX 23 28 2 0
BITMAP
FFFF80
FFFFE0
0C00F0
0C0038
0C000C
0C000E
0C0006
0C0006
0C0006
0C0006
0C000E
0C001C
0C0038
0C00F0
0FFFE0
0FFF80
0C0000
0C0000
0C0000
0C0000
0C0000
0C0000
0C0000
0C0000
0C0000
0C0000
FFFC00
FFFC00
ENDCHAR
STARTCHAR 0051
ENCODING 81
SWIDTH 600 0
DWIDTH 30 0
BBX 24 33 3 -4
BITMAP
00FF00
03FFC0
0700E0
0E0070
1C0038
38001C
30000C
70000E
600006
600006
C00003
C00003
C00003
C00003
C00003
C00003
C00003
C00003
E00007
600006
600006
30000E
30000C
180018
1C0038
0E0070
0781E0
01FF80
003E00
00E000
01FF87
07FFFE
0700F8
ENDCHAR
STARTCHAR 0052
ENCODING 82
SWIDTH 600 0
DWIDTH 30 0
BBX 27 28 2 0
BITMAP
FFFF8000
FFFFE000
0C007800
0C001C00
0C000C00
0C000E00
0C000600
0C000600
0C000600
0C000E00
0C000C00
0C003800
0C00F000
0FFFE000
0FFF0000
0C038000
0C01C000
0C00E000
0C007000
0C003800
0C001800
0C001C00
0C000C00
0C000E00
0C000600
0C000300
FFE003E0
FFE001E0
ENDCHAR
STARTCHAR 0053
ENCODING 83
SWIDTH 600 0
DWIDTH 30 0
BBX 20 29 5 0
BITMAP
07FC60
0FFF60
1C03E0
3801E0
7000E0
600060
600060
600060
600000
700000
300000
3C0000
1F8000
03F800
007F00
0003C0
0000E0
000060
000030
000030
C00030
C00030
C00030
E00070
F000E0
F801C0
DE0780
CFFF00
01FC00
ENDCHAR
STARTCHAR 0054
ENCODING 84
SWIDTH 600 0
DWIDTH 30 0
BBX 22 28 4 0
BITMAP
FFFFFC
FFFFFC
C0300C
C0300C
C0300C
C0300C
C0300C
003000
003000
003000
003000
003000
003000
003000
003000
003000
003000
003000
003000
003000
003000
003000
003000
003000
003000
003000
0FFFC0
0FFFC0
ENDCHAR
STARTCHAR 0055
ENCODING 85
SWIDTH 600 0
DWIDTH 30 0
BBX 26 29 2 -1
BITMAP
FFC0FFC0
FFC0FFC0
18000600
18000600
18000600
18000600
18000600
18000600
18000600
18000600
18000600
18000600
18000600
18000600
18000600
18000600
18000600
18000600
18000600
18000600
18000600
18000600
0C000C00
0C000C00
06001800
07003800
03C0F000
00FFC000
003F0000
ENDCHAR
STARTCHAR 0056
ENCODING 86
SWIDTH 600 0
DWIDTH 30 0
BBX 28 28 1 0
BITMAP
FFC03FF0
FFC03FF0
18000180
18000180
18000180
0C000300
0C000300
0E000600
06000600
06000600
03000C00
03000C00
03801800
01801800
01801800
00C03000
00C03000
00E06000
00606000
00606000
0070C000
0030C000
00318000
00198000
00198000
001F0000
000F0000
000E0000
ENDCHAR
STARTCHAR 0057
ENCODING 87
SWIDTH 600 0
DWIDTH 30 0
BBX 28 28 1 0
BITMAP
FFC03FF0
FFC03FF0
300000C0
300000C0
300000C0
38000080
180F0180
180F0180
180F0180
180F8180
18198180
18198180
18198180
1C30C180
0C30C300
0C30C300
0C30E300
0C606300
0C606300
0C606300
0CC07300
0CC03300
06C03200
06C03600
07801E00
07801E00
07801E00
07001E00
ENDCHAR
STARTCHAR 0058
ENCODING 88
SWIDTH 600 0
DWIDTH 30 0
BBX 26 28 2 0
BITMAP
7F807F80
7F807F80
1C000E00
0C000C00
06001800
07003800
03807000
0180E000
00C0C000
00E18000
00738000
003F0000
001E0000
001C0000
001E0000
003F0000
00730000
00618000
00C1C000
01C0E000
03807000
03003000
06003800
0E001C00
1C000E00
18000600
FF807FC0
FF807FC0
ENDCHAR
STARTCHAR 0059
ENCODING 89
SWIDTH 600 0
DWIDTH 30 0
BBX 24 28 3 0
BITMAP
FF00FF
FF00FF
38001C
180018
0C0030
0E0070
070060
0300C0
0381C0
01C180
00C300
00E700
007600
003C00
003C00
001800
001800
001800
001800
001800
001800
001800
001800
001800
001800
001800
07FFE0
07FFE0
ENDCHAR
STARTCHAR 005A
ENCODING 90
SWIDTH 600 0
DWIDTH 30 0
BBX 19 28 6 0
BITMAP
FFFF80
FFFF80
C00080
C00180
C00300
C00600
C00600
C00C00
C01800
001000
003000
006000
004000
00C000
018000
010000
030000
060000
040060
080060
180060
300060
200060
600060
C00060
800060
FFFFE0
FFFFE0
ENDCHAR
STARTCHAR 005B
ENCODING 91
SWIDTH 600 0
DWIDTH 30 0
BBX 8 36 14 -6
BITMAP
FF
FF
C0
C0
C0
C0
C0
C0
C0
C0
C0
C0
C0
C0
C0
C0
C0
C0
C0
C0
C0
C0
C0
C0
C0
C0
C0
C0
C0
C0
C0
C0
C0
C0
FF
FF
ENDCHAR
STARTCHAR 005C
ENCODING 92
SWIDTH 600 0
DWIDTH 30 0
BBX 18 37 6 -4
BITMAP
C00000
C00000
600000
600000
300000
300000
180000
180000
1C0000
0C0000
0E0000
060000
060000
030000
030000
018000
018000
00C000
00C000
00E000
006000
007000
003000
003000
001800
001800
000C00
000C00
000600
000600
000700
000300
000380
000180
000180
0000C0
0000C0
ENDCHAR
STARTCHAR 005D
ENCODING 93
SWIDTH 600 0
DWIDTH 30 0
BBX 8 36 8 -6
BITMAP
FF
FF
03
03
03
03
03
03
03
03
03
03
03
03
03
03
03
03
03
03
03
03
03
03
03
03
03
03
03
03
03
03
03
03
FF
FF
ENDCHAR
STARTCHAR 005E
ENCODING 94
SWIDTH 600 0
DWIDTH 30 0
BBX 18 13 6 18
BITMAP
008000
00C000
01E000
03F000
073800
061800
0C0C00
1C0E00
380700
700380
600180
C000C0
C00040
ENDCHAR
STARTCHAR 005F
ENCODING 95
SWIDTH 600 0
DWIDTH 30 0
BBX 30 3 0 -6
BITMAP
FFFFFFFC
FFFFFFFC
FFFFFFFC
ENDCHAR
STARTCHAR 0060
ENCODING 96
SWIDTH 600 0
DWIDTH 30 0
BBX 8 7 8 25
BITMAP
E0
70
38
1C
0E
07
03
ENDCHAR
STARTCHAR 0061
ENCODING 97
SWIDTH 600 0
DWIDTH 30 0
BBX 23 22 4 0
BITMAP
07FF00
1FFF80
1001C0
0000E0
000060
000060
000060
000060
03FE60
0FFFE0
3E00E0
700060
600060
C00060
C00060
C00060
C000E0
E001E0
600760
781E7E
1FF87E
0FE000
ENDCHAR
STARTCHAR 0062
ENCODING 98
SWIDTH 600 0
DWIDTH 30 0
BBX 26 31 1 -1
BITMAP
FC000000
FC000000
0C000000
0C000000
0C000000
0C000000
0C000000
0C000000
0C000000
0C1FF000
0C7FF800
0CE01E00
0D800700
0F000300
0F000380
0E000180
0E0001C0
0C0000C0
0C0000C0
0C0000C0
0C0000C0
0C0000C0
0C0000C0
0E000180
0E000180
0F000300
0D800700
0DC00E00
FCF03C00
FC3FF800
000FC000
ENDCHAR
STARTCHAR 0063
ENCODING 99
SWIDTH 600 0
DWIDTH 30 0
BBX 23 22 4 0
BITMAP
01FF8C
07FFEC
0E00FC
18003C
30001C
70000C
60000C
E00000
C00000
C00000
C00000
C00000
C00000
C00000
600000
600000
700006
38000E
1C003C
0F80F8
07FFE0
00FF00
ENDCHAR
STARTCHAR 0064
ENCODING 100
SWIDTH 600 0
DWIDTH 30 0
BBX 26 31 3 -1
BITMAP
0000FC00
0000FC00
00000C00
00000C00
00000C00
00000C00
00000C00
00000C00
00000C00
03FE0C00
07FF8C00
1E01CC00
18006C00
30003C00
70003C00
60001C00
E0001C00
C0000C00
C0000C00
C0000C00
C0000C00
C0000C00
C0000C00
60001C00
60001C00
30003C00
38006C00
1C00EC00
0F038FC0
07FF0FC0
00FC0000
ENDCHAR
STARTCHAR 0065
ENCODING 101
SWIDTH 600 0
DWIDTH 30 0
BBX 23 22 3 0
BITMAP
01FF80
07FFC0
1E00F0
180038
300018
70001C
60000C
E00006
C00006
FFFFFE
FFFFFE
C00000
C00000
600000
600000
700000
300000
180006
0E001E
0780F8
03FFE0
007F00
ENDCHAR
STARTCHAR 0066
ENCODING 102
SWIDTH 600 0
DWIDTH 30 0
BBX 21 30 6 0
BITMAP
003FF0
00FFF8
01E000
018000
030000
030000
030000
030000
030000
7FFFC0
7FFFC0
030000
030000
030000
030000
030000
030000
030000
030000
030000
030000
030000
030000
030000
030000
030000
030000
030000
FFFFC0
FFFFC0
ENDCHAR
STARTCHAR 0067
ENCODING 103
SWIDTH 600 0
DWIDTH 30 0
BBX 25 30 3 -8
BITMAP
03FE1F80
0FFF1F80
1C01D800
3800F800
70007800
60003800
E0003800
C0001800
C0001800
C0001800
C0001800
C0001800
E0001800
60003800
70007800
30007800
1C01D800
0F079800
07FF1800
01FC1800
00001800
00001800
00001800
00001800
00003800
00003000
00007000
0001E000
03FFC000
03FF0000
ENDCHAR
STARTCHAR 0068
ENCODING 104
SWIDTH 600 0
DWIDTH 30 0
BBX 25 30 2 0
BITMAP
FC000000
FC000000
0C000000
0C000000
0C000000
0C000000
0C000000
0C000000
0C000000
0C3FC000
0CFFF000
0DC03800
0F801800
0F001C00
0E000C00
0C000C00
0C000C00
0C000C00
0C000C00
0C000C00
0C000C00
0C000C00
0C000C00
0C000C00
0C000C00
0C000C00
0C000C00
0C000C00
7F807F80
7F807F80
ENDCHAR
STARTCHAR 0069
ENCODING 105
SWIDTH 600 0
DWIDTH 30 0
BBX 20 31 5 0
BITMAP
00E000
00E000
00E000
00E000
00E000
000000
000000
000000
000000
000000
3FE000
3FE000
006000
006000
006000
006000
006000
006000
006000
006000
006000
006000
006000
006000
006000
006000
006000
006000
006000
FFFFF0
FFFFF0
ENDCHAR
STARTCHAR 006A
ENCODING 106
SWIDTH 600 0
DWIDTH 30 0
BBX 15 40 6 -9
BITMAP
0038
0038
0038
0038
0038
0000
0000
0000
0000
0000
FFFE
FFFE
0006
0006
0006
0006
0006
0006
0006
0006
0006
0006
0006
0006
0006
0006
0006
0006
0006
0006
0006
0006
0006
0006
0006
000C
001C
0038
FFF0
FFC0
ENDCHAR
STARTCHAR 006B
ENCODING 107
SWIDTH 600 0
DWIDTH 30 0
BBX 24 30 3 0
BITMAP
FC0000
FC0000
0C0000
0C0000
0C0000
0C0000
0C0000
0C0000
0C0000
0C0FF8
0C0FF8
0C0380
0C0700
0C0E00
0C1C00
0C7000
0CE000
0DC000
0FE000
0F7000
0E3800
0C1C00
0C0E00
0C0700
0C0380
0C01C0
0C00E0
0C0070
FC01FF
FC01FF
ENDCHAR
STARTCHAR 006C
ENCODING 108
SWIDTH 600 0
DWIDTH 30 0
BBX 20 30 5 0
BITMAP
3FE000
3FE000
006000
006000
006000
006000
006000
006000
006000
006000
006000
006000
006000
006000
006000
006000
006000
006000
006000
006000
006000
006000
006000
006000
006000
006000
006000
006000
FFFFF0
FFFFF0
ENDCHAR
STARTCHAR 006D
ENCODING 109
SWIDTH 600 0
DWIDTH 30 0
BBX 29 21 1 1
BITMAP
F9F87F00
FBFCFF80
1F0DC180
1E0780C0
1C0700C0
180600C0
180600C0
180600C0
180600C0
180600C0
180600C0
180600C0
180600C0
180600C0
180600C0
180600C0
180600C0
180600C0
180600C0
FF07C0F8
FF07C0F8
ENDCHAR
STARTCHAR 006E
ENCODING 110
SWIDTH 600 0
DWIDTH 30 0
BBX 25 21 2 1
BITMAP
7C3FC000
7CFFF000
0DC03800
0F001800
0E001C00
0E000C00
0C000C00
0C000C00
0C000C00
0C000C00
0C000C00
0C000C00
0C000C00
0C000C00
0C000C00
0C000C00
0C000C00
0C000C00
0C000C00
FF807F80
FF807F80
ENDCHAR
STARTCHAR 006F
ENCODING 111
SWIDTH 600 0
DWIDTH 30 0
BBX 22 22 4 0
BITMAP
03FF00
07FF80
0E01E0
180060
300030
700038
600018
E0001C
C0000C
C0000C
C0000C
C0000C
C0000C
C0000C
600018
600018
700038
380070
1C00E0
0F03C0
07FF80
00FC00
ENDCHAR
STARTCHAR 0070
ENCODING 112
SWIDTH 600 0
DWIDTH 30 0
BBX 26 30 1 -8
BITMAP
FC3FF000
FC7FFC00
0DE01E00
0D800700
0F000380
0E000180
0E0001C0
0C0000C0
0C0000C0
0C0000C0
0C0000C0
0C0000C0
0E0001C0
0E000180
0F000380
0F800700
0DC00E00
0CF03C00
0C7FF800
0C0FE000
0C000000
0C000000
0C000000
0C000000
0C000000
0C000000
0C000000
0C000000
FFF00000
FFF00000
ENDCHAR
STARTCHAR 0071
ENCODING 113
SWIDTH 600 0
DWIDTH 30 0
BBX 26 30 3 -8
BITMAP
03FF0FC0
0FFF8FC0
1E01EC00
38007C00
70003C00
60001C00
E0001C00
C0000C00
C0000C00
C0000C00
C0000C00
C0000C00
E0001C00
60001C00
70003C00
38007C00
1C00EC00
0F03CC00
07FF8C00
01FC0C00
00000C00
00000C00
00000C00
00000C00
00000C00
00000C00
00000C00
00000C00
0003FFC0
0003FFC0
ENDCHAR
STARTCHAR 0072
ENCODING 114
SWIDTH 600 0
DWIDTH 30 0
BBX 23 21 4 1
BITMAP
7F03F8
7F0FFC
031C0E
033804
037000
03E000
038000
030000
030000
030000
030000
030000
030000
030000
030000
030000
030000
030000
030000
FFFFC0
FFFFC0
ENDCHAR
STARTCHAR 0073
ENCODING 115
SWIDTH 600 0
DWIDTH 30 0
BBX 20 22 5 0
BITMAP
07FE60
1FFFE0
3801E0
7000E0
600060
600060
600000
380000
1F0000
07FC00
007F80
0003C0
0000E0
000070
400030
C00030
C00030
E00070
F000E0
FC07C0
CFFF80
03FC00
ENDCHAR
STARTCHAR 0074
ENCODING 116
SWIDTH 600 0
DWIDTH 30 0
BBX 23 29 2 -1
BITMAP
060000
060000
060000
060000
060000
060000
060000
FFFFE0
FFFFE0
060000
060000
060000
060000
060000
060000
060000
060000
060000
060000
060000
060000
060000
060000
060000
060000
03000E
03C0FC
01FFF0
007F80
ENDCHAR
STARTCHAR 0075
ENCODING 117
SWIDTH 600 0
DWIDTH 30 0
BBX 25 22 2 -1
BITMAP
FC01FC00
FC01FC00
0C000C00
0C000C00
0C000C00
0C000C00
0C000C00
0C000C00
0C000C00
0C000C00
0C000C00
0C000C00
0C000C00
0C000C00
0C000C00
0C000C00
0C001C00
0E003C00
0600EC00
0783CF80
03FF0F80
00FC0000
ENDCHAR
STARTCHAR 0076
ENCODING 118
SWIDTH 600 0
DWIDTH 30 0
BBX 26 21 2 0
BITMAP
FFC0FFC0
FFC0FFC0
18000600
0C000C00
0C000C00
0E001C00
06001800
07001800
03003000
03003000
01806000
01806000
00C0E000
00C0C000
00E0C000
00618000
00718000
00330000
00330000
001E0000
001E0000
ENDCHAR
STARTCHAR 0077
ENCODING 119
SWIDTH 600 0
DWIDTH 30 0
BBX 26 21 2 0
BITMAP
FF003FC0
FF003FC0
30000300
30000300
30000300
180C0600
181E0600
181E0600
181E0600
18330400
0C330C00
0C330C00
0C618C00
0C618C00
06619800
06C0D800
06C0D800
06C0D800
07807800
03807000
03807000
ENDCHAR
STARTCHAR 0078
ENCODING 120
SWIDTH 600 0
DWIDTH 30 0
BBX 24 21 3 0
BITMAP
7F81FE
7F81FE
1C0038
0E0070
0700E0
0381C0
01C380
00E700
007E00
003C00
003C00
007E00
00E700
01C380
0381C0
0700E0
0E0070
1C0038
38001C
FF81FF
FF81FF
ENDCHAR
STARTCHAR 0079
ENCODING 121
SWIDTH 600 0
DWIDTH 30 0
BBX 24 30 3 -9
BITMAP
FF00FF
FF00FF
30000C
38000C
180018
1C0018
0C0030
0E0030
060060
070060
0300C0
0380C0
018180
01C180
00C300
00E300
006600
007600
003C00
003C00
001800
001800
003000
003000
006000
006000
00C000
00C000
FFFC00
FFFC00
ENDCHAR
STARTCHAR 007A
ENCODING 122
SWIDTH 600 0
DWIDTH 30 0
BBX 18 21 6 0
BITMAP
FFFF80
FFFF80
C00300
C00700
C00E00
C00C00
001800
003000
006000
00C000
01C000
038000
030000
060000
0C0000
1800C0
3000C0
7000C0
6000C0
FFFFC0
FFFFC0
ENDCHAR
STARTCHAR 007B
ENCODING 123
SWIDTH 600 0
DWIDTH 30 0
BBX 12 36 8 -6
BITMAP
0070
01F0
0180
0300
0300
0300
0300
0300
0300
0300
0300
0300
0300
0300
0300
0600
1E00
F800
F800
1E00
0600
0300
0300
0300
0300
0300
0300
0300
0300
0300
0300
0300
0300
0180
01F0
0070
ENDCHAR
STARTCHAR 007C
ENCODING 124
SWIDTH 600 0
DWIDTH 30 0
BBX 2 36 14 -6
BITMAP
C0
C0
C0
C0
C0
C0
C0
C0
C0
C0
C0
C0
C0
C0
C0
C0
C0
C0
C0
C0
C0
C0
C0
C0
C0
C0
C0
C0
C0
C0
C0
C0
C0
C0
C0
C0
ENDCHAR
STARTCHAR 007D
ENCODING 125
SWIDTH 600 0
DWIDTH 30 0
BBX 12 36 10 -6
BITMAP
E000
F800
1800
0C00
0C00
0C00
0C00
0C00
0C00
0C00
0C00
0C00
0C00
0C00
0C00
0600
0780
01F0
01F0
0780
0600
0C00
0C00
0C00
0C00
0C00
0C00
0C00
0C00
0C00
0C00
0C00
0C00
1800
F800
E000
ENDCHAR
STARTCHAR 007E
ENCODING 126
SWIDTH 600 0
DWIDTH 30 0
BBX 20 6 5 11
BITMAP
1F0000
3FC030
71E070
E078E0
C03FC0
000F80
ENDCHAR
STARTCHAR 00A0
ENCODING 160
SWIDTH 600 0
DWIDTH 30 0
BBX 0 0 0 0
BITMAP
ENDCHAR
STARTCHAR 00A1
ENCODING 161
SWIDTH 600 0
DWIDTH 30 0
BBX 6 31 12 -8
BITMAP
78
FC
FC
FC
78
00
00
00
00
00
00
30
30
30
30
30
30
30
30
30
70
78
78
78
78
78
78
78
78
78
78
ENDCHAR
STARTCHAR 00A2
ENCODING 162
SWIDTH 600 0
DWIDTH 30 0
BBX 17 31 6 0
BITMAP
00C000
00C000
00C000
00C000
00C000
00C000
03F800
0FFF80
1E0F80
380380
700180
600180
600180
C00000
C00000
C00000
C00000
C00000
E00000
600000
700000
380180
1E0780
0FFE00
03F800
00C000
00C000
00C000
00C000
00C000
00C000
ENDCHAR
STARTCHAR 00A3
ENCODING 163
SWIDTH 600 0
DWIDTH 30 0
BBX 22 29 4 0
BITMAP
00FC00
01FE00
038700
070180
0E0080
0C0000
0C0000
0C0000
0C0000
0C0000
060000
060000
060000
FFF800
FFF800
030000
030000
030000
030000
030000
030000
030000
060000
06000C
0E000C
0C000C
1C001C
FFFFF8
7FFFF0
ENDCHAR
STARTCHAR 00A4
ENCODING 164
SWIDTH 600 0
DWIDTH 30 0
BBX 18 19 6 5
BITMAP
C000C0
E3F1C0
7FFF80
3E1F00
380700
300300
700380
600180
600180
600180
600180
600180
300380
300300
180700
3E1F00
7FFF80
E3F1C0
C000C0
ENDCHAR
STARTCHAR 00A5
ENCODING 165
SWIDTH 600 0
DWIDTH 30 0
BBX 24 28 3 0
BITMAP
FF00FF
FF00FF
180018
0C0030
0E0070
060060
0300C0
0300C0
018180
00C300
00C300
006600
007E00
003C00
0FFFF0
0FFFF0
001800
001800
001800
0FFFF0
0FFFF0
001800
001800
001800
001800
001800
03FFC0
03FFC0
ENDCHAR
STARTCHAR 00A6
ENCODING 166
SWIDTH 600 0
DWIDTH 30 0
BBX 2 36 14 -6
BITMAP
C0
C0
C0
C0
C0
C0
C0
C0
C0
C0
C0
C0
C0
C0
C0
C0
00
00
00
00
C0
C0
C0
C0
C0
C0
C0
C0
C0
C0
C0
C0
C0
C0
C0
C0
ENDCHAR
STARTCHAR 00A7
ENCODING 167
SWIDTH 600 0
DWIDTH 30 0
BBX 24 33 3 -3
BITMAP
007FFC
01FFFC
03800C
07000C
06000C
06000C
060000
070000
1F8000
7FC000
F0E000
C07800
C01E00
E00780
7003C0
3800F0
1C003C
0F001E
03C006
00F003
007803
001E03
00070F
0003FE
0001F0
0000E0
000060
300060
300060
3000E0
3001C0
3FFF80
3FFE00
ENDCHAR
STARTCHAR 00A8
ENCODING 168
SWIDTH 600 0
DWIDTH 30 0
BBX 16 5 7 26
BITMAP
700E
F81F
F81F
F81F
700E
ENDCHAR
STARTCHAR 00A9
ENCODING 169
SWIDTH 600 0
DWIDTH 30 0
BBX 30 30 0 -1
BITMAP
001FE000
00FFFC00
01F03E00
07800780
0E0001C0
1C0000E0
38070060
301FF830
70387838
60603818
60601818
C0C0180C
C0C0000C
C0C0000C
C0C0000C
C0C0000C
C0C0000C
C0C0000C
C0C0000C
60600018
60701818
70383838
301FF030
18078060
1C0000E0
0E0001C0
07800780
01E01E00
00FFFC00
001FE000
ENDCHAR
STARTCHAR 00AA
ENCODING 170
SWIDTH 600 0
DWIDTH 30 0
BBX 14 19 8 10
BITMAP
1FC0
3FE0
0030
0030
0030
0730
3FF0
7030
E030
C030
C030
E0F0
7FFC
3F3C
0000
0000
0000
FFFC
FFFC
ENDCHAR
STARTCHAR 00AB
ENCODING 171
SWIDTH 600 0
DWIDTH 30 0
BBX 24 21 3 0
BITMAP
001003
003007
00F00E
01E01C
03C038
078078
0F00F0
1E01E0
3E03C0
7C0780
F80F00
7C0780
3E03C0
1E01E0
0F00F0
078078
03C038
01E01C
00700E
003007
001003
ENDCHAR
STARTCHAR 00AC
ENCODING 172
SWIDTH 600 0
DWIDTH 30 0
BBX 22 13 4 9
BITMAP
FFFFFC
FFFFFC
00000C
00000C
00000C
00000C
00000C
00000C
00000C
00000C
00000C
00000C
00000C
ENDCHAR
STARTCHAR 00AD
ENCODING 173
SWIDTH 600 0
DWIDTH 30 0
BBX 22 2 4 13
BITMAP
FFFFFC
FFFFFC
ENDCHAR
STARTCHAR 00AE
ENCODING 174
SWIDTH 600 0
DWIDTH 30 0
BBX 30 30 0 -1
BITMAP
001FE000
007FFC00
01F01E00
03800780
0E0001C0
0C0000E0
18000070
30FFC030
30FFE038
60303018
60301818
C030180C
C030180C
C030700C
C03FE00C
C03FC00C
C030E00C
C030600C
E030301C
60303818
60301818
30FC1E38
38FC0E30
18000060
0C0000E0
0E0001C0
07800780
01F03E00
00FFFC00
001FE000
ENDCHAR
STARTCHAR 00AF
ENCODING 175
SWIDTH 600 0
DWIDTH 30 0
BBX 14 3 8 26
BITMAP
7FF8
FFFC
7FF8
ENDCHAR
STARTCHAR 00B0
ENCODING 176
SWIDTH 600 0
DWIDTH 30 0
BBX 14 15 8 17
BITMAP
0FC0
1FE0
3870
7038
6018
C00C
C00C
C00C
C00C
C00C
601C
7038
3870
1FE0
0FC0
ENDCHAR
STARTCHAR 00B1
ENCODING 177
SWIDTH 600 0
DWIDTH 30 0
BBX 22 26 4 0
BITMAP
003000
003000
003000
003000
003000
003000
003000
003000
003000
FFFFFC
FFFFFC
003000
003000
003000
003000
003000
003000
003000
003000
003000
000000
000000
000000
000000
FFFFFC
FFFFFC
ENDCHAR
STARTCHAR 00B2
ENCODING 178
SWIDTH 600 0
DWIDTH 30 0
BBX 12 18 8 19
BITMAP
0700
1FC0
30E0
6060
6030
0030
0030
0060
00C0
01C0
0380
0700
0E00
1800
7000
E030
FFF0
FFF0
ENDCHAR
STARTCHAR 00B3
ENCODING 179
SWIDTH 600 0
DWIDTH 30 0
BBX 12 18 9 19
BITMAP
0F00
3F80
60C0
0060
0060
0060
00C0
0F80
0F80
01C0
0060
0030
0030
0030
0060
E0E0
7FC0
1F00
ENDCHAR
STARTCHAR 00B4
ENCODING 180
SWIDTH 600 0
DWIDTH 30 0
BBX 8 7 14 25
BITMAP
03
07
1E
38
70
E0
C0
ENDCHAR
STARTCHAR 00B5
ENCODING 181
SWIDTH 600 0
DWIDTH 30 0
BBX 25 31 2 -10
BITMAP
FC01FC00
FC01FC00
0C000C00
0C000C00
0C000C00
0C000C00
0C000C00
0C000C00
0C000C00
0C000C00
0C000C00
0C000C00
0C000C00
0C000C00
0C000C00
0C000C00
0C001C00
0C003C00
0E00EC00
0F83CF80
0FFF8F80
0CFC0000
0C000000
0C000000
0C000000
0C000000
0C000000
0C000000
0C000000
0C000000
0C000000
ENDCHAR
STARTCHAR 00B6
ENCODING 182
SWIDTH 600 0
DWIDTH 30 0
BBX 22 33 4 -3
BITMAP
03FFFC
0FFFFC
3FB0C0
7C30C0
7830C0
F030C0
F030C0
F030C0
F030C0
F030C0
F030C0
F030C0
7830C0
7C30C0
3FB0C0
0FF0C0
01F0C0
0030C0
0030C0
0030C0
0030C0
0030C0
0030C0
0030C0
0030C0
0030C0
0030C0
0030C0
0030C0
0030C0
0030C0
0FF9FC
0FF9FC
ENDCHAR
STARTCHAR 00B7
ENCODING 183
SWIDTH 600 0
DWIDTH 30 0
BBX 5 5 13 9
BITMAP
70
F8
F8
F8
70
ENDCHAR
STARTCHAR 00B8
ENCODING 184
SWIDTH 600 0
DWIDTH 30 0
BBX 8 9 11 -9
BITMAP
18
18
1C
1F
03
03
C7
FE
3C
ENDCHAR
STARTCHAR 00B9
ENCODING 185
SWIDTH 600 0
DWIDTH 30 0
BBX 11 18 9 19
BITMAP
0200
0E00
7E00
6600
0600
0600
0600
0600
0600
0600
0600
0600
0600
0600
0600
0600
7FE0
FFE0
ENDCHAR
STARTCHAR 00BA
ENCODING 186
SWIDTH 600 0
DWIDTH 30 0
BBX 15 19 8 10
BITMAP
0FE0
3FF8
701C
600C
E00E
C006
C006
C006
C006
600E
701C
3838
1FF0
07C0
0000
0000
0000
FFFE
FFFE
ENDCHAR
STARTCHAR 00BB
ENCODING 187
SWIDTH 600 0
DWIDTH 30 0
BBX 24 21 3 0
BITMAP
C00C00
E00E00
700700
380780
1C03C0
0E01E0
0F00F0
078078
03C03C
01E03E
00F81F
01F03E
03E03C
078078
0F00F0
0E01E0
1C03C0
380780
700700
E00E00
C00C00
ENDCHAR
STARTCHAR 00BC
ENCODING 188
SWIDTH 600 0
DWIDTH 30 0
BBX 29 30 0 1
BITMAP
0E000000
7E000000
66000000
06000000
06000080
06000180
06000380
06000700
06000E00
06001C00
06003800
06003000
06006000
0600E070
0601C0F0
7FE380B0
FFE701B0
000E0330
001C0230
00380630
00300430
00600830
00C01830
01C01FF8
03801FF8
07000030
06000030
00000030
000000F8
000000F8
ENDCHAR
STARTCHAR 00BD
ENCODING 189
SWIDTH 600 0
DWIDTH 30 0
BBX 28 30 1 1
BITMAP
0E000000
7E000000
66000000
06000000
06000200
06000700
06000600
06000C00
06001800
06003800
06007000
0600E000
0600C700
06019FC0
060338E0
7FE76060
FFEE6030
001C0030
00380030
00300060
006000C0
00C001C0
01C00380
03800700
07000E00
06001800
0C007000
0000E030
0000FFF0
0000FFF0
ENDCHAR
STARTCHAR 00BE
ENCODING 190
SWIDTH 600 0
DWIDTH 30 0
BBX 29 30 0 0
BITMAP
3F800000
7FC00000
00C00000
00600000
00600000
00600180
01C00380
0F800700
07C00600
00600C00
00201800
00303800
00307000
0070E000
E0E1C070
7FC180B0
1F0301B0
00060130
000E0230
001C0230
00380430
00300C30
00600830
00C01830
01C01FF8
03801FF8
03000030
02000030
000000F8
000000F8
ENDCHAR
STARTCHAR 00BF
ENCODING 191
SWIDTH 600 0
DWIDTH 30 0
BBX 17 30 6 -9
BITMAP
01E000
03F000
07F800
03F000
01F000
000000
000000
000000
000000
000000
00C000
00C000
00C000
00C000
03C000
078000
1E0000
380000
700000
600000
C00000
C00000
C00000
C00180
C00180
600180
700180
3C0F80
1FFE00
07F000
ENDCHAR
STARTCHAR 00C0
ENCODING 192
SWIDTH 600 0
DWIDTH 30 0
BBX 28 39 1 0
BITMAP
00C00000
00E00000
00700000
00380000
001E0000
00070000
00030000
00000000
00000000
00000000
00000000
0FFF0000
0FFF0000
001B0000
00198000
00318000
0031C000
0030C000
0060C000
0060E000
00E06000
00C06000
00C03000
01C03000
01803800
01801800
03001800
03001C00
07FFFC00
07FFFE00
06000600
0E000600
0C000700
0C000300
18000300
18000180
18000180
FFC03FF0
FFC03FF0
ENDCHAR
STARTCHAR 00C1
ENCODING 193
SWIDTH 600 0
DWIDTH 30 0
BBX 28 39 1 0
BITMAP
00006000
0000E000
0001C000
00038000
00070000
000E0000
001C0000
00000000
00000000
00000000
00000000
0FFF0000
0FFF0000
001B0000
00198000
00318000
0031C000
0030C000
0060C000
0060E000
00E06000
00C06000
00C03000
01C03000
01803800
01801800
03001800
03001C00
07FFFC00
07FFFE00
06000600
0E000600
0C000700
0C000300
18000300
18000180
18000180
FFC03FF0
FFC03FF0
ENDCHAR
STARTCHAR 00C2
ENCODING 194
SWIDTH 600 0
DWIDTH 30 0
BBX 28 38 1 0
BITMAP
00060000
000F8000
001DC000
0078E000
00E07000
01C03800
01801800
00000000
00000000
00000000
0FFF0000
0FFF0000
001B0000
00198000
00318000
0031C000
0030C000
0060C000
0060E000
00E06000
00C06000
00C03000
01C03000
01803800
01801800
03001800
03001C00
07FFFC00
07FFFE00
06000600
0E000600
0C000700
0C000300
18000300
18000180
18000180
FFC03FF0
FFC03FF0
ENDCHAR
STARTCHAR 00C3
ENCODING 195
SWIDTH 600 0
DWIDTH 30 0
BBX 28 35 1 0
BITMAP
00780800
01FE3800
038FF000
0301E000
00000000
00000000
00000000
0FFF0000
0FFF0000
001B0000
00198000
00318000
0031C000
0030C000
0060C000
0060E000
00E06000
00C06000
00C03000
01C03000
01803800
01801800
03001800
03001C00
07FFFC00
07FFFE00
06000600
0E000600
0C000700
0C000300
18000300
18000180
18000180
FFC03FF0
FFC03FF0
ENDCHAR
STARTCHAR 00C4
ENCODING 196
SWIDTH 600 0
DWIDTH 30 0
BBX 28 36 1 0
BITMAP
01C03800
03E07C00
03E07C00
03E07C00
01C03800
00000000
00000000
00000000
0FFF0000
0FFF0000
001B0000
00198000
00318000
0031C000
0030C000
0060C000
0060E000
00E06000
00C06000
00C03000
01C03000
01803800
01801800
03001800
03001C00
07FFFC00
07FFFE00
06000600
0E000600
0C000700
0C000300
18000300
18000180
18000180
FFC03FF0
FFC03FF0
ENDCHAR
STARTCHAR 00C5
ENCODING 197
SWIDTH 600 0
DWIDTH 30 0
BBX 28 39 1 0
BITMAP
001F0000
0039C000
0060C000
00604000
00404000
0060C000
0031C000
001F8000
00000000
00000000
00000000
0FFF0000
0FFF0000
001B0000
00198000
00318000
0031C000
0030C000
0060C000
0060E000
00E06000
00C06000
00C03000
01C03000
01803800
01801800
03001800
03001C00
07FFFC00
07FFFE00
06000600
0E000600
0C000700
0C000300
18000300
18000180
18000180
FFC03FF0
FFC03FF0
ENDCHAR
STARTCHAR 00C6
ENCODING 198
SWIDTH 600 0
DWIDTH 30 0
BBX 28 28 1 0
BITMAP
07FFFFE0
07FFFFE0
00630060
00630060
00630060
00C30060
00C30060
00C30060
00C30000
01830000
01830C00
01830C00
0303FC00
0303FC00
03030C00
03030C00
06030000
07FF0000
07FF0000
0C030000
0C030000
0C030030
0C030030
18030030
18030030
18030030
FE1FFFF0
FE1FFFF0
ENDCHAR
STARTCHAR 00C7
ENCODING 199
SWIDTH 600 0
DWIDTH 30 0
BBX 24 37 3 -8
BITMAP
01FF86
07FFE6
0F0076
1C001E
18000E
30000E
700006
600006
600000
C00000
C00000
C00000
C00000
C00000
C00000
C00000
C00000
C00000
C00000
600000
600000
700000
300003
180007
0C000E
07001C
03C0F8
00FFE0
001F80
001800
001C00
001F00
000300
000300
00C700
00FE00
003C00
ENDCHAR
STARTCHAR 00C8
ENCODING 200
SWIDTH 600 0
DWIDTH 30 0
BBX 24 39 2 0
BITMAP
01C000
00E000
007000
003800
001C00
000E00
000600
000000
000000
000000
000000
FFFFFE
FFFFFE
0C0006
0C0006
0C0006
0C0006
0C0006
0C0006
0C0000
0C0300
0C0300
0C0300
0FFF00
0FFF00
0C0300
0C0300
0C0300
0C0000
0C0000
0C0003
0C0003
0C0003
0C0003
0C0003
0C0003
0C0003
FFFFFF
FFFFFF
ENDCHAR
STARTCHAR 00C9
ENCODING 201
SWIDTH 600 0
DWIDTH 30 0
BBX 24 39 2 0
BITMAP
000180
000380
000700
000E00
001C00
003800
006000
000000
000000
000000
000000
FFFFFE
FFFFFE
0C0006
0C0006
0C0006
0C0006
0C0006
0C0006
0C0000
0C0300
0C0300
0C0300
0FFF00
0FFF00
0C0300
0C0300
0C0300
0C0000
0C0000
0C0003
0C0003
0C0003
0C0003
0C0003
0C0003
0C0003
FFFFFF
FFFFFF
ENDCHAR
STARTCHAR 00CA
ENCODING 202
SWIDTH 600 0
DWIDTH 30 0
BBX 24 38 2 0
BITMAP
000C00
001E00
007F00
00E380
01C1C0
0380F0
070030
000000
000000
000000
FFFFFE
FFFFFE
0C0006
0C0006
0C0006
0C0006
0C0006
0C0006
0C0000
0C0300
0C0300
0C0300
0FFF00
0FFF00
0C0300
0C0300
0C0300
0C0000
0C0000
0C0003
0C0003
0C0003
0C0003
0C0003
0C0003
0C0003
FFFFFF
FFFFFF
ENDCHAR
STARTCHAR 00CB
ENCODING 203
SWIDTH 600 0
DWIDTH 30 0
BBX 24 36 2 0
BITMAP
030060
0780F0
0780F0
0780F0
0780F0
000000
000000
000000
FFFFFE
FFFFFE
0C0006
0C0006
0C0006
0C0006
0C0006
0C0006
0C0000
0C0300
0C0300
0C0300
0FFF00
0FFF00
0C0300
0C0300
0C0300
0C0000
0C0000
0C0003
0C0003
0C0003
0C0003
0C0003
0C0003
0C0003
FFFFFF
FFFFFF
ENDCHAR
STARTCHAR 00CC
ENCODING 204
SWIDTH 600 0
DWIDTH 30 0
BBX 18 39 6 0
BITMAP
0C0000
0F0000
038000
01C000
00E000
007000
003000
000000
000000
000000
000000
FFFFC0
FFFFC0
00C000
00C000
00C000
00C000
00C000
00C000
00C000
00C000
00C000
00C000
00C000
00C000
00C000
00C000
00C000
00C000
00C000
00C000
00C000
00C000
00C000
00C000
00C000
00C000
FFFFC0
FFFFC0
ENDCHAR
STARTCHAR 00CD
ENCODING 205
SWIDTH 600 0
DWIDTH 30 0
BBX 18 39 6 0
BITMAP
000300
000E00
001C00
003800
007000
00E000
00C000
000000
000000
000000
000000
FFFFC0
FFFFC0
00C000
00C000
00C000
00C000
00C000
00C000
00C000
00C000
00C000
00C000
00C000
00C000
00C000
00C000
00C000
00C000
00C000
00C000
00C000
00C000
00C000
00C000
00C000
00C000
FFFFC0
FFFFC0
ENDCHAR
STARTCHAR 00CE
ENCODING 206
SWIDTH 600 0
DWIDTH 30 0
BBX 18 38 6 1
BITMAP
00C000
01F000
03B800
0F1C00
1C0E00
380700
300100
000000
000000
000000
FFFFC0
FFFFC0
00C000
00C000
00C000
00C000
00C000
00C000
00C000
00C000
00C000
00C000
00C000
00C000
00C000
00C000
00C000
00C000
00C000
00C000
00C000
00C000
00C000
00C000
00C000
00C000
FFFFC0
FFFFC0
ENDCHAR
STARTCHAR 00CF
ENCODING 207
SWIDTH 600 0
DWIDTH 30 0
BBX 18 36 6 0
BITMAP
380700
7C0F80
7C0F80
7C0F80
380700
000000
000000
000000
FFFFC0
FFFFC0
00C000
00C000
00C000
00C000
00C000
00C000
00C000
00C000
00C000
00C000
00C000
00C000
00C000
00C000
00C000
00C000
00C000
00C000
00C000
00C000
00C000
00C000
00C000
00C000
FFFFC0
FFFFC0
ENDCHAR
STARTCHAR 00D0
ENCODING 208
SWIDTH 600 0
DWIDTH 30 0
BBX 26 28 0 0
BITMAP
3FFFC000
3FFFF000
06007800
06001C00
06000600
06000700
06000380
06000180
06000180
060000C0
060000C0
060000C0
FFFF00C0
FFFF00C0
060000C0
060000C0
060000C0
060000C0
060000C0
06000180
06000180
06000380
06000700
06000E00
06001C00
06007800
3FFFF000
3FFFC000
ENDCHAR
STARTCHAR 00D1
ENCODING 209
SWIDTH 600 0
DWIDTH 30 0
BBX 27 35 1 0
BITMAP
00F81800
01FE3800
038FF000
0203C000
00000000
00000000
00000000
FE007FE0
FF007FE0
0F000300
0F800300
0D800300
0CC00300
0CE00300
0C600300
0C700300
0C300300
0C180300
0C1C0300
0C0C0300
0C060300
0C070300
0C030300
0C038300
0C018300
0C00C300
0C00E300
0C006300
0C007300
0C003300
0C001B00
0C001F00
0C000F00
7FE00700
7FE00700
ENDCHAR
STARTCHAR 00D2
ENCODING 210
SWIDTH 600 0
DWIDTH 30 0
BBX 24 40 3 -1
BITMAP
018000
01C000
00E000
007000
003C00
000E00
000600
000000
000000
000000
000000
00FF80
03FFC0
0700E0
0E0070
1C0038
38001C
30000C
70000E
600006
600006
C00003
C00003
C00003
C00003
C00003
C00003
C00003
C00003
E00007
600006
600006
70000E
30000C
180018
1C0038
0E0070
0781E0
01FF80
007E00
ENDCHAR
STARTCHAR 00D3
ENCODING 211
SWIDTH 600 0
DWIDTH 30 0
BBX 24 40 3 -1
BITMAP
000180
000380
000F00
001C00
003800
007000
006000
000000
000000
000000
000000
00FF80
03FFC0
0700E0
0E0070
1C0038
38001C
30000C
70000E
600006
600006
C00003
C00003
C00003
C00003
C00003
C00003
C00003
C00003
E00007
600006
600006
70000E
30000C
180018
1C0038
0E0070
0781E0
01FF80
007E00
ENDCHAR
STARTCHAR 00D4
ENCODING 212
SWIDTH 600 0
DWIDTH 30 0
BBX 24 39 3 -1
BITMAP
001800
003E00
007700
01E380
0381C0
0700E0
060060
000000
000000
000000
00FF80
03FFC0
0700E0
0E0070
1C0038
38001C
30000C
70000E
600006
600006
C00003
C00003
C00003
C00003
C00003
C00003
C00003
C00003
E00007
600006
600006
70000E
30000C
180018
1C0038
0E0070
0781E0
01FF80
007E00
ENDCHAR
STARTCHAR 00D5
ENCODING 213
SWIDTH 600 0
DWIDTH 30 0
BBX 24 36 3 -1
BITMAP
01E020
07F8E0
0E3FC0
0C0F80
000000
000000
000000
00FF80
03FFC0
0700E0
0E0070
1C0038
38001C
30000C
70000E
600006
600006
C00003
C00003
C00003
C00003
C00003
C00003
C00003
C00003
E00007
600006
600006
70000E
30000C
180018
1C0038
0E0070
0781E0
01FF80
007E00
ENDCHAR
STARTCHAR 00D6
ENCODING 214
SWIDTH 600 0
DWIDTH 30 0
BBX 24 37 3 -1
BITMAP
0700E0
0F81F0
0F81F0
0F81F0
0700E0
000000
000000
000000
00FF80
03FFC0
0700E0
0E0070
1C0038
38001C
30000C
70000E
600006
600006
C00003
C00003
C00003
C00003
C00003
C00003
C00003
C00003
E00007
600006
600006
70000E
30000C
180018
1C0038
0E0070
0781E0
01FF80
007E00
ENDCHAR
STARTCHAR 00D7
ENCODING 215
SWIDTH 600 0
DWIDTH 30 0
BBX 18 18 6 5
BITMAP
C000C0
E001C0
700380
380700
1C0E00
0E1C00
073800
03F000
01E000
01E000
03F000
073800
0E1C00
1C0E00
380700
700380
E001C0
C000C0
ENDCHAR
STARTCHAR 00D8
ENCODING 216
SWIDTH 600 0
DWIDTH 30 0
BBX 26 32 2 -2
BITMAP
000000C0
00000180
007F8380
01FFE300
03807600
07003C00
0E001C00
1C001E00
18003600
38006700
3000C300
3000C300
60018180
60030180
60060180
600E0180
600C0180
60180180
60300180
60700180
70600380
30C00300
31800300
1B800700
1B000600
0E000C00
0E001C00
1F003800
3BC0F000
30FFC000
603F0000
C0000000
ENDCHAR
STARTCHAR 00D9
ENCODING 217
SWIDTH 600 0
DWIDTH 30 0
BBX 26 40 2 -1
BITMAP
00C00000
00E00000
00700000
00380000
001E0000
00070000
00030000
00000000
00000000
00000000
00000000
FFC0FFC0
FFC0FFC0
18000600
18000600
18000600
18000600
18000600
18000600
18000600
18000600
18000600
18000600
18000600
18000600
18000600
18000600
18000600
18000600
18000600
18000600
18000600
18000600
0C000C00
0C000C00
06001800
07003800
03C0F000
00FFC000
003F0000
ENDCHAR
STARTCHAR 00DA
ENCODING 218
SWIDTH 600 0
DWIDTH 30 0
BBX 26 40 2 -1
BITMAP
0000C000
0001C000
00038000
00070000
001E0000
00380000
00300000
00000000
00000000
00000000
00000000
FFC0FFC0
FFC0FFC0
18000600
18000600
18000600
18000600
18000600
18000600
18000600
18000600
18000600
18000600
18000600
18000600
18000600
18000600
18000600
18000600
18000600
18000600
18000600
18000600
0C000C00
0C000C00
06001800
07003800
03C0F000
00FFC000
003F0000
ENDCHAR
STARTCHAR 00DB
ENCODING 219
SWIDTH 600 0
DWIDTH 30 0
BBX 26 39 2 -1
BITMAP
000C0000
001F0000
003B8000
00F1C000
01C0E000
03807000
03003000
00000000
00000000
00000000
FFC0FFC0
FFC0FFC0
18000600
18000600
18000600
18000600
18000600
18000600
18000600
18000600
18000600
18000600
18000600
18000600
18000600
18000600
18000600
18000600
18000600
18000600
18000600
18000600
0C000C00
0C000C00
06001800
07003800
03C0F000
00FFC000
003F0000
ENDCHAR
STARTCHAR 00DC
ENCODING 220
SWIDTH 600 0
DWIDTH 30 0
BBX 26 37 2 -1
BITMAP
03807000
07C0F800
07C0F800
07C0F800
03807000
00000000
00000000
00000000
FFC0FFC0
FFC0FFC0
18000600
18000600
18000600
18000600
18000600
18000600
18000600
18000600
18000600
18000600
18000600
18000600
18000600
18000600
18000600
18000600
18000600
18000600
18000600
18000600
0C000C00
0C000C00
06001800
07003800
03C0F000
00FFC000
003F0000
ENDCHAR
STARTCHAR 00DD
ENCODING 221
SWIDTH 600 0
DWIDTH 30 0
BBX 24 39 3 0
BITMAP
000180
000380
000F00
001C00
003800
007000
006000
000000
000000
000000
000000
FF00FF
FF00FF
38001C
180018
0C0030
0E0070
070060
0300C0
0381C0
01C180
00C300
00E700
007600
003C00
003C00
001800
001800
001800
001800
001800
001800
001800
001800
001800
001800
001800
07FFE0
07FFE0
ENDCHAR
STARTCHAR 00DE
ENCODING 222
SWIDTH 600 0
DWIDTH 30 0
BBX 23 28 2 0
BITMAP
FFFC00
FFFC00
0C0000
0C0000
0C0000
0C0000
0FFF80
0FFFE0
0C0070
0C0038
0C000C
0C000E
0C0006
0C0006
0C0006
0C0006
0C000E
0C001C
0C0038
0C00F0
0FFFE0
0FFF80
0C0000
0C0000
0C0000
0C0000
FFFC00
FFFC00
ENDCHAR
STARTCHAR 00DF
ENCODING 223
SWIDTH 600 0
DWIDTH 30 0
BBX 24 31 1 -1
BITMAP
007E00
01FF00
038380
0701C0
0E00E0
0C0060
0C0060
0C0060
0C0060
0C00C0
0C03C0
0C1F80
0C1FC0
0C01F0
0C0038
0C001C
0C000E
0C0006
0C0007
0C0003
0C0003
0C0003
0C0003
0C0003
0C0003
0C1807
0C1806
0C1C0E
FF0E1C
FF07F8
0003F0
ENDCHAR
STARTCHAR 00E0
ENCODING 224
SWIDTH 600 0
DWIDTH 30 0
BBX 23 33 4 0
BITMAP
070000
038000
01C000
00E000
007000
003800
001800
000000
000000
000000
000000
07FF00
1FFF80
1001C0
0000E0
000060
000060
000060
000060
03FE60
0FFFE0
3E00E0
700060
600060
C00060
C00060
C00060
C000E0
E001E0
600760
781E7E
1FF87E
0FE000
ENDCHAR
STARTCHAR 00E1
ENCODING 225
SWIDTH 600 0
DWIDTH 30 0
BBX 23 33 4 0
BITMAP
000700
000E00
001C00
003800
007000
00E000
008000
000000
000000
000000
000000
07FF00
1FFF80
1001C0
0000E0
000060
000060
000060
000060
03FE60
0FFFE0
3E00E0
700060
600060
C00060
C00060
C00060
C000E0
E001E0
600760
781E7E
1FF87E
0FE000
ENDCHAR
STARTCHAR 00E2
ENCODING 226
SWIDTH 600 0
DWIDTH 30 0
BBX 23 33 4 -1
BITMAP
002000
007000
00FC00
01DE00
078700
0F0380
1C01C0
080000
000000
000000
000000
07FF00
1FFF80
1001C0
0000E0
000060
000060
000060
000060
03FE60
0FFFE0
3E00E0
700060
600060
C00060
C00060
C00060
C000E0
E001E0
600760
781E7E
1FF87E
0FE000
ENDCHAR
STARTCHAR 00E3
ENCODING 227
SWIDTH 600 0
DWIDTH 30 0
BBX 23 30 4 -1
BITMAP
038040
0FF0C0
1E7F80
181F00
000000
000000
000000
000000
07FF00
1FFF80
1001C0
0000E0
000060
000060
000060
000060
03FE60
0FFFE0
3E00E0
700060
600060
C00060
C00060
C00060
C000E0
E001E0
600760
781E7E
1FF87E
0FE000
ENDCHAR
STARTCHAR 00E4
ENCODING 228
SWIDTH 600 0
DWIDTH 30 0
BBX 23 31 4 -1
BITMAP
1C0380
1E03C0
3E07C0
1E03C0
1C0380
000000
000000
000000
000000
07FF00
1FFF80
1001C0
0000E0
000060
000060
000060
000060
03FE60
0FFFE0
3E00E0
700060
600060
C00060
C00060
C00060
C000E0
E001E0
600760
781E7E
1FF87E
0FE000
ENDCHAR
STARTCHAR 00E5
ENCODING 229
SWIDTH 600 0
DWIDTH 30 0
BBX 23 34 4 -1
BITMAP
00F800
01FE00
030600
030300
030300
030600
018E00
00FC00
000000
000000
000000
000000
07FF00
1FFF80
1001C0
0000E0
000060
000060
000060
000060
03FE60
0FFFE0
3E00E0
700060
600060
C00060
C00060
C00060
C000E0
E001E0
600760
781E7E
1FF87E
0FE000
ENDCHAR
STARTCHAR 00E6
ENCODING 230
SWIDTH 600 0
DWIDTH 30 0
BBX 28 22 1 0
BITMAP
0FF07E00
1FF8FF80
001DC180
000F80C0
00070040
00070040
00070060
00060020
07F60020
1FFFFFE0
3C0FFFE0
70060000
E0060000
C0060000
C0070000
C0070000
C00F0000
601F8030
603FC070
3876E1E0
1FE67F80
0F801F00
ENDCHAR
STARTCHAR 00E7
ENCODING 231
SWIDTH 600 0
DWIDTH 30 0
BBX 22 30 4 -8
BITMAP
01FF98
07FFD8
0E00F8
1C0078
300038
700018
600018
E00000
C00000
C00000
C00000
C00000
C00000
C00000
600000
600000
70000C
38001C
1C0038
0F81F0
03FFC0
003E00
003000
003800
003E00
000600
000600
018E00
01FC00
007800
ENDCHAR
STARTCHAR 00E8
ENCODING 232
SWIDTH 600 0
DWIDTH 30 0
BBX 23 33 3 0
BITMAP
018000
01C000
00E000
007800
001C00
000E00
000600
000000
000000
000000
000000
01FF80
07FFC0
1E00F0
180038
300018
70001C
60000C
E00006
C00006
FFFFFE
FFFFFE
C00000
C00000
600000
600000
700000
300000
180006
0E001E
0780F8
03FFE0
007F00
ENDCHAR
STARTCHAR 00E9
ENCODING 233
SWIDTH 600 0
DWIDTH 30 0
BBX 23 33 3 0
BITMAP
000180
000380
000F00
001C00
003800
007000
006000
000000
000000
000000
000000
01FF80
07FFC0
1E00F0
180038
300018
70001C
60000C
E00006
C00006
FFFFFE
FFFFFE
C00000
C00000
600000
600000
700000
300000
180006
0E001E
0780F8
03FFE0
007F00
ENDCHAR
STARTCHAR 00EA
ENCODING 234
SWIDTH 600 0
DWIDTH 30 0
BBX 23 33 3 -1
BITMAP
000800
001C00
003E00
007700
01E3C0
0380E0
070070
020020
000000
000000
000000
01FF80
07FFC0
1E00F0
180038
300018
70001C
60000C
E00006
C00006
FFFFFE
FFFFFE
C00000
C00000
600000
600000
700000
300000
180006
0E001E
0780F8
03FFE0
007F00
ENDCHAR
STARTCHAR 00EB
ENCODING 235
SWIDTH 600 0
DWIDTH 30 0
BBX 23 31 3 -1
BITMAP
0700E0
0F81F0
0F81F0
0F81F0
0700E0
000000
000000
000000
000000
01FF80
07FFC0
1E00F0
180038
300018
70001C
60000C
E00006
C00006
FFFFFE
FFFFFE
C00000
C00000
600000
600000
700000
300000
180006
0E001E
0780F8
03FFE0
007F00
ENDCHAR
STARTCHAR 00EC
ENCODING 236
SWIDTH 600 0
DWIDTH 30 0
BBX 20 32 5 1
BITMAP
0E0000
070000
038000
01C000
00E000
007000
003000
000000
000000
000000
000000
3FE000
3FE000
006000
006000
006000
006000
006000
006000
006000
006000
006000
006000
006000
006000
006000
006000
006000
006000
006000
FFFFF0
FFFFF0
ENDCHAR
STARTCHAR 00ED
ENCODING 237
SWIDTH 600 0
DWIDTH 30 0
BBX 20 32 5 1
BITMAP
000E00
001C00
003800
007000
00E000
01C000
010000
000000
000000
000000
000000
3FE000
3FE000
006000
006000
006000
006000
006000
006000
006000
006000
006000
006000
006000
006000
006000
006000
006000
006000
006000
FFFFF0
FFFFF0
ENDCHAR
STARTCHAR 00EE
ENCODING 238
SWIDTH 600 0
DWIDTH 30 0
BBX 20 32 5 0
BITMAP
004000
00E000
03F000
073800
0E1E00
1C0700
380380
000100
000000
000000
000000
3FE000
3FE000
006000
006000
006000
006000
006000
006000
006000
006000
006000
006000
006000
006000
006000
006000
006000
006000
006000
FFFFF0
FFFFF0
ENDCHAR
STARTCHAR 00EF
ENCODING 239
SWIDTH 600 0
DWIDTH 30 0
BBX 20 30 5 0
BITMAP
380700
3C0780
7C0F80
3C0780
380700
000000
000000
000000
000000
3FE000
3FE000
006000
006000
006000
006000
006000
006000
006000
006000
006000
006000
006000
006000
006000
006000
006000
006000
006000
FFFFF0
FFFFF0
ENDCHAR
STARTCHAR 00F0
ENCODING 240
SWIDTH 600 0
DWIDTH 30 0
BBX 22 32 4 -1
BITMAP
0F00C0
0FC3C0
03FF80
007E00
00FE00
03E700
018380
000180
0000C0
0000E0
03FE60
07FFF0
1E01F0
180078
300038
700038
60001C
E0001C
C0000C
C0000C
C0000C
C0000C
C0000C
C0000C
600018
600018
700038
380070
1C00E0
0F03C0
07FF80
00FC00
ENDCHAR
STARTCHAR 00F1
ENCODING 241
SWIDTH 600 0
DWIDTH 30 0
BBX 25 29 2 0
BITMAP
00E01000
03F87000
073FE000
0607C000
00000000
00000000
00000000
00000000
7C3FC000
7CFFF000
0DC03800
0F001800
0E001C00
0E000C00
0C000C00
0C000C00
0C000C00
0C000C00
0C000C00
0C000C00
0C000C00
0C000C00
0C000C00
0C000C00
0C000C00
0C000C00
0C000C00
FF807F80
FF807F80
ENDCHAR
STARTCHAR 00F2
ENCODING 242
SWIDTH 600 0
DWIDTH 30 0
BBX 22 33 4 0
BITMAP
030000
038000
01E000
007000
003800
001C00
000C00
000000
000000
000000
000000
03FF00
07FF80
0E01E0
180060
300030
700038
600018
E0001C
C0000C
C0000C
C0000C
C0000C
C0000C
C0000C
600018
600018
700038
380070
1C00E0
0F03C0
07FF80
00FC00
ENDCHAR
STARTCHAR 00F3
ENCODING 243
SWIDTH 600 0
DWIDTH 30 0
BBX 22 33 4 0
BITMAP
000700
000E00
001C00
003800
007000
00E000
00C000
000000
000000
000000
000000
03FF00
07FF80
0E01E0
180060
300030
700038
600018
E0001C
C0000C
C0000C
C0000C
C0000C
C0000C
C0000C
600018
600018
700038
380070
1C00E0
0F03C0
07FF80
00FC00
ENDCHAR
STARTCHAR 00F4
ENCODING 244
SWIDTH 600 0
DWIDTH 30 0
BBX 22 33 4 -1
BITMAP
001000
007800
00FC00
01CF00
038780
0701C0
0E00E0
000000
000000
000000
000000
03FF00
07FF80
0E01E0
180060
300030
700038
600018
E0001C
C0000C
C0000C
C0000C
C0000C
C0000C
C0000C
600018
600018
700038
380070
1C00E0
0F03C0
07FF80
00FC00
ENDCHAR
STARTCHAR 00F5
ENCODING 245
SWIDTH 600 0
DWIDTH 30 0
BBX 22 30 4 -1
BITMAP
038040
0FF0C0
1E7FC0
181F00
000000
000000
000000
000000
03FF00
07FF80
0E01E0
180060
300030
700038
600018
E0001C
C0000C
C0000C
C0000C
C0000C
C0000C
C0000C
600018
600018
700038
380070
1C00E0
0F03C0
07FF80
00FC00
ENDCHAR
STARTCHAR 00F6
ENCODING 246
SWIDTH 600 0
DWIDTH 30 0
BBX 22 31 4 -1
BITMAP
0E01C0
1F03E0
1F03E0
1F03E0
0E01C0
000000
000000
000000
000000
03FF00
07FF80
0E01E0
180060
300030
700038
600018
E0001C
C0000C
C0000C
C0000C
C0000C
C0000C
C0000C
600018
600018
700038
380070
1C00E0
0F03C0
07FF80
00FC00
ENDCHAR
STARTCHAR 00F7
ENCODING 247
SWIDTH 600 0
DWIDTH 30 0
BBX 22 26 4 1
BITMAP
003800
007C00
007C00
007C00
003800
000000
000000
000000
000000
000000
000000
000000
FFFFFC
FFFFFC
000000
000000
000000
000000
000000
000000
000000
003800
007C00
007C00
007C00
003800
ENDCHAR
STARTCHAR 00F8
ENCODING 248
SWIDTH 600 0
DWIDTH 30 0
BBX 24 25 3 -2
BITMAP
000003
000006
01FF8C
03FFDC
0F00F8
0C0030
180078
3800DC
30018C
70030E
600606
600C06
601806
603006
606006
60E006
31C00C
33800C
1F001C
1E0038
0E0070
1F81E0
33FFC0
607E00
C00000
ENDCHAR
STARTCHAR 00F9
ENCODING 249
SWIDTH 600 0
DWIDTH 30 0
BBX 25 33 2 0
BITMAP
01C00000
00E00000
00700000
00380000
001C0000
000E0000
00020000
00000000
00000000
00000000
00000000
FC01FC00
FC01FC00
0C000C00
0C000C00
0C000C00
0C000C00
0C000C00
0C000C00
0C000C00
0C000C00
0C000C00
0C000C00
0C000C00
0C000C00
0C000C00
0C000C00
0C001C00
0E003C00
0600EC00
0783CF80
03FF0F80
00FC0000
ENDCHAR
STARTCHAR 00FA
ENCODING 250
SWIDTH 600 0
DWIDTH 30 0
BBX 25 33 2 0
BITMAP
00018000
00038000
000F0000
001C0000
00380000
00700000
00600000
00000000
00000000
00000000
00000000
FC01FC00
FC01FC00
0C000C00
0C000C00
0C000C00
0C000C00
0C000C00
0C000C00
0C000C00
0C000C00
0C000C00
0C000C00
0C000C00
0C000C00
0C000C00
0C000C00
0C001C00
0E003C00
0600EC00
0783CF80
03FF0F80
00FC0000
ENDCHAR
STARTCHAR 00FB
ENCODING 251
SWIDTH 600 0
DWIDTH 30 0
BBX 25 32 2 0
BITMAP
001E0000
003F0000
00738000
00E1C000
01C0E000
03807000
02001000
00000000
00000000
00000000
FC01FC00
FC01FC00
0C000C00
0C000C00
0C000C00
0C000C00
0C000C00
0C000C00
0C000C00
0C000C00
0C000C00
0C000C00
0C000C00
0C000C00
0C000C00
0C000C00
0C001C00
0E003C00
0600EC00
0783CF80
03FF0F80
00FC0000
ENDCHAR
STARTCHAR 00FC
ENCODING 252
SWIDTH 600 0
DWIDTH 30 0
BBX 25 31 2 -1
BITMAP
03807000
0780F000
07C0F800
0780F000
03807000
00000000
00000000
00000000
00000000
FC01FC00
FC01FC00
0C000C00
0C000C00
0C000C00
0C000C00
0C000C00
0C000C00
0C000C00
0C000C00
0C000C00
0C000C00
0C000C00
0C000C00
0C000C00
0C000C00
0C001C00
0E003C00
0600EC00
0783CF80
03FF0F80
00FC0000
ENDCHAR
STARTCHAR 00FD
ENCODING 253
SWIDTH 600 0
DWIDTH 30 0
BBX 24 41 3 -8
BITMAP
0000E0
0001C0
000380
000700
000E00
001C00
001000
000000
000000
000000
000000
FF00FF
FF00FF
30000C
38000C
180018
1C0018
0C0030
0E0030
060060
070060
0300C0
0380C0
018180
01C180
00C300
00E300
006600
007600
003C00
003C00
001800
001800
003000
003000
006000
006000
00C000
00C000
FFFC00
FFFC00
ENDCHAR
STARTCHAR 00FE
ENCODING 254
SWIDTH 600 0
DWIDTH 30 0
BBX 26 38 1 -9
BITMAP
FC000000
FC000000
0C000000
0C000000
0C000000
0C000000
0C000000
0C000000
0C3FF000
0C7FFC00
0CE01E00
0D800700
0F000380
0E000180
0E0001C0
0C0000C0
0C0000C0
0C0000C0
0C0000C0
0C0000C0
0E0000C0
0E000180
0F000380
0F800700
0DC00E00
0CF03C00
0C7FF800
0C0FE000
0C000000
0C000000
0C000000
0C000000
0C000000
0C000000
0C000000
0C000000
FFF00000
FFF00000
ENDCHAR
STARTCHAR 00FF
ENCODING 255
SWIDTH 600 0
DWIDTH 30 0
BBX 24 39 3 -9
BITMAP
0700E0
0F81F0
0F81F0
0F81F0
0700E0
000000
000000
000000
000000
FF00FF
FF00FF
30000C
38000C
180018
1C0018
0C0030
0E0030
060060
070060
0300C0
0380C0
018180
01C180
00C300
00E300
006600
007600
003C00
003C00
001800
001800
003000
003000
006000
006000
00C000
00C000
FFFC00
FFFC00
ENDCHAR
STARTCHAR 0100
ENCODING 256
SWIDTH 600 0
DWIDTH 30 0
BBX 28 33 1 0
BITMAP
1FFFC000
0FFFC000
00000000
00000000
00000000
0FFF0000
0FFF0000
001B0000
00198000
00318000
0031C000
0030C000
0060C000
0060E000
00E06000
00C06000
00C03000
01C03000
01803800
01801800
03001800
03001C00
07FFFC00
07FFFE00
06000600
0E000600
0C000700
0C000300
18000300
18000180
18000180
FFC03FF0
FFC03FF0
ENDCHAR
STARTCHAR 0101
ENCODING 257
SWIDTH 600 0
DWIDTH 30 0
BBX 23 27 4 -1
BITMAP
0FFFC0
0FFFC0
000000
000000
000000
07FF00
1FFF80
1001C0
0000E0
000060
000060
000060
000060
03FE60
0FFFE0
3E00E0
700060
600060
C00060
C00060
C00060
C000E0
E001E0
600760
781E7E
1FF87E
0FE000
ENDCHAR
STARTCHAR 0102
ENCODING 258
SWIDTH 600 0
DWIDTH 30 0
BBX 28 37 1 0
BITMAP
01801800
01801800
01C03800
00F0F000
007FE000
001F8000
00000000
00000000
00000000
0FFF0000
0FFF0000
001B0000
00198000
00318000
0031C000
0030C000
0060C000
0060E000
00E06000
00C06000
00C03000
01C03000
01803800
01801800
03001800
03001C00
07FFFC00
07FFFE00
06000600
0E000600
0C000700
0C000300
18000300
18000180
18000180
FFC03FF0
FFC03FF0
ENDCHAR
STARTCHAR 0103
ENCODING 259
SWIDTH 600 0
DWIDTH 30 0
BBX 23 32 4 -1
BITMAP
0C00C0
0C00C0
0E01C0
078780
03FF00
00FC00
000000
000000
000000
000000
07FF00
1FFF80
1001C0
0000E0
000060
000060
000060
000060
03FE60
0FFFE0
3E00E0
700060
600060
C00060
C00060
C00060
C000E0
E001E0
600760
781E7E
1FF87E
0FE000
ENDCHAR
STARTCHAR 0104
ENCODING 260
SWIDTH 600 0
DWIDTH 30 0
BBX 29 36 0 -8
BITMAP
07FF0000
07FF8000
000D8000
001CC000
0018C000
0018C000
00386000
00306000
00306000
00703000
00603000
00E01800
00E01800
00C01800
01C00C00
01800C00
01800C00
03FFFE00
03FFFE00
07000700
06000300
06000300
0C000380
0C000180
0C000180
180000C0
FFC01FF8
FFC01FF8
00000060
000000C0
00000180
00000300
00000300
00000300
000003F8
000001F0
ENDCHAR
STARTCHAR 0105
ENCODING 261
SWIDTH 600 0
DWIDTH 30 0
BBX 23 29 4 -7
BITMAP
07FF00
1FFF80
1001C0
0000E0
000060
000060
000060
000060
03FE60
0FFFE0
3E00E0
700060
600060
C00060
C00060
C00060
C000E0
E001E0
600760
781E7E
3FF87E
0FE01C
000030
000060
0000C0
0000C0
0000C0
0000FE
00007C
ENDCHAR
STARTCHAR 0106
ENCODING 262
SWIDTH 600 0
DWIDTH 30 0
BBX 24 40 3 -1
BITMAP
0000E0
0001C0
000380
000700
000E00
001C00
003000
000000
000000
000000
000000
01FF86
07FFE6
0F0076
1C001E
18000E
30000E
700006
600006
600000
C00000
C00000
C00000
C00000
C00000
C00000
C00000
C00000
C00000
C00000
E00000
600000
700000
300003
180007
1C000E
0F001C
03C0F8
01FFE0
003F80
ENDCHAR
STARTCHAR 0107
ENCODING 263
SWIDTH 600 0
DWIDTH 30 0
BBX 23 33 4 0
BITMAP
0001C0
000380
000700
000E00
001C00
003800
002000
000000
000000
000000
000000
01FF8C
07FFEC
0E00FC
18003C
30001C
70000C
60000C
E00000
C00000
C00000
C00000
C00000
C00000
C00000
600000
600000
700006
38000E
1C003C
0F80F8
07FFE0
00FF00
ENDCHAR
STARTCHAR 0108
ENCODING 264
SWIDTH 600 0
DWIDTH 30 0
BBX 24 40 3 -1
BITMAP
000800
001C00
003E00
007700
00E380
03C1E0
070070
060030
000000
000000
000000
01FF86
07FFE6
0F0076
1C001E
18000E
30000E
700006
600006
600000
C00000
C00000
C00000
C00000
C00000
C00000
C00000
C00000
C00000
C00000
E00000
600000
700000
300003
180007
1C000E
0F001C
03C0F8
01FFE0
003F80
ENDCHAR
STARTCHAR 0109
ENCODING 265
SWIDTH 600 0
DWIDTH 30 0
BBX 23 32 4 0
BITMAP
001800
007E00
00E700
01C380
0381C0
0700E0
040020
000000
000000
000000
01FF8C
07FFEC
0E00FC
18003C
30001C
70000C
60000C
E00000
C00000
C00000
C00000
C00000
C00000
C00000
600000
600000
700006
38000E
1C003C
0F80F8
07FFE0
00FF00
ENDCHAR
STARTCHAR 010A
ENCODING 266
SWIDTH 600 0
DWIDTH 30 0
BBX 24 37 3 -1
BITMAP
001C00
003E00
003E00
003E00
001C00
000000
000000
000000
01FF86
07FFE6
0F0076
1C001E
18000E
30000E
700006
600006
600000
C00000
C00000
C00000
C00000
C00000
C00000
C00000
C00000
C00000
C00000
E00000
600000
700000
300003
180007
1C000E
0F001C
03C0F8
01FFE0
003F80
ENDCHAR
STARTCHAR 010B
ENCODING 267
SWIDTH 600 0
DWIDTH 30 0
BBX 23 31 4 -1
BITMAP
001C00
003C00
003E00
003E00
001C00
000000
000000
000000
000000
01FF8C
07FFEC
0E00FC
18003C
30001C
70000C
60000C
E00000
C00000
C00000
C00000
C00000
C00000
C00000
600000
600000
700006
38000E
1C003C
0F80F8
07FFE0
00FF00
ENDCHAR
STARTCHAR 010C
ENCODING 268
SWIDTH 600 0
DWIDTH 30 0
BBX 24 39 3 -1
BITMAP
060030
0380E0
01C1C0
00E380
007700
003E00
000800
000000
000000
000000
01FF86
07FFE6
0F0076
1C001E
18000E
30000E
700006
600006
600000
C00000
C00000
C00000
C00000
C00000
C00000
C00000
C00000
C00000
C00000
E00000
600000
700000
300003
180007
1C000E
0F001C
03C0F8
01FFE0
003F80
ENDCHAR
STARTCHAR 010D
ENCODING 269
SWIDTH 600 0
DWIDTH 30 0
BBX 23 34 4 -1
BITMAP
020000
070070
0380E0
01E1C0
007380
003F00
001E00
000800
000000
000000
000000
000000
01FF8C
07FFEC
0E00FC
18003C
30001C
70000C
60000C
E00000
C00000
C00000
C00000
C00000
C00000
C00000
600000
600000
700006
38000E
1C003C
0F80F8
07FFE0
00FF00
ENDCHAR
STARTCHAR 010E
ENCODING 270
SWIDTH 600 0
DWIDTH 30 0
BBX 24 38 2 0
BITMAP
060060
0700E0
03C1C0
00E380
007700
003E00
001800
000000
000000
000000
FFFF00
FFFFC0
1801E0
180078
180018
18001C
18000E
180006
180006
180007
180003
180003
180003
180003
180003
180003
180003
180003
180003
180006
180006
18000E
18001C
180018
180078
1801F0
FFFFC0
FFFF00
ENDCHAR
STARTCHAR 010F
ENCODING 271
SWIDTH 600 0
DWIDTH 30 0
BBX 32 32 3 -1
BITMAP
0000000F
0000FC1E
0000FC1E
00000C1C
00000C18
00000C38
00000C30
00000C30
00000C20
00000C00
03FE0C00
07FF8C00
1E01CC00
18006C00
30003C00
70003C00
60001C00
E0001C00
C0000C00
C0000C00
C0000C00
C0000C00
C0000C00
C0000C00
60001C00
60001C00
30003C00
38006C00
1C00EC00
0F038FC0
07FF0FC0
00FC0000
ENDCHAR
STARTCHAR 0110
ENCODING 272
SWIDTH 600 0
DWIDTH 30 0
BBX 26 28 0 0
BITMAP
3FFFC000
3FFFF000
06007800
06001C00
06000600
06000700
06000380
06000180
06000180
060000C0
060000C0
060000C0
FFFF00C0
FFFF00C0
060000C0
060000C0
060000C0
060000C0
060000C0
06000180
06000180
06000380
06000700
06000E00
06001C00
06007800
3FFFF000
3FFFC000
ENDCHAR
STARTCHAR 0111
ENCODING 273
SWIDTH 600 0
DWIDTH 30 0
BBX 26 31 3 -1
BITMAP
0000FC00
0000FC00
00000C00
00000C00
000FFFC0
000FFFC0
00000C00
00000C00
00000C00
03FE0C00
07FF8C00
1E01CC00
18006C00
30003C00
70003C00
60001C00
E0001C00
C0000C00
C0000C00
C0000C00
C0000C00
C0000C00
C0000C00
60001C00
60001C00
70003C00
38007C00
1C00EC00
0F03CFC0
07FF0FC0
00FC0000
ENDCHAR
STARTCHAR 0112
ENCODING 274
SWIDTH 600 0
DWIDTH 30 0
BBX 24 33 2 0
BITMAP
07FFF0
07FFF0
000000
000000
000000
FFFFFE
FFFFFE
0C0006
0C0006
0C0006
0C0006
0C0006
0C0006
0C0000
0C0300
0C0300
0C0300
0FFF00
0FFF00
0C0300
0C0300
0C0300
0C0000
0C0000
0C0003
0C0003
0C0003
0C0003
0C0003
0C0003
0C0003
FFFFFF
FFFFFF
ENDCHAR
STARTCHAR 0113
ENCODING 275
SWIDTH 600 0
DWIDTH 30 0
BBX 23 27 3 -1
BITMAP
07FFE0
07FFE0
000000
000000
000000
01FF80
07FFC0
1E00F0
180038
300018
70001C
60000C
E00006
C00006
FFFFFE
FFFFFE
C00000
C00000
600000
600000
700000
300000
180006
0E001E
0780F8
03FFE0
007F00
ENDCHAR
STARTCHAR 0114
ENCODING 276
SWIDTH 600 0
DWIDTH 30 0
BBX 24 37 2 0
BITMAP
060060
060060
0300E0
03C3C0
01FF80
003C00
000000
000000
000000
FFFFFE
FFFFFE
0C0006
0C0006
0C0006
0C0006
0C0006
0C0006
0C0000
0C0300
0C0300
0C0300
0FFF00
0FFF00
0C0300
0C0300
0C0300
0C0000
0C0000
0C0003
0C0003
0C0003
0C0003
0C0003
0C0003
0C0003
FFFFFF
FFFFFF
ENDCHAR
STARTCHAR 0115
ENCODING 277
SWIDTH 600 0
DWIDTH 30 0
BBX 23 32 3 -1
BITMAP
060060
0600E0
0700C0
03C3C0
01FF00
007C00
000000
000000
000000
000000
01FF80
07FFC0
1E00F0
180038
300018
70001C
60000C
E00006
C00006
FFFFFE
FFFFFE
C00000
C00000
600000
600000
700000
300000
180006
0E001E
0780F8
03FFE0
007F00
ENDCHAR
STARTCHAR 0116
ENCODING 278
SWIDTH 600 0
DWIDTH 30 0
BBX 24 36 2 0
BITMAP
001C00
003E00
003E00
003E00
001C00
000000
000000
000000
FFFFFE
FFFFFE
0C0006
0C0006
0C0006
0C0006
0C0006
0C0006
0C0000
0C0300
0C0300
0C0300
0FFF00
0FFF00
0C0300
0C0300
0C0300
0C0000
0C0000
0C0003
0C0003
0C0003
0C0003
0C0003
0C0003
0C0003
FFFFFF
FFFFFF
ENDCHAR
STARTCHAR 0117
ENCODING 279
SWIDTH 600 0
DWIDTH 30 0
BBX 23 32 3 -1
BITMAP
001800
003C00
003E00
003C00
003C00
000000
000000
000000
000000
000000
01FF80
07FFC0
1E00F0
180038
300018
70001C
60000C
E00006
C00006
FFFFFE
FFFFFE
C00000
C00000
600000
600000
700000
300000
180006
0E001E
0780F8
03FFE0
007F00
ENDCHAR
STARTCHAR 0118
ENCODING 280
SWIDTH 600 0
DWIDTH 30 0
BBX 25 36 2 -8
BITMAP
FFFFFE00
FFFFFE00
0C000600
0C000600
0C000600
0C000600
0C000600
0C000600
0C000000
0C030000
0C030000
0C030000
0FFF0000
0FFF0000
0C030000
0C030000
0C030000
0C000000
0C000000
0C000300
0C000300
0C000300
0C000300
0C000300
0C000300
0C000300
FFFFFF00
FFFFFF00
00000600
00001C00
00001800
00003000
00003000
00003000
00003F80
00001F00
ENDCHAR
STARTCHAR 0119
ENCODING 281
SWIDTH 600 0
DWIDTH 30 0
BBX 23 29 3 -7
BITMAP
03FF00
07FFC0
1E00E0
380030
300018
70001C
60000C
E00004
C00006
FFFFFE
FFFFFE
C00000
C00000
E00000
600000
700000
300000
38000C
1E001C
0F80F8
03FFE0
00FFC0
000300
000600
000C00
000C00
000C00
000FE0
0007C0
ENDCHAR
STARTCHAR 011A
ENCODING 282
SWIDTH 600 0
DWIDTH 30 0
BBX 24 38 2 0
BITMAP
060030
0700F0
01C1C0
00E380
007700
003E00
001C00
000000
000000
000000
FFFFFE
FFFFFE
0C0006
0C0006
0C0006
0C0006
0C0006
0C0006
0C0000
0C0300
0C0300
0C0300
0FFF00
0FFF00
0C0300
0C0300
0C0300
0C0000
0C0000
0C0003
0C0003
0C0003
0C0003
0C0003
0C0003
0C0003
FFFFFF
FFFFFF
ENDCHAR
STARTCHAR 011B
ENCODING 283
SWIDTH 600 0
DWIDTH 30 0
BBX 23 33 3 0
BITMAP
0600E0
0701C0
03C380
00E700
007E00
003C00
001000
000000
000000
000000
000000
01FF80
07FFC0
1E00F0
180038
300018
70001C
60000C
E00006
C00006
FFFFFE
FFFFFE
C00000
C00000
600000
600000
700000
300000
180006
0E001E
0780F8
03FFE0
007F00
ENDCHAR
STARTCHAR 011C
ENCODING 284
SWIDTH 600 0
DWIDTH 30 0
BBX 25 39 3 -1
BITMAP
000C0000
001E0000
003F0000
00F3C000
01C0E000
03807000
03003000
00000000
00000000
00000000
01FFC600
03FFF600
0F003E00
1C000E00
18000600
30000600
70000600
60000000
60000000
E0000000
C0000000
C0000000
C0000000
C0000000
C0000000
C0000000
C007FF80
C007FF80
C0000600
C0000600
60000600
60000600
70000600
38000600
1C000600
0E000600
07C03E00
01FFF800
007FC000
ENDCHAR
STARTCHAR 011D
ENCODING 285
SWIDTH 600 0
DWIDTH 30 0
BBX 25 41 3 -8
BITMAP
00700000
00F80000
01DC0000
038F0000
07038000
0E01C000
0800C000
00000000
00000000
00000000
00000000
03FE1F80
0FFF1F80
1C01D800
3800F800
70007800
60003800
E0003800
C0001800
C0001800
C0001800
C0001800
C0001800
E0001800
60003800
70007800
30007800
1C01D800
0F079800
07FF1800
01FC1800
00001800
00001800
00001800
00001800
00003800
00003000
00007000
0001E000
03FFC000
03FF0000
ENDCHAR
STARTCHAR 011E
ENCODING 286
SWIDTH 600 0
DWIDTH 30 0
BBX 25 38 3 -1
BITMAP
03003000
03007000
03806000
01E1E000
00FF8000
003E0000
00000000
00000000
00000000
01FFC600
03FFF600
0F003E00
1C000E00
18000600
30000600
70000600
60000000
60000000
E0000000
C0000000
C0000000
C0000000
C0000000
C0000000
C0000000
C007FF80
C007FF80
C0000600
C0000600
60000600
60000600
70000600
38000600
1C000600
0E000600
07C03E00
01FFF800
007FC000
ENDCHAR
STARTCHAR 011F
ENCODING 287
SWIDTH 600 0
DWIDTH 30 0
BBX 25 40 3 -9
BITMAP
06006000
06006000
0700E000
0383C000
01FF8000
007E0000
00000000
00000000
00000000
00000000
03FE1F80
0FFF1F80
1C01D800
3800F800
70007800
60003800
E0003800
C0001800
C0001800
C0001800
C0001800
C0001800
E0001800
60003800
70007800
30007800
1C01D800
0F079800
07FF1800
01FC1800
00001800
00001800
00001800
00001800
00003800
00003000
00007000
0001E000
03FFC000
03FF0000
ENDCHAR
STARTCHAR 0120
ENCODING 288
SWIDTH 600 0
DWIDTH 30 0
BBX 25 37 3 -1
BITMAP
000E0000
001E0000
001F0000
001E0000
000C0000
00000000
00000000
00000000
01FFC600
03FFF600
0F003E00
1C000E00
18000600
30000600
70000600
60000000
60000000
E0000000
C0000000
C0000000
C0000000
C0000000
C0000000
C0000000
C007FF80
C007FF80
C0000600
C0000600
60000600
60000600
70000600
38000600
1C000600
0E000600
07C03E00
01FFF800
007FC000
ENDCHAR
STARTCHAR 0121
ENCODING 289
SWIDTH 600 0
DWIDTH 30 0
BBX 25 40 3 -9
BITMAP
00300000
00780000
00F80000
00780000
00780000
00000000
00000000
00000000
00000000
00000000
03FE1F80
0FFF1F80
1C01D800
3800F800
70007800
60003800
E0003800
C0001800
C0001800
C0001800
C0001800
C0001800
E0001800
60003800
70007800
30007800
1C01D800
0F079800
07FF1800
01FC1800
00001800
00001800
00001800
00001800
00003800
00003000
00007000
0001E000
03FFC000
03FF0000
ENDCHAR
STARTCHAR 0122
ENCODING 290
SWIDTH 600 0
DWIDTH 30 0
BBX 25 38 3 -9
BITMAP
01FFC600
03FFF600
0F003E00
1C000E00
18000600
30000600
70000600
60000000
60000000
E0000000
C0000000
C0000000
C0000000
C0000000
C0000000
C0000000
C007FF80
C007FF80
C0000600
C0000600
60000600
60000600
70000600
38000600
1C000600
0E000600
07C03E00
01FFF800
007FC000
00000000
00000000
001C0000
00380000
00380000
00300000
00700000
00600000
00400000
ENDCHAR
STARTCHAR 0123
ENCODING 291
SWIDTH 600 0
DWIDTH 30 0
BBX 25 43 3 -9
BITMAP
00040000
000C0000
001C0000
00180000
00380000
00380000
00700000
00700000
00F00000
00000000
00000000
00000000
00000000
03FE1F80
0FFF1F80
1C01D800
3800F800
70007800
60003800
E0003800
C0001800
C0001800
C0001800
C0001800
C0001800
E0001800
60003800
70007800
30007800
1C01D800
0F079800
07FF1800
01FC1800
00001800
00001800
00001800
00001800
00003800
00003000
00007000
0001E000
03FFC000
03FF0000
ENDCHAR
STARTCHAR 0124
ENCODING 292
SWIDTH 600 0
DWIDTH 30 0
BBX 24 38 3 0
BITMAP
001C00
003E00
007700
00E380
03C1C0
0700E0
060020
000000
000000
000000
7F81FE
7F81FE
180018
180018
180018
180018
180018
180018
180018
180018
180018
180018
1FFFF8
1FFFF8
180018
180018
180018
180018
180018
180018
180018
180018
180018
180018
180018
180018
FF81FF
FF81FF
ENDCHAR
STARTCHAR 0125
ENCODING 293
SWIDTH 600 0
DWIDTH 30 0
BBX 25 39 2 1
BITMAP
000E0000
003F0000
00738000
00E1C000
01C0F000
03803000
02001000
00000000
00000000
FC000000
FC000000
0C000000
0C000000
0C000000
0C000000
0C000000
0C000000
0C000000
0C3FC000
0CFFF000
0DC03800
0F801800
0F001C00
0E000C00
0C000C00
0C000C00
0C000C00
0C000C00
0C000C00
0C000C00
0C000C00
0C000C00
0C000C00
0C000C00
0C000C00
0C000C00
0C000C00
7F807F80
7F807F80
ENDCHAR
STARTCHAR 0126
ENCODING 294
SWIDTH 600 0
DWIDTH 30 0
BBX 24 28 3 0
BITMAP
7F81FE
7F81FE
180018
180018
180018
180018
180018
7FFFFE
7FFFFE
180018
180018
180018
1FFFF8
1FFFF8
180018
180018
180018
180018
180018
180018
180018
180018
180018
180018
180018
180018
FF81FF
FF81FF
ENDCHAR
STARTCHAR 0127
ENCODING 295
SWIDTH 600 0
DWIDTH 30 0
BBX 25 30 2 0
BITMAP
FC000000
FC000000
0C000000
0C000000
0C000000
FFFC0000
FFFC0000
0C000000
0C000000
0C3FC000
0CFFF000
0DC03800
0F801800
0F001C00
0E000C00
0C000C00
0C000C00
0C000C00
0C000C00
0C000C00
0C000C00
0C000C00
0C000C00
0C000C00
0C000C00
0C000C00
0C000C00
0C000C00
7F807F80
7F807F80
ENDCHAR
STARTCHAR 0128
ENCODING 296
SWIDTH 600 0
DWIDTH 30 0
BBX 18 35 6 0
BITMAP
0F0100
3FC700
71FE00
603C00
000000
000000
000000
FFFFC0
FFFFC0
00C000
00C000
00C000
00C000
00C000
00C000
00C000
00C000
00C000
00C000
00C000
00C000
00C000
00C000
00C000
00C000
00C000
00C000
00C000
00C000
00C000
00C000
00C000
00C000
FFFFC0
FFFFC0
ENDCHAR
STARTCHAR 0129
ENCODING 297
SWIDTH 600 0
DWIDTH 30 0
BBX 20 29 5 0
BITMAP
070080
1FE180
3CFF00
303E00
000000
000000
000000
000000
3FE000
3FE000
006000
006000
006000
006000
006000
006000
006000
006000
006000
006000
006000
006000
006000
006000
006000
006000
006000
FFFFF0
FFFFF0
ENDCHAR
STARTCHAR 012A
ENCODING 298
SWIDTH 600 0
DWIDTH 30 0
BBX 18 33 6 0
BITMAP
3FFF00
3FFF00
000000
000000
000000
FFFFC0
FFFFC0
00C000
00C000
00C000
00C000
00C000
00C000
00C000
00C000
00C000
00C000
00C000
00C000
00C000
00C000
00C000
00C000
00C000
00C000
00C000
00C000
00C000
00C000
00C000
00C000
FFFFC0
FFFFC0
ENDCHAR
STARTCHAR 012B
ENCODING 299
SWIDTH 600 0
DWIDTH 30 0
BBX 20 26 5 0
BITMAP
1FFF80
1FFF80
000000
000000
000000
3FE000
3FE000
006000
006000
006000
006000
006000
006000
006000
006000
006000
006000
006000
006000
006000
006000
006000
006000
006000
FFFFF0
FFFFF0
ENDCHAR
STARTCHAR 012C
ENCODING 300
SWIDTH 600 0
DWIDTH 30 0
BBX 18 37 6 0
BITMAP
300300
300300
380700
1E1E00
0FFC00
01E000
000000
000000
000000
FFFFC0
FFFFC0
00C000
00C000
00C000
00C000
00C000
00C000
00C000
00C000
00C000
00C000
00C000
00C000
00C000
00C000
00C000
00C000
00C000
00C000
00C000
00C000
00C000
00C000
00C000
00C000
FFFFC0
FFFFC0
ENDCHAR
STARTCHAR 012D
ENCODING 301
SWIDTH 600 0
DWIDTH 30 0
BBX 20 31 5 0
BITMAP
180180
180180
1C0380
0F0F00
07FE00
01F800
000000
000000
000000
000000
3FE000
3FE000
006000
006000
006000
006000
006000
006000
006000
006000
006000
006000
006000
006000
006000
006000
006000
006000
006000
FFFFF0
FFFFF0
ENDCHAR
STARTCHAR 012E
ENCODING 302
SWIDTH 600 0
DWIDTH 30 0
BBX 18 36 6 -8
BITMAP
FFFFC0
FFFFC0
00C000
00C000
00C000
00C000
00C000
00C000
00C000
00C000
00C000
00C000
00C000
00C000
00C000
00C000
00C000
00C000
00C000
00C000
00C000
00C000
00C000
00C000
00C000
00C000
FFFFC0
FFFFC0
000380
000600
000C00
001800
001800
001800
001FC0
000F80
ENDCHAR
STARTCHAR 012F
ENCODING 303
SWIDTH 600 0
DWIDTH 30 0
BBX 20 39 5 -8
BITMAP
00E000
00E000
00E000
00E000
00E000
000000
000000
000000
000000
000000
3FE000
3FE000
006000
006000
006000
006000
006000
006000
006000
006000
006000
006000
006000
006000
006000
006000
006000
006000
006000
FFFFF0
FFFFF0
0000E0
000180
000300
000600
000600
000600
0007F0
0003E0
ENDCHAR
STARTCHAR 0130
ENCODING 304
SWIDTH 600 0
DWIDTH 30 0
BBX 18 36 6 0
BITMAP
00E000
01F000
01F000
01F000
00E000
000000
000000
000000
FFFFC0
FFFFC0
00C000
00C000
00C000
00C000
00C000
00C000
00C000
00C000
00C000
00C000
00C000
00C000
00C000
00C000
00C000
00C000
00C000
00C000
00C000
00C000
00C000
00C000
00C000
00C000
FFFFC0
FFFFC0
ENDCHAR
STARTCHAR 0131
ENCODING 305
SWIDTH 600 0
DWIDTH 30 0
BBX 20 21 5 0
BITMAP
3FE000
3FE000
006000
006000
006000
006000
006000
006000
006000
006000
006000
006000
006000
006000
006000
006000
006000
006000
006000
FFFFF0
FFFFF0
ENDCHAR
STARTCHAR 0132
ENCODING 306
SWIDTH 600 0
DWIDTH 30 0
BBX 26 29 2 -1
BITMAP
FF01FFC0
FF01FFC0
18000600
18000600
18000600
18000600
18000600
18000600
18000600
18000600
18000600
18000600
18000600
18000600
18000600
18000600
18C00600
18C00600
18C00600
18C00600
18C00600
18C00600
18C00600
18C00E00
18E00C00
18601C00
FF383800
FF1FF000
000FC000
ENDCHAR
STARTCHAR 0133
ENCODING 307
SWIDTH 600 0
DWIDTH 30 0
BBX 18 40 7 -9
BITMAP
1C01C0
1C01C0
1C01C0
1C01C0
1C01C0
000000
000000
000000
000000
000000
FC3F80
FC3F80
0C0180
0C0180
0C0180
0C0180
0C0180
0C0180
0C0180
0C0180
0C0180
0C0180
0C0180
0C0180
0C0180
0C0180
0C0180
0C0180
0C0180
FFC180
FFC180
000180
000180
000180
000180
000300
000700
000E00
3FFC00
3FF000
ENDCHAR
STARTCHAR 0134
ENCODING 308
SWIDTH 600 0
DWIDTH 30 0
BBX 25 39 4 -1
BITMAP
00008000
0001C000
0003F000
000F3800
001C1C00
00380E00
00700700
00000000
00000000
00000000
00FFFF80
00FFFF80
00006000
00006000
00006000
00006000
00006000
00006000
00006000
00006000
00006000
00006000
00006000
00006000
00006000
00006000
C0006000
C0006000
C0006000
C0006000
C0006000
C0006000
C000E000
C000C000
E001C000
78038000
3E0F0000
0FFE0000
03F80000
ENDCHAR
STARTCHAR 0135
ENCODING 309
SWIDTH 600 0
DWIDTH 30 0
BBX 16 43 6 -9
BITMAP
0080
01C0
03E0
0778
1E1C
380E
7007
2002
0000
0000
0000
0000
0000
FFFE
FFFE
0006
0006
0006
0006
0006
0006
0006
0006
0006
0006
0006
0006
0006
0006
0006
0006
0006
0006
0006
0006
0006
0006
0006
000C
001C
0038
FFF0
FFC0
ENDCHAR
STARTCHAR 0136
ENCODING 310
SWIDTH 600 0
DWIDTH 30 0
BBX 26 38 2 -10
BITMAP
FFE07F80
FFE0FF80
0C000C00
0C003800
0C007000
0C00E000
0C01C000
0C038000
0C070000
0C0E0000
0C380000
0C700000
0CF80000
0DFE0000
0F870000
0F038000
0E01C000
0C00C000
0C00E000
0C006000
0C003000
0C003000
0C003800
0C001800
0C001C00
0C000C00
FFE00FC0
FFE00FC0
00000000
00000000
00000000
001C0000
00380000
00380000
00300000
00700000
00600000
00400000
ENDCHAR
STARTCHAR 0137
ENCODING 311
SWIDTH 600 0
DWIDTH 30 0
BBX 24 40 3 -10
BITMAP
FC0000
FC0000
0C0000
0C0000
0C0000
0C0000
0C0000
0C0000
0C0000
0C0FF8
0C0FF8
0C0380
0C0700
0C0E00
0C1C00
0C7000
0CE000
0DC000
0FE000
0F7000
0E3800
0C1C00
0C0E00
0C0700
0C0380
0C01C0
0C00E0
0C0070
FC01FF
FC01FF
000000
000000
000000
003800
007000
007000
006000
00E000
00C000
008000
ENDCHAR
STARTCHAR 0138
ENCODING 312
SWIDTH 600 0
DWIDTH 30 0
BBX 23 21 4 0
BITMAP
FC0FF8
FC0FF8
0C0380
0C0700
0C0E00
0C3800
0C7000
0CE000
0DC000
0F0000
0F0000
0F8000
0CE000
0C7000
0C3800
0C0E00
0C0700
0C0380
0C00E0
FC03FE
FC03FE
ENDCHAR
STARTCHAR 0139
ENCODING 313
SWIDTH 600 0
DWIDTH 30 0
BBX 24 38 3 1
BITMAP
001C00
003800
007000
00E000
01C000
038000
030000
000000
000000
000000
FFFC00
FFFC00
030000
030000
030000
030000
030000
030000
030000
030000
030000
030000
030000
030000
030000
030000
030000
030003
030003
030003
030003
030003
030003
030003
030003
030003
FFFFFF
FFFFFF
ENDCHAR
STARTCHAR 013A
ENCODING 314
SWIDTH 600 0
DWIDTH 30 0
BBX 20 40 5 0
BITMAP
000380
000700
000E00
001C00
003800
007000
006000
000000
000000
000000
3FE000
3FE000
006000
006000
006000
006000
006000
006000
006000
006000
006000
006000
006000
006000
006000
006000
006000
006000
006000
006000
006000
006000
006000
006000
006000
006000
006000
006000
FFFFF0
FFFFF0
ENDCHAR
STARTCHAR 013B
ENCODING 315
SWIDTH 600 0
DWIDTH 30 0
BBX 24 38 3 -10
BITMAP
FFFC00
FFFC00
030000
030000
030000
030000
030000
030000
030000
030000
030000
030000
030000
030000
030000
030000
030000
030003
030003
030003
030003
030003
030003
030003
030003
030003
FFFFFF
FFFFFF
000000
000000
000000
003800
007000
007000
006000
00E000
00C000
008000
ENDCHAR
STARTCHAR 013C
ENCODING 316
SWIDTH 600 0
DWIDTH 30 0
BBX 20 40 5 -10
BITMAP
3FE000
3FE000
006000
006000
006000
006000
006000
006000
006000
006000
006000
006000
006000
006000
006000
006000
006000
006000
006000
006000
006000
006000
006000
006000
006000
006000
006000
006000
FFFFF0
FFFFF0
000000
000000
000000
00E000
01C000
01C000
018000
038000
030000
020000
ENDCHAR
STARTCHAR 013D
ENCODING 317
SWIDTH 600 0
DWIDTH 30 0
BBX 24 29 3 0
BITMAP
00000F
FFFC0F
FFFC0E
03000E
03001C
030018
030018
030030
030000
030000
030000
030000
030000
030000
030000
030000
030000
030000
030003
030003
030003
030003
030003
030003
030003
030003
030003
FFFFFF
FFFFFF
ENDCHAR
STARTCHAR 013E
ENCODING 318
SWIDTH 600 0
DWIDTH 30 0
BBX 21 31 5 0
BITMAP
000078
3FE070
3FE0F0
0060E0
0060E0
0060C0
0061C0
006180
006180
006000
006000
006000
006000
006000
006000
006000
006000
006000
006000
006000
006000
006000
006000
006000
006000
006000
006000
006000
006000
FFFFF0
FFFFF0
ENDCHAR
STARTCHAR 013F
ENCODING 319
SWIDTH 600 0
DWIDTH 30 0
BBX 24 28 3 0
BITMAP
FFFC00
FFFC00
030000
030000
030000
030000
030000
030038
03007C
03007C
03007C
030038
030000
030000
030000
030000
030000
030003
030003
030003
030003
030003
030003
030003
030003
030003
FFFFFF
FFFFFF
ENDCHAR
STARTCHAR 0140
ENCODING 320
SWIDTH 600 0
DWIDTH 30 0
BBX 22 30 3 0
BITMAP
3FE000
3FE000
006000
006000
006000
006000
006000
006000
006000
006038
00607C
00607C
00607C
006038
006000
006000
006000
006000
006000
006000
006000
006000
006000
006000
006000
006000
006000
006000
FFFFF0
FFFFF0
ENDCHAR
STARTCHAR 0141
ENCODING 321
SWIDTH 600 0
DWIDTH 30 0
BBX 25 28 2 0
BITMAP
7FFE0000
7FFE0000
01800000
01800000
01800000
01800000
01800000
01800000
01800000
01838000
018F0000
019C0000
01F80000
01E00000
07C00000
1F800000
3D800000
F1800180
C1800180
01800180
01800180
01800180
01800180
01800180
01800180
01800180
7FFFFF80
7FFFFF80
ENDCHAR
STARTCHAR 0142
ENCODING 322
SWIDTH 600 0
DWIDTH 30 0
BBX 20 30 5 0
BITMAP
3FE000
3FE000
006000
006000
006000
006000
006000
006000
006000
006000
006180
006780
006F00
007C00
00F000
03E000
0F6000
1E6000
186000
006000
006000
006000
006000
006000
006000
006000
006000
006000
FFFFF0
FFFFF0
ENDCHAR
STARTCHAR 0143
ENCODING 323
SWIDTH 600 0
DWIDTH 30 0
BBX 27 38 1 0
BITMAP
0001C000
00038000
00070000
000E0000
001C0000
00380000
00300000
00000000
00000000
00000000
FE007FE0
FF007FE0
0F000300
0F800300
0D800300
0CC00300
0CE00300
0C600300
0C700300
0C300300
0C180300
0C1C0300
0C0C0300
0C060300
0C070300
0C030300
0C038300
0C018300
0C00C300
0C00E300
0C006300
0C007300
0C003300
0C001B00
0C001F00
0C000F00
7FE00700
7FE00700
ENDCHAR
STARTCHAR 0144
ENCODING 324
SWIDTH 600 0
DWIDTH 30 0
BBX 25 32 2 1
BITMAP
00007000
0000E000
0001C000
00038000
000F0000
001C0000
00080000
00000000
00000000
00000000
00000000
7C3FC000
7CFFF000
0DC03800
0F001800
0E001C00
0E000C00
0C000C00
0C000C00
0C000C00
0C000C00
0C000C00
0C000C00
0C000C00
0C000C00
0C000C00
0C000C00
0C000C00
0C000C00
0C000C00
FF807F80
FF807F80
ENDCHAR
STARTCHAR 0145
ENCODING 325
SWIDTH 600 0
DWIDTH 30 0
BBX 27 38 1 -10
BITMAP
FE007FE0
FF007FE0
0F000300
0F800300
0D800300
0CC00300
0CE00300
0C600300
0C700300
0C300300
0C180300
0C1C0300
0C0C0300
0C060300
0C070300
0C030300
0C038300
0C018300
0C00C300
0C00E300
0C006300
0C007300
0C003300
0C001B00
0C001F00
0C000F00
7FE00700
7FE00700
00000000
00000000
00000000
000E0000
001C0000
001C0000
00180000
00380000
00300000
00200000
ENDCHAR
STARTCHAR 0146
ENCODING 326
SWIDTH 600 0
DWIDTH 30 0
BBX 25 31 2 -9
BITMAP
7C3FC000
7CFFF000
0DC03800
0F001800
0E001C00
0E000C00
0C000C00
0C000C00
0C000C00
0C000C00
0C000C00
0C000C00
0C000C00
0C000C00
0C000C00
0C000C00
0C000C00
0C000C00
0C000C00
FF807F80
FF807F80
00000000
00000000
00000000
001C0000
00380000
00380000
00300000
00700000
00600000
00400000
ENDCHAR
STARTCHAR 0147
ENCODING 327
SWIDTH 600 0
DWIDTH 30 0
BBX 27 38 1 0
BITMAP
01801800
01C03800
00E0F000
0079C000
001F8000
000F0000
00060000
00000000
00000000
00000000
FE007FE0
FF007FE0
0F000300
0F800300
0D800300
0CC00300
0CE00300
0C600300
0C700300
0C300300
0C180300
0C1C0300
0C0C0300
0C060300
0C070300
0C030300
0C038300
0C018300
0C00C300
0C00E300
0C006300
0C007300
0C003300
0C001B00
0C001F00
0C000F00
7FE00700
7FE00700
ENDCHAR
STARTCHAR 0148
ENCODING 328
SWIDTH 600 0
DWIDTH 30 0
BBX 25 32 2 1
BITMAP
03003000
03C0F000
00E1E000
00738000
003F0000
001E0000
00040000
00000000
00000000
00000000
00000000
7C3FC000
7CFFF000
0DC03800
0F001800
0E001C00
0E000C00
0C000C00
0C000C00
0C000C00
0C000C00
0C000C00
0C000C00
0C000C00
0C000C00
0C000C00
0C000C00
0C000C00
0C000C00
0C000C00
FF807F80
FF807F80
ENDCHAR
STARTCHAR 0149
ENCODING 329
SWIDTH 600 0
DWIDTH 30 0
BBX 26 34 1 0
BITMAP
3C000000
38000000
78000000
70000000
70000000
60000000
E0000000
C0000000
80000000
00000000
00000000
00000000
00000000
3E1FE000
3E7FF800
06E01C00
07800C00
07000E00
07000600
06000600
06000600
06000600
06000600
06000600
06000600
06000600
06000600
06000600
06000600
06000600
06000600
06000600
7FC03FC0
7FC03FC0
ENDCHAR
STARTCHAR 014A
ENCODING 330
SWIDTH 600 0
DWIDTH 30 0
BBX 24 28 2 1
BITMAP
7C3FE0
7CFFF0
0DE038
0F801C
0F000C
0E000E
0C0006
0C0006
0C0003
0C0003
0C0003
0C0003
0C0003
0C0003
0C0003
0C0003
0C0003
0C0003
0C0003
0C0003
0C0006
0C0006
0C0006
0C0006
0C000C
0C001C
FF87F8
FF87F0
ENDCHAR
STARTCHAR 014B
ENCODING 331
SWIDTH 600 0
DWIDTH 30 0
BBX 22 31 2 -9
BITMAP
7C3FC0
7CFFF0
0DC038
0F0018
0E001C
0E000C
0C000C
0C000C
0C000C
0C000C
0C000C
0C000C
0C000C
0C000C
0C000C
0C000C
0C000C
0C000C
0C000C
FF800C
FF800C
00000C
00000C
00000C
00000C
00000C
000018
000038
001870
001FE0
000FC0
ENDCHAR
STARTCHAR 014C
ENCODING 332
SWIDTH 600 0
DWIDTH 30 0
BBX 24 34 3 -1
BITMAP
07FFE0
07FFE0
000000
000000
000000
00FF80
03FFC0
0700E0
0E0070
1C0038
38001C
30000C
70000E
600006
600006
C00003
C00003
C00003
C00003
C00003
C00003
C00003
C00003
E00007
600006
600006
70000E
30000C
180018
1C0038
0E0070
0781E0
01FF80
007E00
ENDCHAR
STARTCHAR 014D
ENCODING 333
SWIDTH 600 0
DWIDTH 30 0
BBX 22 27 4 -1
BITMAP
0FFFC0
0FFFC0
000000
000000
000000
03FF00
07FF80
0E01E0
180060
300030
700038
600018
E0001C
C0000C
C0000C
C0000C
C0000C
C0000C
C0000C
600018
600018
700038
380070
1C00E0
0F03C0
07FF80
00FC00
ENDCHAR
STARTCHAR 014E
ENCODING 334
SWIDTH 600 0
DWIDTH 30 0
BBX 24 38 3 -1
BITMAP
060060
060060
0700E0
03C3C0
01FF80
003C00
000000
000000
000000
00FF80
03FFC0
0700E0
0E0070
1C0038
38001C
30000C
70000E
600006
600006
C00003
C00003
C00003
C00003
C00003
C00003
C00003
C00003
E00007
600006
600006
70000E
30000C
180018
1C0038
0E0070
0781E0
01FF80
007E00
ENDCHAR
STARTCHAR 014F
ENCODING 335
SWIDTH 600 0
DWIDTH 30 0
BBX 22 32 4 -1
BITMAP
0C00C0
0C00C0
0E01C0
078780
03FF00
00FC00
000000
000000
000000
000000
03FF00
07FF80
0E01E0
180060
300030
700038
600018
E0001C
C0000C
C0000C
C0000C
C0000C
C0000C
C0000C
600018
600018
700038
380070
1C00E0
0F03C0
07FF80
00FC00
ENDCHAR
STARTCHAR 0150
ENCODING 336
SWIDTH 600 0
DWIDTH 30 0
BBX 24 39 3 -1
BITMAP
000204
000E1C
001C38
003870
0070E0
00E1C0
00C180
000000
000000
000000
00FF80
03FFC0
0700E0
0E0070
1C0038
38001C
30000C
70000E
600006
600006
C00003
C00003
C00003
C00003
C00003
C00003
C00003
C00003
E00007
600006
600006
70000E
30000C
180018
1C0038
0E0070
0781E0
01FF80
007E00
ENDCHAR
STARTCHAR 0151
ENCODING 337
SWIDTH 600 0
DWIDTH 30 0
BBX 22 33 4 -1
BITMAP
000C18
001C38
003870
0070E0
00E1C0
01C380
018300
000000
000000
000000
000000
03FF00
07FF80
0E01E0
180060
300030
700038
600018
E0001C
C0000C
C0000C
C0000C
C0000C
C0000C
C0000C
600018
600018
700038
380070
1C00E0
0F03C0
07FF80
00FC00
ENDCHAR
STARTCHAR 0152
ENCODING 338
SWIDTH 600 0
DWIDTH 30 0
BBX 28 28 1 0
BITMAP
00FFFFE0
03FFFFE0
07830060
1E030060
18030060
30030060
70030060
60030060
60030060
E0030000
C0030C00
C0030C00
C003FC00
C003FC00
C0030C00
C0030C00
C0030000
C0030000
60030000
60030000
70030000
30030030
38030030
1C030030
0E030030
07830030
03FFFFF0
007FFFF0
ENDCHAR
STARTCHAR 0153
ENCODING 339
SWIDTH 600 0
DWIDTH 30 0
BBX 28 22 1 0
BITMAP
0FC07E00
1FF0FF00
3839C180
301980C0
701F0040
600F0040
E00F0060
C0060020
C0060020
C007FFE0
C007FFE0
C0060000
C0060000
C0060000
E00F0000
600F0000
600F8000
30198030
3839C070
1C70F1E0
0FE07F80
07C01F00
ENDCHAR
STARTCHAR 0154
ENCODING 340
SWIDTH 600 0
DWIDTH 30 0
BBX 27 38 2 0
BITMAP
000C0000
001C0000
00380000
00700000
00E00000
03C00000
03000000
00000000
00000000
00000000
FFFF8000
FFFFE000
0C007800
0C001C00
0C000C00
0C000E00
0C000600
0C000600
0C000600
0C000E00
0C000C00
0C003800
0C00F000
0FFFE000
0FFF0000
0C038000
0C01C000
0C00E000
0C007000
0C003800
0C001800
0C001C00
0C000C00
0C000E00
0C000600
0C000300
FFE003E0
FFE001E0
ENDCHAR
STARTCHAR 0155
ENCODING 341
SWIDTH 600 0
DWIDTH 30 0
BBX 23 32 4 1
BITMAP
0000C0
0001C0
000780
000E00
001C00
003800
003000
000000
000000
000000
000000
7F03F8
7F0FFC
031C0E
033804
037000
03E000
038000
030000
030000
030000
030000
030000
030000
030000
030000
030000
030000
030000
030000
FFFFC0
FFFFC0
ENDCHAR
STARTCHAR 0156
ENCODING 342
SWIDTH 600 0
DWIDTH 30 0
BBX 27 38 2 -10
BITMAP
FFFF8000
FFFFE000
0C007800
0C001C00
0C000C00
0C000E00
0C000600
0C000600
0C000600
0C000E00
0C000C00
0C003800
0C00F000
0FFFE000
0FFF0000
0C038000
0C01C000
0C00E000
0C007000
0C003800
0C001800
0C001C00
0C000C00
0C000E00
0C000600
0C000300
FFE003E0
FFE001E0
00000000
00000000
00000000
001C0000
00380000
00380000
00300000
00700000
00600000
00400000
ENDCHAR
STARTCHAR 0157
ENCODING 343
SWIDTH 600 0
DWIDTH 30 0
BBX 23 31 4 -9
BITMAP
7F03F8
7F0FFC
031C0E
033804
037000
03E000
038000
030000
030000
030000
030000
030000
030000
030000
030000
030000
030000
030000
030000
FFFFC0
FFFFC0
000000
000000
000000
007000
00E000
00E000
00C000
01C000
018000
010000
ENDCHAR
STARTCHAR 0158
ENCODING 344
SWIDTH 600 0
DWIDTH 30 0
BBX 27 38 2 0
BITMAP
03003000
03807000
01E0E000
0071C000
003F8000
001F0000
000C0000
00000000
00000000
00000000
FFFF8000
FFFFE000
0C007800
0C001C00
0C000C00
0C000E00
0C000600
0C000600
0C000600
0C000E00
0C000C00
0C003800
0C00F000
0FFFE000
0FFF0000
0C038000
0C01C000
0C00E000
0C007000
0C003800
0C001800
0C001C00
0C000C00
0C000E00
0C000600
0C000300
FFE003E0
FFE001E0
ENDCHAR
STARTCHAR 0159
ENCODING 345
SWIDTH 600 0
DWIDTH 30 0
BBX 23 32 4 1
BITMAP
0600E0
0701E0
03C380
00E700
007E00
003C00
001000
000000
000000
000000
000000
7F03F8
7F0FFC
031C0E
033804
037000
03E000
038000
030000
030000
030000
030000
030000
030000
030000
030000
030000
030000
030000
030000
FFFFC0
FFFFC0
ENDCHAR
STARTCHAR 015A
ENCODING 346
SWIDTH 600 0
DWIDTH 30 0
BBX 20 39 5 -1
BITMAP
000380
000700
000E00
001C00
003800
007000
006000
000000
000000
000000
07FC60
0FFF60
1C03E0
3801E0
7000E0
600060
600060
600060
600000
700000
300000
3C0000
1F8000
03F800
007F00
0003C0
0000E0
000060
000030
000030
C00030
C00030
C00030
E00070
F000E0
F801C0
DE0780
CFFF00
01FC00
ENDCHAR
STARTCHAR 015B
ENCODING 347
SWIDTH 600 0
DWIDTH 30 0
BBX 20 34 5 -1
BITMAP
000100
000300
000700
000E00
003C00
007000
00E000
00C000
000000
000000
000000
000000
07FE60
1FFFE0
3801E0
7000E0
600060
600060
600000
380000
1F0000
07FC00
007F80
0003C0
0000E0
000070
400030
C00030
C00030
E00070
F000E0
FC07C0
CFFF80
03FC00
ENDCHAR
STARTCHAR 015C
ENCODING 348
SWIDTH 600 0
DWIDTH 30 0
BBX 20 39 5 -1
BITMAP
002000
00F000
01F800
039E00
070700
0E0380
180180
000000
000000
000000
07FC60
0FFF60
1C03E0
3801E0
7000E0
600060
600060
600060
600000
700000
300000
3C0000
1F8000
03F800
007F00
0003C0
0000E0
000060
000030
000030
C00030
C00030
C00030
E00070
F000E0
F801C0
DE0780
CFFF00
01FC00
ENDCHAR
STARTCHAR 015D
ENCODING 349
SWIDTH 600 0
DWIDTH 30 0
BBX 20 32 5 0
BITMAP
00F000
01F800
039C00
070E00
0E0700
1C0380
100080
000000
000000
000000
07FE60
1FFFE0
3801E0
7000E0
600060
600060
600000
380000
1F0000
07FC00
007F80
0003C0
0000E0
000070
400030
C00030
C00030
E00070
F000E0
FC07C0
CFFF80
03FC00
ENDCHAR
STARTCHAR 015E
ENCODING 350
SWIDTH 600 0
DWIDTH 30 0
BBX 20 37 5 -8
BITMAP
03FC60
0FFF60
1C03E0
3801E0
7000E0
600060
600060
600060
600000
700000
380000
1E0000
0FE000
01FE00
001F80
0001C0
0000E0
000060
000030
000030
C00030
C00030
C00030
E00070
F000E0
F801C0
DE07C0
CFFF00
01FC00
006000
007000
007800
000C00
000C00
031C00
03F800
00F000
ENDCHAR
STARTCHAR 015F
ENCODING 351
SWIDTH 600 0
DWIDTH 30 0
BBX 20 30 5 -8
BITMAP
07FE60
1FFFE0
3801E0
7000E0
600060
600060
600000
380000
1F8000
07FE00
007F80
0003C0
0000E0
000070
400030
C00030
C00030
E00070
F000E0
FE03C0
CFFF80
03FE00
006000
007000
007C00
000C00
000C00
031C00
03F800
00F000
ENDCHAR
STARTCHAR 0160
ENCODING 352
SWIDTH 600 0
DWIDTH 30 0
BBX 20 39 5 -1
BITMAP
0800C0
0E01C0
070780
038F00
01DC00
00F800
007000
000000
000000
000000
07FC60
0FFF60
1C03E0
3801E0
7000E0
600060
600060
600060
600000
700000
300000
3C0000
1F8000
03F800
007F00
0003C0
0000E0
000060
000030
000030
C00030
C00030
C00030
E00070
F000E0
F801C0
DE0780
CFFF00
01FC00
ENDCHAR
STARTCHAR 0161
ENCODING 353
SWIDTH 600 0
DWIDTH 30 0
BBX 20 33 5 -1
BITMAP
1C01C0
0E0380
070700
03CE00
00FC00
007000
002000
000000
000000
000000
000000
07FE60
1FFFE0
3801E0
7000E0
600060
600060
600000
380000
1F0000
07FC00
007F80
0003C0
0000E0
000070
400030
C00030
C00030
E00070
F000E0
FC07C0
CFFF80
03FC00
ENDCHAR
STARTCHAR 0162
ENCODING 354
SWIDTH 600 0
DWIDTH 30 0
BBX 22 37 4 -9
BITMAP
FFFFFC
FFFFFC
C0300C
C0300C
C0300C
C0300C
C0300C
003000
003000
003000
003000
003000
003000
003000
003000
003000
003000
003000
003000
003000
003000
003000
003000
003000
003000
003000
0FFFC0
0FFFC0
003000
003000
003800
003C00
000600
000600
018E00
01FC00
007800
ENDCHAR
STARTCHAR 0163
ENCODING 355
SWIDTH 600 0
DWIDTH 30 0
BBX 23 38 2 -10
BITMAP
060000
060000
060000
060000
060000
060000
060000
FFFFE0
FFFFE0
060000
060000
060000
060000
060000
060000
060000
060000
060000
060000
060000
060000
060000
060000
060000
060000
03000E
03C0FC
01FFF0
007F80
001800
001800
001C00
001F00
000300
000300
00E700
00FE00
003C00
ENDCHAR
STARTCHAR 0164
ENCODING 356
SWIDTH 600 0
DWIDTH 30 0
BBX 22 38 4 0
BITMAP
0C00C0
0E01C0
078380
01C700
00FE00
007C00
003000
000000
000000
000000
FFFFFC
FFFFFC
C0300C
C0300C
C0300C
C0300C
C0300C
003000
003000
003000
003000
003000
003000
003000
003000
003000
003000
003000
003000
003000
003000
003000
003000
003000
003000
003000
0FFFC0
0FFFC0
ENDCHAR
STARTCHAR 0165
ENCODING 357
SWIDTH 600 0
DWIDTH 30 0
BBX 24 32 2 -1
BITMAP
00000F
00000E
00000E
06001C
06001C
060018
060038
060030
060000
060000
FFFFE0
FFFFE0
060000
060000
060000
060000
060000
060000
060000
060000
060000
060000
060000
060000
060000
060000
060000
060000
03000E
03C0FC
01FFF0
007F80
ENDCHAR
STARTCHAR 0166
ENCODING 358
SWIDTH 600 0
DWIDTH 30 0
BBX 22 28 4 0
BITMAP
FFFFFC
FFFFFC
C0300C
C0300C
C0300C
C0300C
C0300C
003000
003000
003000
003000
0FFFC0
0FFFC0
003000
003000
003000
003000
003000
003000
003000
003000
003000
003000
003000
003000
003000
0FFFC0
0FFFC0
ENDCHAR
STARTCHAR 0167
ENCODING 359
SWIDTH 600 0
DWIDTH 30 0
BBX 23 29 2 -1
BITMAP
060000
060000
060000
060000
060000
060000
060000
FFFFE0
FFFFE0
060000
060000
060000
060000
060000
FFFFE0
FFFFE0
060000
060000
060000
060000
060000
060000
060000
060000
060000
03000E
03C0FC
01FFF0
007F80
ENDCHAR
STARTCHAR 0168
ENCODING 360
SWIDTH 600 0
DWIDTH 30 0
BBX 26 36 2 -1
BITMAP
00F01000
03FC7000
071FE000
0603C000
00000000
00000000
00000000
FFC0FFC0
FFC0FFC0
18000600
18000600
18000600
18000600
18000600
18000600
18000600
18000600
18000600
18000600
18000600
18000600
18000600
18000600
18000600
18000600
18000600
18000600
18000600
18000600
0C000C00
0C000C00
06001800
07003800
03C0F000
00FFC000
003F0000
ENDCHAR
STARTCHAR 0169
ENCODING 361
SWIDTH 600 0
DWIDTH 30 0
BBX 25 30 2 -1
BITMAP
01C02000
07F0E000
0E7FC000
0C0F8000
00000000
00000000
00000000
00000000
FC01FC00
FC01FC00
0C000C00
0C000C00
0C000C00
0C000C00
0C000C00
0C000C00
0C000C00
0C000C00
0C000C00
0C000C00
0C000C00
0C000C00
0C000C00
0C000C00
0C001C00
0E003C00
0600EC00
0783CF80
03FF0F80
00FC0000
ENDCHAR
STARTCHAR 016A
ENCODING 362
SWIDTH 600 0
DWIDTH 30 0
BBX 26 34 2 -1
BITMAP
03FFF000
03FFF000
00000000
00000000
00000000
FFC0FFC0
FFC0FFC0
18000600
18000600
18000600
18000600
18000600
18000600
18000600
18000600
18000600
18000600
18000600
18000600
18000600
18000600
18000600
18000600
18000600
18000600
18000600
18000600
0C000C00
0C000C00
06001800
07003800
03C0F000
00FFC000
003F0000
ENDCHAR
STARTCHAR 016B
ENCODING 363
SWIDTH 600 0
DWIDTH 30 0
BBX 25 27 2 -1
BITMAP
07FFE000
07FFE000
00000000
00000000
00000000
FC01FC00
FC01FC00
0C000C00
0C000C00
0C000C00
0C000C00
0C000C00
0C000C00
0C000C00
0C000C00
0C000C00
0C000C00
0C000C00
0C000C00
0C000C00
0C000C00
0C001C00
0E003C00
0600EC00
0783CF80
03FF0F80
00FC0000
ENDCHAR
STARTCHAR 016C
ENCODING 364
SWIDTH 600 0
DWIDTH 30 0
BBX 26 38 2 -1
BITMAP
03003000
03003000
03807000
01E1E000
00FFC000
001E0000
00000000
00000000
00000000
FFC0FFC0
FFC0FFC0
18000600
18000600
18000600
18000600
18000600
18000600
18000600
18000600
18000600
18000600
18000600
18000600
18000600
18000600
18000600
18000600
18000600
18000600
18000600
18000600
0C000C00
0C000C00
06001800
07003800
03C0F000
00FFC000
003F0000
ENDCHAR
STARTCHAR 016D
ENCODING 365
SWIDTH 600 0
DWIDTH 30 0
BBX 25 32 2 -1
BITMAP
06006000
06006000
0700C000
0383C000
01FF8000
007E0000
00000000
00000000
00000000
00000000
FC01FC00
FC01FC00
0C000C00
0C000C00
0C000C00
0C000C00
0C000C00
0C000C00
0C000C00
0C000C00
0C000C00
0C000C00
0C000C00
0C000C00
0C000C00
0C000C00
0C001C00
0E003C00
0600EC00
0783CF80
03FF0F80
00FC0000
ENDCHAR
STARTCHAR 016E
ENCODING 366
SWIDTH 600 0
DWIDTH 30 0
BBX 26 40 2 -1
BITMAP
000C0000
003F0000
00618000
00C08000
00C0C000
00C0C000
00E18000
007F0000
001E0000
00000000
00000000
FFC0FFC0
FFC0FFC0
18000600
18000600
18000600
18000600
18000600
18000600
18000600
18000600
18000600
18000600
18000600
18000600
18000600
18000600
18000600
18000600
18000600
18000600
18000600
18000600
0C000C00
0C000C00
06001800
07003800
03C0F000
00FFC000
003F0000
ENDCHAR
STARTCHAR 016F
ENCODING 367
SWIDTH 600 0
DWIDTH 30 0
BBX 25 34 2 -1
BITMAP
007C0000
00EE0000
01830000
01810000
01010000
01830000
00C70000
007E0000
00000000
00000000
00000000
00000000
FC01FC00
FC01FC00
0C000C00
0C000C00
0C000C00
0C000C00
0C000C00
0C000C00
0C000C00
0C000C00
0C000C00
0C000C00
0C000C00
0C000C00
0C000C00
0C000C00
0C001C00
0E003C00
0600EC00
0783CF80
03FF0F80
00FC0000
ENDCHAR
STARTCHAR 0170
ENCODING 368
SWIDTH 600 0
DWIDTH 30 0
BBX 26 39 2 -1
BITMAP
00030600
00070E00
000E1C00
001C3800
00387000
0070E000
0060C000
00000000
00000000
00000000
FFC0FFC0
FFC0FFC0
18000600
18000600
18000600
18000600
18000600
18000600
18000600
18000600
18000600
18000600
18000600
18000600
18000600
18000600
18000600
18000600
18000600
18000600
18000600
18000600
0C000C00
0C000C00
06001800
07003800
03C0F000
00FFC000
003F0000
ENDCHAR
STARTCHAR 0171
ENCODING 369
SWIDTH 600 0
DWIDTH 30 0
BBX 25 33 2 -1
BITMAP
00060C00
000E1C00
001C3800
00387000
0070E000
00E1C000
00818000
00000000
00000000
00000000
00000000
FC01FC00
FC01FC00
0C000C00
0C000C00
0C000C00
0C000C00
0C000C00
0C000C00
0C000C00
0C000C00
0C000C00
0C000C00
0C000C00
0C000C00
0C000C00
0C000C00
0C001C00
0E003C00
0600EC00
0783CF80
03FF0F80
00FC0000
ENDCHAR
STARTCHAR 0172
ENCODING 370
SWIDTH 600 0
DWIDTH 30 0
BBX 26 36 2 -8
BITMAP
FFC0FFC0
FFC0FFC0
18000600
18000600
18000600
18000600
18000600
18000600
18000600
18000600
18000600
18000600
18000600
18000600
18000600
18000600
18000600
18000600
18000600
18000600
18000600
18000600
0C000C00
0C000C00
06001800
07003800
03C0F000
00FFE000
003FC000
00018000
00030000
00060000
00060000
00060000
0007F000
0003E000
ENDCHAR
STARTCHAR 0173
ENCODING 371
SWIDTH 600 0
DWIDTH 30 0
BBX 25 29 2 -8
BITMAP
FC01FC00
FC01FC00
0C000C00
0C000C00
0C000C00
0C000C00
0C000C00
0C000C00
0C000C00
0C000C00
0C000C00
0C000C00
0C000C00
0C000C00
0C000C00
0C000C00
0C001C00
0E003C00
0600EC00
0783CF80
03FF0F80
00FC0700
00000C00
00001800
00003000
00003000
00003000
00003F80
00001F00
ENDCHAR
STARTCHAR 0174
ENCODING 372
SWIDTH 600 0
DWIDTH 30 0
BBX 28 38 1 0
BITMAP
00020000
000F0000
001F8000
0039E000
00707000
00E03800
01C01800
00000000
00000000
00000000
FFC03FF0
FFC03FF0
300000C0
300000C0
300000C0
38000080
180F0180
180F0180
180F0180
180F8180
18198180
18198180
18198180
1C30C180
0C30C300
0C30C300
0C30E300
0C606300
0C606300
0C606300
0CC07300
0CC03300
06C03200
06C03600
07801E00
07801E00
07801E00
07001E00
ENDCHAR
STARTCHAR 0175
ENCODING 373
SWIDTH 600 0
DWIDTH 30 0
BBX 26 32 2 1
BITMAP
000C0000
001F0000
003B8000
00F1C000
01C0E000
03807000
03001000
00000000
00000000
00000000
00000000
FF003FC0
FF003FC0
30000300
30000300
30000300
180C0600
181E0600
181E0600
181E0600
18330400
0C330C00
0C330C00
0C618C00
0C618C00
06619800
06C0D800
06C0D800
06C0D800
07807800
03807000
03807000
ENDCHAR
STARTCHAR 0176
ENCODING 374
SWIDTH 600 0
DWIDTH 30 0
BBX 24 38 3 0
BITMAP
001800
003C00
007E00
00E780
01C1C0
0780E0
060060
000000
000000
000000
FF00FF
FF00FF
38001C
180018
0C0030
0E0070
070060
0300C0
0381C0
01C180
00C300
00E700
007600
003C00
003C00
001800
001800
001800
001800
001800
001800
001800
001800
001800
001800
001800
07FFE0
07FFE0
ENDCHAR
STARTCHAR 0177
ENCODING 375
SWIDTH 600 0
DWIDTH 30 0
BBX 24 41 3 -8
BITMAP
001800
003E00
007700
01E380
0381C0
0700E0
060020
000000
000000
000000
000000
FF00FF
FF00FF
30000C
38000C
180018
1C0018
0C0030
0E0030
060060
070060
0300C0
0380C0
018180
01C180
00C300
00E300
006600
007600
003C00
003C00
001800
001800
003000
003000
006000
006000
00C000
00C000
FFFC00
FFFC00
ENDCHAR
STARTCHAR 0178
ENCODING 376
SWIDTH 600 0
DWIDTH 30 0
BBX 24 37 3 0
BITMAP
020040
0F01E0
0F81F0
0F81F0
0700E0
000000
000000
000000
000000
FF00FF
FF00FF
38001C
180018
0C0030
0E0070
070060
0300C0
0381C0
01C180
00C300
00E700
007600
003C00
003C00
001800
001800
001800
001800
001800
001800
001800
001800
001800
001800
001800
07FFE0
07FFE0
ENDCHAR
STARTCHAR 0179
ENCODING 377
SWIDTH 600 0
DWIDTH 30 0
BBX 19 39 6 0
BITMAP
000800
001800
003800
00F000
01C000
038000
070000
060000
000000
000000
000000
FFFF80
FFFF80
C00080
C00180
C00300
C00600
C00600
C00C00
C01800
001000
003000
006000
004000
00C000
018000
010000
030000
060000
040060
080060
180060
300060
200060
600060
C00060
800060
FFFFE0
FFFFE0
ENDCHAR
STARTCHAR 017A
ENCODING 378
SWIDTH 600 0
DWIDTH 30 0
BBX 18 32 6 1
BITMAP
001800
003800
007000
01E000
038000
070000
060000
000000
000000
000000
000000
FFFF80
FFFF80
C00300
C00700
C00E00
C00C00
001800
003000
006000
00C000
01C000
038000
030000
060000
0C0000
1800C0
3000C0
7000C0
6000C0
FFFFC0
FFFFC0
ENDCHAR
STARTCHAR 017B
ENCODING 379
SWIDTH 600 0
DWIDTH 30 0
BBX 19 36 6 0
BITMAP
01E000
01F000
01F000
01E000
004000
000000
000000
000000
FFFF80
FFFF80
C00080
C00180
C00300
C00600
C00600
C00C00
C01800
001000
003000
006000
004000
00C000
018000
010000
030000
060000
040060
080060
180060
300060
200060
600060
C00060
800060
FFFFE0
FFFFE0
ENDCHAR
STARTCHAR 017C
ENCODING 380
SWIDTH 600 0
DWIDTH 30 0
BBX 18 31 6 0
BITMAP
00C000
01F000
01F000
01F000
00E000
000000
000000
000000
000000
000000
FFFF80
FFFF80
C00300
C00700
C00E00
C00C00
001800
003000
006000
00C000
01C000
038000
030000
060000
0C0000
1800C0
3000C0
7000C0
6000C0
FFFFC0
FFFFC0
ENDCHAR
STARTCHAR 017D
ENCODING 381
SWIDTH 600 0
DWIDTH 30 0
BBX 19 38 6 0
BITMAP
300300
380700
1C0E00
073C00
03F000
01E000
00C000
000000
000000
000000
FFFF80
FFFF80
C00080
C00180
C00300
C00600
C00600
C00C00
C01800
001000
003000
006000
004000
00C000
018000
010000
030000
060000
040060
080060
180060
300060
200060
600060
C00060
800060
FFFFE0
FFFFE0
ENDCHAR
STARTCHAR 017E
ENCODING 382
SWIDTH 600 0
DWIDTH 30 0
BBX 18 32 6 1
BITMAP
380300
1C0700
0E1E00
073800
03F000
01E000
004000
000000
000000
000000
000000
FFFF80
FFFF80
C00300
C00700
C00E00
C00C00
001800
003000
006000
00C000
01C000
038000
030000
060000
0C0000
1800C0
3000C0
7000C0
6000C0
FFFFC0
FFFFC0
ENDCHAR
STARTCHAR 017F
ENCODING 383
SWIDTH 600 0
DWIDTH 30 0
BBX 21 30 6 0
BITMAP
003FF0
00FFF8
01E000
018000
030000
030000
030000
030000
030000
7F0000
7F0000
030000
030000
030000
030000
030000
030000
030000
030000
030000
030000
030000
030000
030000
030000
030000
030000
030000
FFFFC0
FFFFC0
ENDCHAR
STARTCHAR 0180
ENCODING 384
SWIDTH 600 0
DWIDTH 30 0
BBX 26 31 1 -1
BITMAP
FC000000
FC000000
0C000000
0C000000
FFFC0000
FFFC0000
0C000000
0C000000
0C000000
0C1FF000
0C7FF800
0CE01E00
0D800700
0F000300
0F000380
0E000180
0E0001C0
0C0000C0
0C0000C0
0C0000C0
0C0000C0
0C0000C0
0C0000C0
0E000180
0E000180
0F000300
0D800700
0DC00E00
FCF03C00
FC3FF800
000FC000
ENDCHAR
STARTCHAR 0181
ENCODING 385
SWIDTH 600 0
DWIDTH 30 0
BBX 28 28 -1 0
BITMAP
1FFFF800
7FFFFE00
E1800F00
C1800380
C18001C0
C18000C0
E18000C0
798000C0
398000C0
01800180
01800380
01800F00
01FFFC00
01FFFF00
01800780
018001C0
018000E0
01800070
01800030
01800030
01800030
01800030
01800070
01800060
018000E0
018003C0
1FFFFF80
1FFFFE00
ENDCHAR
STARTCHAR 0182
ENCODING 386
SWIDTH 600 0
DWIDTH 30 0
BBX 25 28 2 0
BITMAP
FFFFFF00
FFFFFF00
0C000300
0C000300
0C000300
0C000300
0C000300
0C000300
0C000000
0C000000
0C000000
0C000000
0FFFC000
0FFFF800
0C003C00
0C000E00
0C000300
0C000380
0C000180
0C000180
0C000180
0C000180
0C000380
0C000300
0C000700
0C001E00
FFFFFC00
FFFFF000
ENDCHAR
STARTCHAR 0183
ENCODING 387
SWIDTH 600 0
DWIDTH 30 0
BBX 26 31 1 -1
BITMAP
FFFFFE00
FFFFFE00
0C000000
0C000000
0C000000
0C000000
0C000000
0C000000
0C000000
0C1FF000
0C7FF800
0CE01E00
0D800700
0F000300
0F000380
0E000180
0E0001C0
0C0000C0
0C0000C0
0C0000C0
0C0000C0
0C0000C0
0C0000C0
0E000180
0E000180
0F000300
0D800700
0DC00E00
FCF03C00
FC3FF800
000FC000
ENDCHAR
STARTCHAR 0184
ENCODING 388
SWIDTH 600 0
DWIDTH 30 0
BBX 24 29 3 0
BITMAP
0C6000
0CE000
0FC000
0F0000
1E0000
3C0000
FC0000
CC0000
0C0000
0C0000
0C0000
0C0000
0C0000
0FFFC0
0FFFF0
0C007C
0C001C
0C0006
0C0007
0C0003
0C0003
0C0003
0C0003
0C0007
0C0006
0C000E
0C003C
FFFFF8
FFFFE0
ENDCHAR
STARTCHAR 0185
ENCODING 389
SWIDTH 600 0
DWIDTH 30 0
BBX 26 30 1 -1
BITMAP
0C600000
0CE00000
0DC00000
0F800000
1E000000
3C000000
FC000000
EC000000
0C1FF000
0C7FF800
0CE01E00
0D800700
0F000300
0F000380
0E000180
0E0001C0
0C0000C0
0C0000C0
0C0000C0
0C0000C0
0C0000C0
0C0000C0
0E000180
0E000180
0F000300
0D800700
0DC00E00
FCF03C00
FC3FF800
000FC000
ENDCHAR
STARTCHAR 0186
ENCODING 390
SWIDTH 600 0
DWIDTH 30 0
BBX 24 29 3 0
BITMAP
61FF80
67FFE0
6E00F0
780038
700018
70000C
60000E
600006
000006
000003
000003
000003
000003
000003
000003
000003
000003
000003
000003
000007
000006
00000E
C0000C
E0001C
700038
3800F0
1F03C0
07FF80
00FC00
ENDCHAR
STARTCHAR 0187
ENCODING 391
SWIDTH 600 0
DWIDTH 30 0
BBX 30 33 3 -1
BITMAP
000001E0
000003F0
00000318
0000070C
01FF860C
07FFE60C
0F007600
1C001E00
18000E00
30000E00
70000600
60000600
60000000
C0000000
C0000000
C0000000
C0000000
C0000000
C0000000
C0000000
C0000000
C0000000
C0000000
E0000000
60000000
70000000
30000300
18000700
1C000E00
0F001C00
03C0F800
01FFE000
003F0000
ENDCHAR
STARTCHAR 0188
ENCODING 392
SWIDTH 600 0
DWIDTH 30 0
BBX 29 25 4 -1
BITMAP
000003E0
000007F0
00000E38
01FF8C18
07FFEC18
0E00FC00
18003C00
30001C00
70000C00
60000C00
E0000000
C0000000
C0000000
C0000000
C0000000
C0000000
C0000000
60000000
60000000
70000600
38000E00
1C003C00
0F80F800
07FFE000
00FF0000
ENDCHAR
STARTCHAR 0189
ENCODING 393
SWIDTH 600 0
DWIDTH 30 0
BBX 26 28 0 0
BITMAP
3FFFC000
3FFFF000
06007800
06001C00
06000600
06000700
06000380
06000180
06000180
060000C0
060000C0
060000C0
FFFF00C0
FFFF00C0
060000C0
060000C0
060000C0
060000C0
060000C0
06000180
06000180
06000380
06000700
06000E00
06001C00
06007800
3FFFF000
3FFFC000
ENDCHAR
STARTCHAR 018A
ENCODING 394
SWIDTH 600 0
DWIDTH 30 0
BBX 29 28 -3 0
BITMAP
1FFFF800
7FFFFE00
E0C00F00
C0C003C0
C0C000C0
C0C000E0
E0C00070
78C00030
18C00030
00C00038
00C00018
00C00018
00C00018
00C00018
00C00018
00C00018
00C00018
00C00018
00C00018
00C00030
00C00030
00C00070
00C000E0
00C000C0
00C003C0
00C00F80
07FFFE00
07FFF800
ENDCHAR
STARTCHAR 018B
ENCODING 395
SWIDTH 600 0
DWIDTH 30 0
BBX 25 28 3 0
BITMAP
3FFFFF80
3FFFFF80
30001800
30001800
30001800
30001800
30001800
30001800
00001800
00001800
00001800
00001800
01FFF800
0FFFF800
1E001800
38001800
60001800
60001800
C0001800
C0001800
C0001800
C0001800
E0001800
60001800
70001800
3C001800
1FFFFF80
07FFFF80
ENDCHAR
STARTCHAR 018C
ENCODING 396
SWIDTH 600 0
DWIDTH 30 0
BBX 26 31 1 -1
BITMAP
1FFFFFC0
1FFFFFC0
00000C00
00000C00
00000C00
00000C00
00000C00
00000C00
00000C00
03FE0C00
07FF8C00
1E01CC00
38006C00
30003C00
70003C00
60001C00
E0001C00
C0000C00
C0000C00
C0000C00
C0000C00
C0000C00
C0000C00
60001C00
60001C00
30003C00
38006C00
1C00EC00
0F03CFC0
07FF0FC0
00FC0000
ENDCHAR
STARTCHAR 018D
ENCODING 397
SWIDTH 600 0
DWIDTH 30 0
BBX 23 33 3 -10
BITMAP
00FE00
07FF80
0F01E0
1C0070
380038
30001C
60000C
60000E
600006
C00006
C00006
C00006
C00006
E00006
600006
60000E
70001C
380018
1C0070
0F00E0
07FFC0
01FF00
000FC0
0000E0
000070
000030
000030
600030
600030
7E0070
7FFFE0
60FFC0
600000
ENDCHAR
STARTCHAR 018E
ENCODING 398
SWIDTH 600 0
DWIDTH 30 0
BBX 24 28 2 0
BITMAP
7FFFFF
7FFFFF
600030
600030
600030
600030
600030
600030
000030
006030
006030
006030
007FF0
007FF0
006030
006030
006030
000030
000030
C00030
C00030
C00030
C00030
C00030
C00030
C00030
FFFFFF
FFFFFF
ENDCHAR
STARTCHAR 018F
ENCODING 399
SWIDTH 600 0
DWIDTH 30 0
BBX 24 29 3 0
BITMAP
01FF00
07FFC0
1E01E0
380070
700038
60001C
60000C
000006
000006
000007
000003
000003
000003
000003
FFFFFF
FFFFFF
C00003
C00003
C00003
C00003
600006
600006
30000C
38001C
1C0038
0E0070
0781E0
03FFC0
00FF00
ENDCHAR
STARTCHAR 0190
ENCODING 400
SWIDTH 600 0
DWIDTH 30 0
BBX 20 29 5 0
BITMAP
07FC60
0FFF60
1C03E0
3801E0
3000E0
600060
600060
600060
600000
600000
300000
380000
1E0000
07FC00
0FFC00
3C0000
700000
600000
E00000
C00000
C00030
C00030
C00030
E00070
7000F0
3801F0
1E07B0
0FFF30
03F800
ENDCHAR
STARTCHAR 0191
ENCODING 401
SWIDTH 600 0
DWIDTH 30 0
BBX 28 33 0 -5
BITMAP
0FFFFFF0
0FFFFFF0
00C00030
00C00030
00C00030
00C00030
00C00030
00C00030
00C00000
00C03000
00C03000
00C03000
00FFF000
00FFF000
00C03000
00C03000
00C03000
00C00000
00C00000
00C00000
00C00000
00C00000
00C00000
00C00000
00C00000
00C00000
00C00000
00C00000
01C00000
01800000
C3800000
FF000000
7C000000
ENDCHAR
STARTCHAR 0192
ENCODING 402
SWIDTH 600 0
DWIDTH 30 0
BBX 20 35 5 -4
BITMAP
000FF0
001FF0
003800
003000
007000
006000
006000
006000
006000
006000
006000
1FFF80
1FFF80
006000
006000
006000
006000
006000
006000
006000
006000
006000
006000
006000
006000
006000
006000
006000
006000
006000
00C000
01C000
C38000
FF0000
7E0000
ENDCHAR
STARTCHAR 0193
ENCODING 403
SWIDTH 600 0
DWIDTH 30 0
BBX 30 33 3 -1
BITMAP
000001E0
000003F0
00000318
0000070C
01FFC60C
03FFF60C
0F003E00
1C000E00
18000600
30000600
70000600
60000000
60000000
E0000000
C0000000
C0000000
C0000000
C0000000
C0000000
C0000000
C007FF80
C007FF80
C0000600
C0000600
60000600
60000600
70000600
38000600
1C000600
0E000600
07C03E00
01FFF800
007FC000
ENDCHAR
STARTCHAR 0194
ENCODING 404
SWIDTH 600 0
DWIDTH 30 0
BBX 24 29 3 -1
BITMAP
FF00FF
FF00FF
380018
180038
0C0030
0E0060
0600E0
0300C0
038180
01C380
00C300
006600
007E00
003C00
001800
003C00
007C00
006600
00E700
00C300
018180
018180
018180
018180
018180
01C380
00C300
007E00
003C00
ENDCHAR
STARTCHAR 0195
ENCODING 405
SWIDTH 600 0
DWIDTH 30 0
BBX 29 31 0 -1
BITMAP
FC000000
FC000000
0C000000
0C000000
0C000000
0C000000
0C000000
0C000000
0C000000
0CFE03F8
0DFF83F8
0F018018
0E00C018
0E00C018
0C00C018
0C00C018
0C00C018
0C00C018
0C00C018
0C00C018
0C00C018
0C00C018
0C00C018
0C00C018
0C00C018
0C00C018
0C00E038
0C006030
7F807870
7F803FE0
00000F80
ENDCHAR
STARTCHAR 0196
ENCODING 406
SWIDTH 600 0
DWIDTH 30 0
BBX 16 28 9 0
BITMAP
FC00
FC00
0C00
0C00
0C00
0C00
0C00
0C00
0C00
0C00
0C00
0C00
0C00
0C00
0C00
0C00
0C00
0C00
0C00
0C00
0C00
0C00
0C00
0C00
0C00
0607
07FE
03FC
ENDCHAR
STARTCHAR 0197
ENCODING 407
SWIDTH 600 0
DWIDTH 30 0
BBX 18 28 6 0
BITMAP
FFFFC0
FFFFC0
00C000
00C000
00C000
00C000
00C000
00C000
00C000
00C000
00C000
00C000
3FFF00
3FFF00
00C000
00C000
00C000
00C000
00C000
00C000
00C000
00C000
00C000
00C000
00C000
00C000
FFFFC0
FFFFC0
ENDCHAR
STARTCHAR 0198
ENCODING 408
SWIDTH 600 0
DWIDTH 30 0
BBX 29 28 2 0
BITMAP
FFE07FC0
FFE07FF0
0C000E38
0C001C18
0C007018
0C00E018
0C01C038
0C0381F0
0C0701C0
0C0C0000
0C380000
0C700000
0CFC0000
0DDE0000
0F878000
0F038000
0C01C000
0C00E000
0C006000
0C007000
0C003000
0C003800
0C001800
0C001C00
0C000C00
0C000C00
FFE00FE0
FFE007E0
ENDCHAR
STARTCHAR 0199
ENCODING 409
SWIDTH 600 0
DWIDTH 30 0
BBX 24 30 3 1
BITMAP
01FE00
03FE00
070000
060000
0E0000
0C0000
0C0000
0C0000
0C0000
0C0FF8
0C0FF8
0C0380
0C0700
0C0E00
0C1C00
0C7000
0CE000
0DC000
0FE000
0F7000
0E3800
0C1C00
0C0E00
0C0700
0C0380
0C01C0
0C00E0
0C0070
FC01FF
FC01FF
ENDCHAR
STARTCHAR 019A
ENCODING 410
SWIDTH 600 0
DWIDTH 30 0
BBX 20 30 5 0
BITMAP
3FE000
3FE000
006000
006000
006000
006000
006000
006000
006000
006000
006000
006000
006000
006000
1FFF80
1FFF80
006000
006000
006000
006000
006000
006000
006000
006000
006000
006000
006000
006000
FFFFF0
FFFFF0
ENDCHAR
STARTCHAR 019B
ENCODING 411
SWIDTH 600 0
DWIDTH 30 0
BBX 24 31 3 0
BITMAP
1E0000
3F8000
1FC700
00DE00
007C00
00F000
01F000
03B000
0F1800
0C1800
001C00
003C00
003E00
007600
006700
00E300
00C380
01C180
018180
0380C0
0300C0
070060
060060
0E0030
0C0030
0C0018
180018
18000C
30000C
FF00FF
FF00FF
ENDCHAR
STARTCHAR 019C
ENCODING 412
SWIDTH 600 0
DWIDTH 30 0
BBX 29 28 1 0
BITMAP
F83E07F8
F83E07F8
180600C0
180600C0
180600C0
180600C0
180600C0
180600C0
180600C0
180600C0
180600C0
180600C0
180600C0
180600C0
180600C0
180600C0
180600C0
180600C0
180600C0
180600C0
180600C0
180600C0
180600C0
180E01C0
181E03C0
1C3B07C0
0FF3FEF8
07E1FCF8
ENDCHAR
STARTCHAR 019D
ENCODING 413
SWIDTH 600 0
DWIDTH 30 0
BBX 30 33 0 -5
BITMAP
0FE00FFC
0FE00FFC
00F00060
00F80060
00D80060
00CC0060
00CC0060
00C60060
00C60060
00C30060
00C38060
00C18060
00C0C060
00C0C060
00C06060
00C07060
00C03060
00C03860
00C01860
00C00C60
00C00C60
00C00660
00C00760
00C00360
00C003E0
00C001E0
00C000E0
00C000E0
01C00000
01800000
C3800000
FF000000
7C000000
ENDCHAR
STARTCHAR 019E
ENCODING 414
SWIDTH 600 0
DWIDTH 30 0
BBX 25 30 2 -8
BITMAP
7C3FC000
7CFFF000
0DC03800
0F001800
0E001C00
0E000C00
0C000C00
0C000C00
0C000C00
0C000C00
0C000C00
0C000C00
0C000C00
0C000C00
0C000C00
0C000C00
0C000C00
0C000C00
0C000C00
FF800C00
FF800C00
00000C00
00000C00
00000C00
00000C00
00000C00
00000C00
00000C00
00007F80
00007F80
ENDCHAR
STARTCHAR 019F
ENCODING 415
SWIDTH 600 0
DWIDTH 30 0
BBX 24 29 3 0
BITMAP
01FF80
03FFC0
0700E0
0E0070
1C0038
38001C
30000C
60000E
600006
600006
C00003
C00003
C00003
FFFFFF
FFFFFF
C00003
C00003
C00003
E00007
600006
600006
70000E
30000C
180018
1C0038
0E0070
0781E0
01FF80
007E00
ENDCHAR
STARTCHAR 01A0
ENCODING 416
SWIDTH 600 0
DWIDTH 30 0
BBX 27 35 3 -1
BITMAP
00000700
000007C0
000001C0
00000060
00000060
00000060
00FF00E0
03FFC1E0
0700FFC0
0E007F00
1C003800
38001C00
30000C00
70000E00
60000600
60000600
C0000300
C0000300
C0000300
C0000300
C0000300
C0000300
C0000300
C0000300
E0000700
60000600
60000600
70000E00
30000C00
18001800
1C003800
0E007000
0781E000
01FF8000
007E0000
ENDCHAR
STARTCHAR 01A1
ENCODING 417
SWIDTH 600 0
DWIDTH 30 0
BBX 26 28 4 -1
BITMAP
00000E00
00000F80
00000380
000000C0
000000C0
000000C0
03FF01C0
07FFFF80
1E01FE00
38007000
30003000
60001800
60001800
C0001C00
C0000C00
C0000C00
C0000C00
C0000C00
C0000C00
C0000C00
60001800
60001800
30003800
38007000
1C00E000
0F03C000
07FF8000
00FC0000
ENDCHAR
STARTCHAR 01A2
ENCODING 418
SWIDTH 600 0
DWIDTH 30 0
BBX 29 33 0 -1
BITMAP
00003F00
0000FF80
0001E1C0
000180E0
03FF8060
07FF8060
0E01C060
1C00E060
38007060
30003060
70003860
60001860
60001860
E0001C60
C0000C60
C0000C60
C0000C60
C0000C60
C0000C60
C0000C60
C0000C60
C0000C60
C0000C60
60001860
60001860
60001860
30003060
38007060
18006060
1C00E060
0F03C1F8
03FF01F8
00FC0000
ENDCHAR
STARTCHAR 01A3
ENCODING 419
SWIDTH 600 0
DWIDTH 30 0
BBX 28 25 1 -1
BITMAP
00003C00
0001FE00
00038300
07FF0180
0FFE0180
1C0E0180
38070180
70038180
60018180
60018180
C000C180
C000C180
C000C180
C000C180
C000C180
C000C180
C000C180
E001C180
60018180
60038180
30030180
38070180
1E1E0FF0
0FFC0FF0
03F00000
ENDCHAR
STARTCHAR 01A4
ENCODING 420
SWIDTH 600 0
DWIDTH 30 0
BBX 26 28 -1 0
BITMAP
1FFFF000
7FFFFC00
E1801F00
C1800780
C1800180
C18001C0
E18000C0
798000C0
398000C0
018000C0
018001C0
01800380
01800700
01801E00
01FFFC00
01FFF000
01800000
01800000
01800000
01800000
01800000
01800000
01800000
01800000
01800000
01800000
1FFF8000
1FFF8000
ENDCHAR
STARTCHAR 01A5
ENCODING 421
SWIDTH 600 0
DWIDTH 30 0
BBX 26 39 1 -8
BITMAP
01FE0000
03FE0000
07000000
06000000
0E000000
0C000000
0C000000
0C000000
0C000000
0C3FF000
0C7FFC00
0CE01E00
0D800700
0F000380
0E000180
0E0001C0
0C0000C0
0C0000C0
0C0000C0
0C0000C0
0C0000C0
0E0000C0
0E000180
0F000380
0F800700
0DC00E00
0CF03C00
0C7FF800
0C0FE000
0C000000
0C000000
0C000000
0C000000
0C000000
0C000000
0C000000
0C000000
FFF00000
FFF00000
ENDCHAR
STARTCHAR 01A6
ENCODING 422
SWIDTH 600 0
DWIDTH 30 0
BBX 24 37 3 -9
BITMAP
FF8000
FF8000
180000
180000
180000
180000
180000
1FFE00
1FFF80
1801E0
180060
180030
180030
180030
180070
1800E0
1803C0
1FFF80
1FFC00
180E00
180700
180380
180180
1801C0
1800C0
1800C0
FF80E0
FF8060
000060
000060
000070
000030
000030
000038
000018
00001F
00000F
ENDCHAR
STARTCHAR 01A7
ENCODING 423
SWIDTH 600 0
DWIDTH 30 0
BBX 20 29 5 0
BITMAP
63FE00
6FFF00
7C0380
7801C0
7000E0
600060
600060
600060
000060
0000E0
0001C0
0007C0
007F00
03FC00
1FC000
3C0000
700000
600000
C00000
C00000
C00030
C00030
C00030
E00070
7000F0
3801F0
1E07B0
0FFF30
03F800
ENDCHAR
STARTCHAR 01A8
ENCODING 424
SWIDTH 600 0
DWIDTH 30 0
BBX 20 22 5 0
BITMAP
67FE00
7FFF80
7801C0
7000E0
600060
600060
000060
0001C0
001F80
03FE00
1FC000
3C0000
600000
E00000
C00000
C00030
C00030
E00070
7000F0
3E03F0
1FFF30
03FC00
ENDCHAR
STARTCHAR 01A9
ENCODING 425
SWIDTH 600 0
DWIDTH 30 0
BBX 19 29 5 0
BITMAP
FFFFE0
FFFFE0
FFFFE0
E00060
600060
300060
380060
180060
0C0060
060000
070000
030000
018000
00C000
01C000
018000
038000
070000
060000
0E0060
0C0060
180060
380060
300060
600060
E00060
C00060
FFFFE0
FFFFE0
ENDCHAR
STARTCHAR 01AA
ENCODING 426
SWIDTH 600 0
DWIDTH 30 0
BBX 21 36 4 -5
BITMAP
0C0000
3F8000
61C000
C0E000
C0E000
C0F000
E1B000
7F3000
1E3000
003000
003000
003000
003000
003000
003000
003000
003000
003000
003000
003000
003000
003000
003000
003000
003000
003000
003000
003000
003000
003000
003000
001800
001C00
000E18
0007F8
0003F0
ENDCHAR
STARTCHAR 01AB
ENCODING 427
SWIDTH 600 0
DWIDTH 30 0
BBX 23 38 2 -10
BITMAP
060000
060000
060000
060000
060000
060000
060000
FFFFE0
FFFFE0
060000
060000
060000
060000
060000
060000
060000
060000
060000
060000
060000
060000
060000
060000
060000
060000
030006
03C07E
01FFFE
007F86
000006
000006
000006
000006
00000E
00001C
000C38
000FF0
0007E0
ENDCHAR
STARTCHAR 01AC
ENCODING 428
SWIDTH 600 0
DWIDTH 30 0
BBX 25 28 1 0
BITMAP
1FFFFF80
7FFFFF80
E0060180
C0060180
C0060180
C0060180
E0060180
7C060000
3C060000
00060000
00060000
00060000
00060000
00060000
00060000
00060000
00060000
00060000
00060000
00060000
00060000
00060000
00060000
00060000
00060000
00060000
01FFF800
01FFF800
ENDCHAR
STARTCHAR 01AD
ENCODING 429
SWIDTH 600 0
DWIDTH 30 0
BBX 23 31 2 0
BITMAP
00FF00
01FF00
038000
030000
070000
060000
060000
060000
060000
FFFFE0
FFFFE0
060000
060000
060000
060000
060000
060000
060000
060000
060000
060000
060000
060000
060000
060000
060000
060000
03000E
03C0FC
01FFF0
007F80
ENDCHAR
STARTCHAR 01AE
ENCODING 430
SWIDTH 600 0
DWIDTH 30 0
BBX 22 38 4 -10
BITMAP
FFFFFC
FFFFFC
C0300C
C0300C
C0300C
C0300C
C0300C
003000
003000
003000
003000
003000
003000
003000
003000
003000
003000
003000
003000
003000
003000
003000
003000
003000
003000
003000
003000
003000
003000
003000
003000
003000
003000
001800
001C00
000E18
0007F8
0003F0
ENDCHAR
STARTCHAR 01AF
ENCODING 431
SWIDTH 600 0
DWIDTH 30 0
BBX 29 37 2 -1
BITMAP
000000E0
000000F0
00000030
00000018
00000018
00000018
00000018
00000038
FFC0FFF0
FFC0FFE0
18000600
18000600
18000600
18000600
18000600
18000600
18000600
18000600
18000600
18000600
18000600
18000600
18000600
18000600
18000600
18000600
18000600
18000600
18000600
18000600
0C000C00
0C000C00
06001800
07003800
03C0F000
00FFC000
003F0000
ENDCHAR
STARTCHAR 01B0
ENCODING 432
SWIDTH 600 0
DWIDTH 30 0
BBX 27 29 2 -1
BITMAP
00000700
000007C0
000000E0
00000060
00000060
00000060
000000E0
FC01FFC0
FC01FF00
0C000C00
0C000C00
0C000C00
0C000C00
0C000C00
0C000C00
0C000C00
0C000C00
0C000C00
0C000C00
0C000C00
0C000C00
0C000C00
0C000C00
0C001C00
0E003C00
0600EC00
0783CF80
03FF0F80
00FC0000
ENDCHAR
STARTCHAR 01B1
ENCODING 433
SWIDTH 600 0
DWIDTH 30 0
BBX 23 29 4 0
BITMAP
FFCFFE
FFCFFE
FFCFFE
C0CC06
C0CC06
C0CC06
C0CC06
C0CC06
C7CF86
0F83C0
1C00E0
380070
700038
600018
E0001C
C0000C
C0000C
C0000C
C0000C
C0000C
C0000C
E0001C
600018
600018
300030
380070
1E01E0
07FF80
01FE00
ENDCHAR
STARTCHAR 01B2
ENCODING 434
SWIDTH 600 0
DWIDTH 30 0
BBX 26 28 2 0
BITMAP
FF800FC0
FF800FC0
0C000C00
0C000C00
0C000C00
0C000C00
0C000C00
0C000C00
0C000C00
0C000C00
0C000C00
0C000C00
0C000C00
0C000C00
0C000C00
0C000C00
0C000C00
0C000C00
0C000C00
0C000C00
0C000C00
0C000C00
0C000C00
0E001C00
07001800
07807800
03FFF000
00FFC000
ENDCHAR
STARTCHAR 01B3
ENCODING 435
SWIDTH 600 0
DWIDTH 30 0
BBX 28 28 -1 0
BITMAP
1FF00FF0
7FF00FF0
E38001C0
C1C00180
C0C00300
C0E00700
60700E00
7C300C00
1C381C00
001C3800
000C3000
00066000
0007E000
0003C000
00018000
00018000
00018000
00018000
00018000
00018000
00018000
00018000
00018000
00018000
00018000
00018000
007FFE00
007FFE00
ENDCHAR
STARTCHAR 01B4
ENCODING 436
SWIDTH 600 0
DWIDTH 30 0
BBX 28 37 3 -9
BITMAP
00000380
000003E0
00000070
00000030
00000030
00000030
00000070
FF00FFE0
FF00FF80
30000C00
18000C00
18001800
0C001800
0C003000
06003000
06006000
03006000
0300C000
0180C000
01818000
00C18000
00C30000
00630000
00660000
00360000
003C0000
001C0000
00180000
00180000
00300000
00300000
00600000
00600000
00C00000
00C00000
FFFC0000
FFFC0000
ENDCHAR
STARTCHAR 01B5
ENCODING 437
SWIDTH 600 0
DWIDTH 30 0
BBX 19 28 6 0
BITMAP
FFFF80
FFFF80
C00180
C00180
C00300
C00600
C00600
C00C00
C01800
003800
003000
006000
3FFF00
3FFF00
018000
038000
070000
060000
0C0060
0C0060
180060
300060
200060
600060
C00060
800060
FFFFE0
FFFFE0
ENDCHAR
STARTCHAR 01B6
ENCODING 438
SWIDTH 600 0
DWIDTH 30 0
BBX 18 21 6 0
BITMAP
FFFF80
FFFF80
C00300
C00700
C00E00
C01C00
001800
003000
007000
3FFF00
3FFF00
038000
030000
060000
0C0000
1800C0
3800C0
7000C0
6000C0
FFFFC0
FFFFC0
ENDCHAR
STARTCHAR 01B7
ENCODING 439
SWIDTH 600 0
DWIDTH 30 0
BBX 20 29 5 -1
BITMAP
7FFFC0
7FFFC0
600C00
603800
607000
60E000
01C000
038000
07FC00
0FFF00
1F0380
1801C0
0000E0
000060
000070
000030
000030
000030
000030
000030
000030
000070
000060
C000E0
E000C0
7801C0
3E0780
0FFE00
01F800
ENDCHAR
STARTCHAR 01B8
ENCODING 440
SWIDTH 600 0
DWIDTH 30 0
BBX 20 29 4 -1
BITMAP
3FFFE0
3FFFE0
038060
01C060
00E060
007060
003800
001C00
03FE00
0FFF00
1C0F80
380180
700000
600000
E00000
C00000
C00000
C00000
C00000
C00000
C00000
E00000
600000
700000
300030
3800E0
1E03C0
07FF80
01FC00
ENDCHAR
STARTCHAR 01B9
ENCODING 441
SWIDTH 600 0
DWIDTH 30 0
BBX 17 29 4 -8
BITMAP
FFFF00
FFFF80
1C0000
0E0000
070000
018000
00C000
006000
03F000
0FF800
1E1C00
180600
380000
300000
700000
600000
600000
600000
600000
600000
600000
700000
300000
300000
180180
1C0380
0E0F00
07FC00
01F000
ENDCHAR
STARTCHAR 01BA
ENCODING 442
SWIDTH 600 0
DWIDTH 30 0
BBX 18 31 4 -10
BITMAP
7FFFC0
7FFFC0
000E00
001C00
003800
007000
00C000
018000
03F800
0FFE00
1E0700
180380
000180
000180
000180
000180
000180
000300
000700
001E00
0FFC00
3FF000
780000
E00000
C00000
C00000
C00180
E00380
700F00
3FFE00
0FF000
ENDCHAR
STARTCHAR 01BB
ENCODING 443
SWIDTH 600 0
DWIDTH 30 0
BBX 20 31 4 0
BITMAP
002000
03FE00
0FFF80
1E03C0
3800E0
300060
700070
600030
000030
000030
000030
000070
000060
0000C0
000180
000300
03FFF0
03FFF0
003800
007000
00E000
01C000
038000
070000
0E0000
1C0000
380030
700030
C00030
FFFFF0
FFFFF0
ENDCHAR
STARTCHAR 01BC
ENCODING 444
SWIDTH 600 0
DWIDTH 30 0
BBX 21 29 4 -1
BITMAP
FFFFC0
FFFFC0
180000
180000
180000
180000
180000
180000
18FE00
1FFF80
1F03C0
1800E0
000070
000030
000038
000018
000018
000018
000018
000018
000018
000038
000030
400070
E00060
7801C0
1E0780
0FFF00
01FC00
ENDCHAR
STARTCHAR 01BD
ENCODING 445
SWIDTH 600 0
DWIDTH 30 0
BBX 16 22 5 -1
BITMAP
FFFF
FFFF
6000
6000
6000
6000
6000
6000
7FE0
7FF8
601C
0006
0003
0003
0003
0003
0003
4007
6006
781C
3FF8
07F0
ENDCHAR
STARTCHAR 01BE
ENCODING 446
SWIDTH 600 0
DWIDTH 30 0
BBX 17 28 7 0
BITMAP
0FF000
0FF000
018000
018000
018000
018000
018000
018000
7FFE00
7FFE00
018000
018000
018000
01E000
00F800
003C00
000E00
000700
000380
000180
000180
000180
C00180
C00380
C00300
F00F00
7FFE00
1FF800
ENDCHAR
STARTCHAR 01BF
ENCODING 447
SWIDTH 600 0
DWIDTH 30 0
BBX 26 31 1 -9
BITMAP
0003FE00
FC1FFF80
FC7C0380
0DE000C0
0FC000C0
0F0000C0
0E0000C0
0C0001C0
0C000180
0C000380
0C000700
0C000E00
0C001C00
0C003800
0C00F000
0C01E000
0C038000
0C070000
0C1E0000
0C3C0000
0C700000
0CE00000
0FC00000
0F000000
0E000000
0C000000
0C000000
0C000000
0C000000
FFF00000
FFF00000
ENDCHAR
STARTCHAR 01C0
ENCODING 448
SWIDTH 600 0
DWIDTH 30 0
BBX 2 36 14 -6
BITMAP
C0
C0
C0
C0
C0
C0
C0
C0
C0
C0
C0
C0
C0
C0
C0
C0
C0
C0
C0
C0
C0
C0
C0
C0
C0
C0
C0
C0
C0
C0
C0
C0
C0
C0
C0
C0
ENDCHAR
STARTCHAR 01C1
ENCODING 449
SWIDTH 600 0
DWIDTH 30 0
BBX 8 36 11 -6
BITMAP
C3
C3
C3
C3
C3
C3
C3
C3
C3
C3
C3
C3
C3
C3
C3
C3
C3
C3
C3
C3
C3
C3
C3
C3
C3
C3
C3
C3
C3
C3
C3
C3
C3
C3
C3
C3
ENDCHAR
STARTCHAR 01C2
ENCODING 450
SWIDTH 600 0
DWIDTH 30 0
BBX 24 35 3 -5
BITMAP
001800
001800
001800
001800
001800
001800
001800
001800
001800
001800
001800
FFFFFF
FFFFFF
001800
001800
001800
001800
001800
FFFFFF
FFFFFF
001800
001800
001800
001800
001800
001800
001800
001800
001800
001800
001800
001800
001800
001800
001800
ENDCHAR
STARTCHAR 01C3
ENCODING 451
SWIDTH 600 0
DWIDTH 30 0
BBX 6 32 12 -1
BITMAP
30
78
78
78
78
78
78
78
78
78
78
30
30
30
30
30
30
30
30
30
00
00
00
00
00
00
00
78
FC
FC
FC
78
ENDCHAR
STARTCHAR 01C4
ENCODING 452
SWIDTH 600 0
DWIDTH 30 0
BBX 29 38 1 0
BITMAP
00030018
0001C038
0000E0F0
000071C0
00003B80
00001F00
00000E00
00000000
00000000
00000000
FF80FFC0
FFC0FFC0
30E0C040
3070C0C0
3038C080
3018C180
3018C180
300CC100
300CC300
300C0200
300C0200
300C0600
300C0400
300C0C00
300C0800
300C0800
300C1800
300C1000
300C3060
300C3060
300C2060
30186060
30184060
30384060
3030C060
30F08060
FFE0FFE0
FF80FFE0
ENDCHAR
STARTCHAR 01C5
ENCODING 453
SWIDTH 600 0
DWIDTH 30 0
BBX 29 32 1 0
BITMAP
00000010
00038038
0001C070
0000E1E0
FF807B80
FFC01F00
30E00E00
30700400
30380000
30180000
30180000
300CFFC0
300CFFC0
300CC1C0
300CC180
300CC380
300CC300
300C0700
300C0600
300C0E00
300C0C00
300C1C00
300C1800
300C3800
300C3800
30187000
30187060
3038E060
3030E060
30F1C060
FFE1FFE0
FF81FFE0
ENDCHAR
STARTCHAR 01C6
ENCODING 454
SWIDTH 600 0
DWIDTH 30 0
BBX 28 33 1 -1
BITMAP
00000010
00038030
03F1C0F0
03F0E1C0
00307380
00303F00
00300E00
00300400
00300000
00300000
00300000
3FB1FFC0
3FB1FFC0
60F181C0
60F18180
60718380
C0718300
C0300700
C0300600
C0300E00
C0300C00
C0301C00
C0301800
C0303800
C0307000
C0307000
C030E060
6070E060
6071C060
60F1C060
31FFFFE0
3FBFFFE0
1F000000
ENDCHAR
STARTCHAR 01C7
ENCODING 455
SWIDTH 600 0
DWIDTH 30 0
BBX 28 29 1 -1
BITMAP
FF807FF0
FF807FF0
18000180
18000180
18000180
18000180
18000180
18000180
18000180
18000180
18000180
18000180
18000180
18000180
18000180
18000180
18060180
18660180
18660180
18660180
18660180
18660180
18660180
18660180
18670180
18630300
FFE38700
FFE1FE00
00007800
ENDCHAR
STARTCHAR 01C8
ENCODING 456
SWIDTH 600 0
DWIDTH 30 0
BBX 29 40 1 -9
BITMAP
00000038
00000038
00000038
FFFC0038
FFFC0038
03000000
03000000
03000000
03000000
03000000
030007F0
030007F0
03000030
03000030
03000030
03000030
03000030
03000030
03000030
03000030
03006030
03006030
03006030
03006030
03006030
03006030
03006030
03006030
03006030
FFFFE030
FFFFE030
00000030
00000030
00000030
00000030
00000060
000000E0
000001C0
0007FF80
0007FE00
ENDCHAR
STARTCHAR 01C9
ENCODING 457
SWIDTH 600 0
DWIDTH 30 0
BBX 18 40 7 -9
BITMAP
0001C0
FC01C0
FC01C0
0C01C0
0C01C0
0C0000
0C0000
0C0000
0C0000
0C0000
0C3F80
0C3F80
0C0180
0C0180
0C0180
0C0180
0C0180
0C0180
0C0180
0C0180
0C0180
0C0180
0C0180
0C0180
0C0180
0C0180
0C0180
0C0180
0C0180
FFC180
FFC180
000180
000180
000180
000180
000300
000700
000E00
3FFC00
3FF000
ENDCHAR
STARTCHAR 01CA
ENCODING 458
SWIDTH 600 0
DWIDTH 30 0
BBX 30 29 0 -1
BITMAP
FC1FE3FC
FC1FE3FC
1C030060
1E030060
1E030060
1F030060
1B030060
1B030060
1B830060
19830060
19830060
18C30060
18C30060
18C30060
18630060
18630060
18731860
18331860
18331860
183B1860
181B1860
181B1860
181F1860
180F1860
180F1860
18071860
7F071CE0
7F070FC0
00000780
ENDCHAR
STARTCHAR 01CB
ENCODING 459
SWIDTH 600 0
DWIDTH 30 0
BBX 29 40 1 -9
BITMAP
00000038
00000038
00000038
FE0FFC38
FE0FFC38
0F006000
0F006000
0F806000
0D806000
0D806000
0CC067F0
0CC067F0
0C606030
0C606030
0C706030
0C306030
0C306030
0C186030
0C186030
0C0C6030
0C0C6030
0C0E6030
0C066030
0C066030
0C036030
0C036030
0C01E030
0C01E030
0C01E030
7FE0E030
7FE0E030
00000030
00000030
00000030
00000030
00000060
000000E0
000001C0
0007FF80
0007FE00
ENDCHAR
STARTCHAR 01CC
ENCODING 460
SWIDTH 600 0
DWIDTH 30 0
BBX 30 40 0 -9
BITMAP
0000001C
0000001C
0000001C
0000001C
0000001C
00000000
00000000
00000000
00000000
00000000
7C7F03F8
7CFFC3F8
0DC1E018
0F806018
0F007018
0E003018
0C003018
0C003018
0C003018
0C003018
0C003018
0C003018
0C003018
0C003018
0C003018
0C003018
0C003018
0C003018
0C003018
FF81FE18
FF81FE18
00000018
00000018
00000018
00000018
00000030
00000070
000000E0
0003FFC0
0003FF00
ENDCHAR
STARTCHAR 01CD
ENCODING 461
SWIDTH 600 0
DWIDTH 30 0
BBX 28 38 1 0
BITMAP
01801800
01C03800
00F07000
0038E000
001FC000
000F8000
00060000
00000000
00000000
00000000
0FFF0000
0FFF0000
001B0000
00198000
00318000
0031C000
0030C000
0060C000
0060E000
00E06000
00C06000
00C03000
01C03000
01803800
01801800
03001800
03001C00
07FFFC00
07FFFE00
06000600
0E000600
0C000700
0C000300
18000300
18000180
18000180
FFC03FF0
FFC03FF0
ENDCHAR
STARTCHAR 01CE
ENCODING 462
SWIDTH 600 0
DWIDTH 30 0
BBX 23 32 4 -1
BITMAP
040040
0E00E0
0701C0
01C780
00EE00
007C00
003800
001000
000000
000000
07FF00
1FFF80
1001C0
0000E0
000060
000060
000060
000060
03FE60
0FFFE0
3E00E0
700060
600060
C00060
C00060
C00060
C000E0
E001E0
600760
781E7E
1FF87E
0FE000
ENDCHAR
STARTCHAR 01CF
ENCODING 463
SWIDTH 600 0
DWIDTH 30 0
BBX 18 38 6 0
BITMAP
300300
380700
1E0E00
071C00
03F800
01F000
00C000
000000
000000
000000
FFFFC0
FFFFC0
00C000
00C000
00C000
00C000
00C000
00C000
00C000
00C000
00C000
00C000
00C000
00C000
00C000
00C000
00C000
00C000
00C000
00C000
00C000
00C000
00C000
00C000
00C000
00C000
FFFFC0
FFFFC0
ENDCHAR
STARTCHAR 01D0
ENCODING 464
SWIDTH 600 0
DWIDTH 30 0
BBX 20 31 5 1
BITMAP
1C0180
0E0380
070F00
039C00
01F800
00F000
002000
000000
000000
000000
3FE000
3FE000
006000
006000
006000
006000
006000
006000
006000
006000
006000
006000
006000
006000
006000
006000
006000
006000
006000
FFFFF0
FFFFF0
ENDCHAR
STARTCHAR 01D1
ENCODING 465
SWIDTH 600 0
DWIDTH 30 0
BBX 24 39 3 -1
BITMAP
060060
0700E0
03C1C0
00E380
007F00
003E00
001800
000000
000000
000000
00FF80
03FFC0
0700E0
0E0070
1C0038
38001C
30000C
70000E
600006
600006
C00003
C00003
C00003
C00003
C00003
C00003
C00003
C00003
E00007
600006
600006
70000E
30000C
180018
1C0038
0E0070
0781E0
01FF80
007E00
ENDCHAR
STARTCHAR 01D2
ENCODING 466
SWIDTH 600 0
DWIDTH 30 0
BBX 22 32 4 -1
BITMAP
0C0040
0E01C0
0703C0
038700
01EE00
007C00
003800
000000
000000
000000
03FF00
07FF80
0E01E0
180060
300030
700038
600018
E0001C
C0000C
C0000C
C0000C
C0000C
C0000C
C0000C
600018
600018
700038
380070
1C00E0
0F03C0
07FF80
00FC00
ENDCHAR
STARTCHAR 01D3
ENCODING 467
SWIDTH 600 0
DWIDTH 30 0
BBX 26 39 2 -1
BITMAP
03003000
03807000
01E0E000
0071C000
003F8000
001F0000
000C0000
00000000
00000000
00000000
FFC0FFC0
FFC0FFC0
18000600
18000600
18000600
18000600
18000600
18000600
18000600
18000600
18000600
18000600
18000600
18000600
18000600
18000600
18000600
18000600
18000600
18000600
18000600
18000600
0C000C00
0C000C00
06001800
07003800
03C0F000
00FFC000
003F0000
ENDCHAR
STARTCHAR 01D4
ENCODING 468
SWIDTH 600 0
DWIDTH 30 0
BBX 25 32 2 -1
BITMAP
02003000
03807000
01C0E000
00E1C000
00778000
003E0000
001C0000
00000000
00000000
00000000
FC01FC00
FC01FC00
0C000C00
0C000C00
0C000C00
0C000C00
0C000C00
0C000C00
0C000C00
0C000C00
0C000C00
0C000C00
0C000C00
0C000C00
0C000C00
0C000C00
0C001C00
0E003C00
0600EC00
0783CF80
03FF0F80
00FC0000
ENDCHAR
STARTCHAR 01D5
ENCODING 469
SWIDTH 600 0
DWIDTH 30 0
BBX 26 41 2 -1
BITMAP
01FFF000
03FFF000
00000000
00000000
03807000
07C0F800
07C0F800
07C0F800
03807000
00000000
00000000
00000000
FFC0FFC0
FFC0FFC0
18000600
18000600
18000600
18000600
18000600
18000600
18000600
18000600
18000600
18000600
18000600
18000600
18000600
18000600
18000600
18000600
18000600
18000600
18000600
18000600
0C000C00
0C000C00
06001800
07003800
03C0F000
00FFC000
003F0000
ENDCHAR
STARTCHAR 01D6
ENCODING 470
SWIDTH 600 0
DWIDTH 30 0
BBX 25 35 2 -1
BITMAP
03FFF000
03FFF000
00000000
00000000
03807000
0780F000
07C0F800
0780F000
03807000
00000000
00000000
00000000
00000000
FC01FC00
FC01FC00
0C000C00
0C000C00
0C000C00
0C000C00
0C000C00
0C000C00
0C000C00
0C000C00
0C000C00
0C000C00
0C000C00
0C000C00
0C000C00
0C000C00
0C001C00
0E003C00
0600EC00
0783CF80
03FF0F80
00FC0000
ENDCHAR
STARTCHAR 01D7
ENCODING 471
SWIDTH 600 0
DWIDTH 30 0
BBX 26 40 2 0
BITMAP
00002000
00007000
0000E000
0001C000
00078000
000E0000
001C0000
00080000
03807000
07C0F800
07C0F800
07C0F800
03807000
00000000
FFC0FFC0
FFC0FFC0
18000600
18000600
18000600
18000600
18000600
18000600
18000600
18000600
18000600
18000600
18000600
18000600
18000600
18000600
18000600
18000600
18000600
18000600
0C000C00
0C001C00
06003800
07807800
01FFE000
00FFC000
ENDCHAR
STARTCHAR 01D8
ENCODING 472
SWIDTH 600 0
DWIDTH 30 0
BBX 25 40 2 -1
BITMAP
00006000
0000E000
0001C000
00038000
00070000
000E0000
001C0000
00000000
00000000
03807000
0780F000
07C0F800
0780F000
03807000
00000000
00000000
00000000
00000000
FC01FC00
FC01FC00
0C000C00
0C000C00
0C000C00
0C000C00
0C000C00
0C000C00
0C000C00
0C000C00
0C000C00
0C000C00
0C000C00
0C000C00
0C000C00
0C000C00
0C001C00
0E003C00
0600EC00
0783CF80
03FF0F80
00FC0000
ENDCHAR
STARTCHAR 01D9
ENCODING 473
SWIDTH 600 0
DWIDTH 30 0
BBX 26 40 2 0
BITMAP
02001000
03807000
01C0E000
00E1C000
00738000
003F0000
001E0000
00000000
03807000
07C0F800
07C0F800
07C0F800
03807000
00000000
FFC0FFC0
FFC0FFC0
18000600
18000600
18000600
18000600
18000600
18000600
18000600
18000600
18000600
18000600
18000600
18000600
18000600
18000600
18000600
18000600
18000600
18000600
0C000C00
0C001C00
06003800
07807800
01FFE000
00FFC000
ENDCHAR
STARTCHAR 01DA
ENCODING 474
SWIDTH 600 0
DWIDTH 30 0
BBX 25 39 2 -1
BITMAP
02000000
03007000
03C0E000
00E1C000
00738000
003F0000
001C0000
00080000
03807000
0780F000
07C0F800
0780F000
03807000
00000000
00000000
00000000
00000000
FC01FC00
FC01FC00
0C000C00
0C000C00
0C000C00
0C000C00
0C000C00
0C000C00
0C000C00
0C000C00
0C000C00
0C000C00
0C000C00
0C000C00
0C000C00
0C000C00
0C001C00
0E003C00
0600EC00
0783CF80
03FF0F80
00FC0000
ENDCHAR
STARTCHAR 01DB
ENCODING 475
SWIDTH 600 0
DWIDTH 30 0
BBX 26 39 2 0
BITMAP
01800000
01C00000
00E00000
00780000
001C0000
000E0000
00060000
03807000
07C0F800
07C0F800
07C0F800
03807000
00000000
FFC0FFC0
FFC0FFC0
18000600
18000600
18000600
18000600
18000600
18000600
18000600
18000600
18000600
18000600
18000600
18000600
18000600
18000600
18000600
18000600
18000600
18000600
0C000C00
0C001C00
06003800
07807800
01FFE000
00FFC000
ENDCHAR
STARTCHAR 01DC
ENCODING 476
SWIDTH 600 0
DWIDTH 30 0
BBX 25 40 2 -1
BITMAP
03800000
01C00000
00E00000
00700000
00380000
001C0000
000E0000
00000000
00000000
03807000
0780F000
07C0F800
0780F000
03807000
00000000
00000000
00000000
00000000
FC01FC00
FC01FC00
0C000C00
0C000C00
0C000C00
0C000C00
0C000C00
0C000C00
0C000C00
0C000C00
0C000C00
0C000C00
0C000C00
0C000C00
0C000C00
0C000C00
0C001C00
0E003C00
0600EC00
0783CF80
03FF0F80
00FC0000
ENDCHAR
STARTCHAR 01DD
ENCODING 477
SWIDTH 600 0
DWIDTH 30 0
BBX 23 22 3 0
BITMAP
07FF00
3FFFC0
7801E0
E00070
000038
00001C
00000C
00000C
000006
000006
FFFFFE
FFFFFE
C00006
600006
60000C
60000C
30001C
380038
1C0070
0F81E0
03FFC0
00FE00
ENDCHAR
STARTCHAR 01DE
ENCODING 478
SWIDTH 600 0
DWIDTH 30 0
BBX 28 40 1 0
BITMAP
03FFF000
03FFF000
00000000
00000000
01C03800
03E07C00
03E07C00
03E07C00
01C03800
00000000
00000000
00000000
0FFF0000
0FFF0000
001B0000
00198000
00318000
0031C000
0030C000
0060C000
0060E000
00E06000
00C06000
00C03000
01C03000
01803800
01801800
03001800
03001C00
07FFFC00
07FFFE00
06000600
0E000600
0C000700
0C000300
18000300
18000180
18000180
FFC03FF0
FFC03FF0
ENDCHAR
STARTCHAR 01DF
ENCODING 479
SWIDTH 600 0
DWIDTH 30 0
BBX 23 35 4 -1
BITMAP
0FFFC0
0FFFC0
000000
000000
1C0380
1E03C0
3E07C0
1E03C0
1C0380
000000
000000
000000
000000
07FF00
1FFF80
1001C0
0000E0
000060
000060
000060
000060
03FE60
0FFFE0
3E00E0
700060
600060
C00060
C00060
C00060
C000E0
E001E0
600760
781E7E
1FF87E
0FE000
ENDCHAR
STARTCHAR 01E0
ENCODING 480
SWIDTH 600 0
DWIDTH 30 0
BBX 28 40 1 0
BITMAP
00FFF800
01FFF800
00000000
00000000
00060000
000F0000
000F8000
000F8000
000F0000
00000000
00000000
00000000
0FFF0000
0FFF0000
001B0000
00198000
00318000
0031C000
0030C000
0060C000
0060E000
00E06000
00C06000
00C03000
01C03000
01803800
01801800
03001800
03001C00
07FFFC00
07FFFE00
06000600
0E000600
0C000700
0C000300
18000300
18000180
18000180
FFC03FF0
FFC03FF0
ENDCHAR
STARTCHAR 01E1
ENCODING 481
SWIDTH 600 0
DWIDTH 30 0
BBX 23 35 4 -1
BITMAP
0FFFE0
0FFFE0
000000
000000
003800
007C00
007C00
007C00
003800
000000
000000
000000
000000
07FF00
1FFF80
1001C0
0000E0
000060
000060
000060
000060
03FE60
0FFFE0
3E00E0
700060
600060
C00060
C00060
C00060
C000E0
E001E0
600760
781E7E
1FF87E
0FE000
ENDCHAR
STARTCHAR 01E2
ENCODING 482
SWIDTH 600 0
DWIDTH 30 0
BBX 28 33 1 0
BITMAP
007FFE00
007FFE00
00000000
00000000
00000000
07FFFFE0
07FFFFE0
00630060
00630060
00630060
00C30060
00C30060
00C30060
00C30000
01830000
01830C00
01830C00
0303FC00
0303FC00
03030C00
03030C00
06030000
07FF0000
07FF0000
0C030000
0C030000
0C030030
0C030030
18030030
18030030
18030030
FE1FFFF0
FE1FFFF0
ENDCHAR
STARTCHAR 01E3
ENCODING 483
SWIDTH 600 0
DWIDTH 30 0
BBX 28 27 1 -1
BITMAP
01FFF800
01FFF800
00000000
00000000
00000000
0FF07E00
1FF8FF80
001DC180
000F80C0
00070040
00070040
00070060
00060020
07F60020
1FFFFFE0
3C0FFFE0
70060000
E0060000
C0060000
C0070000
C0070000
C00F0000
601F8030
603FC070
3876E1E0
1FE67F80
0F801F00
ENDCHAR
STARTCHAR 01E4
ENCODING 484
SWIDTH 600 0
DWIDTH 30 0
BBX 25 29 3 0
BITMAP
01FFC600
03FFF600
0F003E00
1C000E00
18000600
30000600
70000600
60000000
60000000
E0000000
C0000000
C0000000
C0000000
C0000000
C0000000
C0000000
C007FF80
C007FF80
C0000600
C0000600
60000600
6007FF80
7007FF80
38000600
1C000600
0E000600
07C03E00
01FFF800
007FC000
ENDCHAR
STARTCHAR 01E5
ENCODING 485
SWIDTH 600 0
DWIDTH 30 0
BBX 25 30 3 -8
BITMAP
03FE1F80
0FFF1F80
1C01D800
3800F800
70007800
60003800
E0003800
C0001800
C0001800
C0001800
C0001800
C0001800
E0001800
60003800
70007800
30007800
1C01D800
0F079800
07FF1800
01FC1800
00001800
00001800
00001800
001FFF80
001FFF80
00003000
00007000
0001E000
03FFC000
03FF0000
ENDCHAR
STARTCHAR 01E6
ENCODING 486
SWIDTH 600 0
DWIDTH 30 0
BBX 25 40 3 -1
BITMAP
02001000
03007000
01C0E000
00E1C000
00738000
003F0000
001C0000
00000000
00000000
00000000
00000000
01FFC600
03FFF600
0F003E00
1C000E00
18000600
30000600
70000600
60000000
60000000
E0000000
C0000000
C0000000
C0000000
C0000000
C0000000
C0000000
C007FF80
C007FF80
C0000600
C0000600
60000600
60000600
70000600
38000600
1C000600
0E000600
07C03E00
01FFF800
007FC000
ENDCHAR
STARTCHAR 01E7
ENCODING 487
SWIDTH 600 0
DWIDTH 30 0
BBX 25 40 3 -9
BITMAP
03003000
0380F000
01C1C000
00F38000
003F0000
001E0000
000C0000
00000000
00000000
00000000
03FE1F80
0FFF1F80
1C01D800
3800F800
70007800
60003800
E0003800
C0001800
C0001800
C0001800
C0001800
C0001800
E0001800
60003800
70007800
30007800
1C01D800
0F079800
07FF1800
01FC1800
00001800
00001800
00001800
00001800
00003800
00003000
00007000
0001E000
03FFC000
03FF0000
ENDCHAR
STARTCHAR 01E8
ENCODING 488
SWIDTH 600 0
DWIDTH 30 0
BBX 26 38 2 0
BITMAP
01001800
01C03800
00E0F000
0071E000
003B8000
001F0000
000E0000
00000000
00000000
00000000
FFE07F80
FFE0FF80
0C000C00
0C003800
0C007000
0C00E000
0C01C000
0C038000
0C070000
0C0E0000
0C380000
0C700000
0CF80000
0DFE0000
0F870000
0F038000
0E01C000
0C00C000
0C00E000
0C006000
0C003000
0C003000
0C003800
0C001800
0C001C00
0C000C00
FFE00FC0
FFE007C0
ENDCHAR
STARTCHAR 01E9
ENCODING 489
SWIDTH 600 0
DWIDTH 30 0
BBX 24 40 3 0
BITMAP
020020
070070
0381E0
01C3C0
00F700
003E00
001C00
000800
000000
000000
FC0000
FC0000
0C0000
0C0000
0C0000
0C0000
0C0000
0C0000
0C0000
0C0FF8
0C0FF8
0C0380
0C0700
0C0E00
0C1C00
0C7000
0CE000
0DC000
0FE000
0F7000
0E3800
0C1C00
0C0E00
0C0700
0C0380
0C01C0
0C00E0
0C0070
FC01FF
FC01FF
ENDCHAR
STARTCHAR 01EA
ENCODING 490
SWIDTH 600 0
DWIDTH 30 0
BBX 24 37 3 -8
BITMAP
00FF80
03FFC0
0700E0
0E0070
1C0038
38001C
30000C
70000E
600006
600006
C00003
C00003
C00003
C00003
C00003
C00003
C00003
C00003
E00007
600006
600006
70000E
30000C
180018
1C0038
0E0070
0781E0
01FF80
007E00
000C00
003800
003000
006000
006000
006000
007F00
001C00
ENDCHAR
STARTCHAR 01EB
ENCODING 491
SWIDTH 600 0
DWIDTH 30 0
BBX 22 30 4 -8
BITMAP
03FF00
07FF80
0E01E0
180060
300030
700038
600018
E0001C
C0000C
C0000C
C0000C
C0000C
C0000C
C0000C
600018
600018
700038
380070
1C00E0
0F03C0
07FF80
00FC00
001800
007000
006000
00C000
00C000
00C000
00FE00
003800
ENDCHAR
STARTCHAR 01EC
ENCODING 492
SWIDTH 600 0
DWIDTH 30 0
BBX 24 42 3 -9
BITMAP
07FFE0
07FFE0
000000
000000
000000
00FF80
03FFC0
0700E0
0E0070
1C0038
38001C
30000C
70000E
600006
600006
C00003
C00003
C00003
C00003
C00003
C00003
C00003
C00003
E00007
600006
600006
70000E
30000C
180018
1C0038
0E0070
0781E0
01FF80
007E00
000C00
003800
003000
006000
006000
006000
007F00
001C00
ENDCHAR
STARTCHAR 01ED
ENCODING 493
SWIDTH 600 0
DWIDTH 30 0
BBX 22 35 4 -9
BITMAP
0FFFC0
0FFFC0
000000
000000
000000
03FF00
07FF80
0E01E0
180060
300030
700038
600018
E0001C
C0000C
C0000C
C0000C
C0000C
C0000C
C0000C
600018
600018
700038
380070
1C00E0
0F03C0
07FF80
00FC00
001800
007000
006000
00C000
00C000
00C000
00FE00
003800
ENDCHAR
STARTCHAR 01EE
ENCODING 494
SWIDTH 600 0
DWIDTH 30 0
BBX 20 40 5 -1
BITMAP
200200
700700
3C0E00
0E1C00
077800
03E000
01C000
008000
000000
000000
000000
7FFFC0
7FFFC0
600C00
603800
607000
60E000
01C000
038000
07FC00
0FFF00
1F0380
1801C0
0000E0
000060
000070
000030
000030
000030
000030
000030
000030
000070
000060
C000E0
E000C0
7801C0
3E0780
0FFE00
01F800
ENDCHAR
STARTCHAR 01EF
ENCODING 495
SWIDTH 600 0
DWIDTH 30 0
BBX 17 39 5 -7
BITMAP
300700
380F00
1E1C00
073800
03F000
01E000
008000
000000
000000
000000
7FFF80
7FFF80
001C00
003800
007000
00E000
018000
030000
07E000
0FF800
1C3C00
380C00
000E00
000600
000700
000300
000300
000300
000300
000300
000300
000700
000600
800600
C00C00
F01C00
383800
1FF000
07C000
ENDCHAR
STARTCHAR 01F0
ENCODING 496
SWIDTH 600 0
DWIDTH 30 0
BBX 16 40 6 -9
BITMAP
3001
3807
1C0E
0F1C
03B8
01F0
00C0
0000
0000
0000
FFFE
FFFE
0006
0006
0006
0006
0006
0006
0006
0006
0006
0006
0006
0006
0006
0006
0006
0006
0006
0006
0006
0006
0006
0006
0006
000C
001C
0038
FFF0
FFC0
ENDCHAR
STARTCHAR 01F1
ENCODING 497
SWIDTH 600 0
DWIDTH 30 0
BBX 27 28 1 0
BITMAP
FF80FFC0
FFC0FFC0
30E0C040
3070C0C0
3038C080
3018C180
3018C180
300CC100
300CC300
300C0200
300C0200
300C0600
300C0400
300C0C00
300C0800
300C0800
300C1800
300C1000
300C3060
300C3060
300C2060
30186060
30184060
30384060
3030C060
30F08060
FFE0FFE0
FF80FFE0
ENDCHAR
STARTCHAR 01F2
ENCODING 498
SWIDTH 600 0
DWIDTH 30 0
BBX 27 28 1 0
BITMAP
FF800000
FFC00000
30E00000
30700000
30380000
30180000
30180000
300CFFC0
300CFFC0
300CC1C0
300CC180
300CC380
300CC300
300C0700
300C0600
300C0E00
300C0C00
300C1C00
300C1800
300C3800
300C3800
30187000
30187060
3038E060
3030E060
30F1C060
FFE1FFE0
FF81FFE0
ENDCHAR
STARTCHAR 01F3
ENCODING 499
SWIDTH 600 0
DWIDTH 30 0
BBX 27 31 1 -1
BITMAP
03F00000
03F00000
00300000
00300000
00300000
00300000
00300000
00300000
00300000
3FB1FFC0
3FB1FFC0
60F181C0
60F18180
60718380
C0718300
C0300700
C0300600
C0300E00
C0300C00
C0301C00
C0301800
C0303800
C0307000
C0307000
C030E060
6070E060
6071C060
60F1C060
31FFFFE0
3FBFFFE0
1F000000
ENDCHAR
STARTCHAR 01F4
ENCODING 500
SWIDTH 600 0
DWIDTH 30 0
BBX 25 39 3 -1
BITMAP
00018000
00078000
000E0000
001C0000
00380000
00700000
00600000
00000000
00000000
00000000
01FFC600
03FFF600
0F003E00
1C000E00
18000600
30000600
70000600
60000000
60000000
E0000000
C0000000
C0000000
C0000000
C0000000
C0000000
C0000000
C007FF80
C007FF80
C0000600
C0000600
60000600
60000600
70000600
38000600
1C000600
0E000600
07C03E00
01FFF800
007FC000
ENDCHAR
STARTCHAR 01F5
ENCODING 501
SWIDTH 600 0
DWIDTH 30 0
BBX 25 40 3 -9
BITMAP
00010000
00038000
00070000
000E0000
003C0000
00700000
00600000
00400000
00000000
00000000
03FE1F80
0FFF1F80
1C01D800
3800F800
70007800
60003800
E0003800
C0001800
C0001800
C0001800
C0001800
C0001800
E0001800
60003800
70007800
30007800
1C01D800
0F079800
07FF1800
01FC1800
00001800
00001800
00001800
00001800
00003800
00003000
00007000
0001E000
03FFC000
03FF0000
ENDCHAR
STARTCHAR 01F6
ENCODING 502
SWIDTH 600 0
DWIDTH 30 0
BBX 28 29 1 -1
BITMAP
7F0FE000
7F0FE000
18018000
18018000
18018000
18018000
18018000
180187F0
180187F0
18018030
18018030
18018030
1FFF8030
1FFF8030
18018030
18018030
18018030
18018030
18018030
18018030
18018030
18018030
18018030
18018030
1801C070
1800C060
FF80F0E0
FF807FC0
00001F00
ENDCHAR
STARTCHAR 01F7
ENCODING 503
SWIDTH 600 0
DWIDTH 30 0
BBX 26 37 1 -8
BITMAP
FC0FFE00
FC3FFF80
0C780180
0DE000C0
0F8000C0
0F0000C0
0C0000C0
0C0001C0
0C000180
0C000380
0C000300
0C000700
0C000E00
0C001C00
0C003800
0C007000
0C01C000
0C038000
0C070000
0C0E0000
0C1C0000
0C380000
0C700000
0CE00000
0DC00000
0F800000
0F000000
0E000000
0C000000
0C000000
0C000000
0C000000
0C000000
0C000000
0C000000
FFF00000
FFF00000
ENDCHAR
STARTCHAR 01F8
ENCODING 504
SWIDTH 600 0
DWIDTH 30 0
BBX 27 38 1 0
BITMAP
00300000
00380000
001C0000
000E0000
00070000
00038000
0000C000
00000000
00000000
00000000
FE007FE0
FF007FE0
0F000300
0F800300
0D800300
0CC00300
0CE00300
0C600300
0C700300
0C300300
0C180300
0C1C0300
0C0C0300
0C060300
0C070300
0C030300
0C038300
0C018300
0C00C300
0C00E300
0C006300
0C007300
0C003300
0C001B00
0C001F00
0C000F00
7FE00700
7FE00700
ENDCHAR
STARTCHAR 01F9
ENCODING 505
SWIDTH 600 0
DWIDTH 30 0
BBX 25 33 2 0
BITMAP
00600000
00700000
00380000
001C0000
000F0000
00038000
00018000
00000000
00000000
00000000
00000000
00000000
7C3FC000
7CFFF000
0DC03800
0F001800
0E001C00
0E000C00
0C000C00
0C000C00
0C000C00
0C000C00
0C000C00
0C000C00
0C000C00
0C000C00
0C000C00
0C000C00
0C000C00
0C000C00
0C000C00
FF807F80
FF807F80
ENDCHAR
STARTCHAR 01FA
ENCODING 506
SWIDTH 600 0
DWIDTH 30 0
BBX 30 40 0 0
BITMAP
00010000
00030000
000F0000
001C0000
00380000
00700000
00E00000
00460000
001F8000
0030C000
00604000
00606000
00606000
0070C000
003F8000
000F0000
00000000
03FF8000
07FF8000
000DC000
001CC000
0018E000
00186000
00307000
00303000
00603000
00603800
00E01800
00C01C00
01C00C00
01800E00
03FFFE00
03FFFF00
07000300
06000380
0E000180
0C0001C0
0C0000C0
7FC00FF8
FFC01FFC
ENDCHAR
STARTCHAR 01FB
ENCODING 507
SWIDTH 600 0
DWIDTH 30 0
BBX 23 41 4 0
BITMAP
000E00
001C00
003800
007000
01E000
038000
030000
000000
003000
00FC00
018600
030200
030300
030300
038600
01FC00
007800
000000
000000
07FF00
1FFF80
1001C0
0000E0
000060
000060
000060
000060
03FE60
0FFFE0
3E00E0
700060
600060
C00060
C00060
C00060
C000E0
E001E0
600760
781E7E
1FF87E
0FE000
ENDCHAR
STARTCHAR 01FC
ENCODING 508
SWIDTH 600 0
DWIDTH 30 0
BBX 28 38 1 0
BITMAP
0000C000
0001C000
00038000
00070000
001E0000
00380000
00300000
00000000
00000000
00000000
07FFFFE0
07FFFFE0
00630060
00630060
00630060
00C30060
00C30060
00C30060
00C30000
01830000
01830C00
01830C00
0303FC00
0303FC00
03030C00
03030C00
06030000
07FF0000
07FF0000
0C030000
0C030000
0C030030
0C030030
18030030
18030030
18030030
FE1FFFF0
FE1FFFF0
ENDCHAR
STARTCHAR 01FD
ENCODING 509
SWIDTH 600 0
DWIDTH 30 0
BBX 28 32 1 -1
BITMAP
0000C000
0001C000
00038000
00070000
001E0000
00380000
00300000
00200000
00000000
00000000
0FF07E00
1FF8FF80
001DC180
000F80C0
00070040
00070040
00070060
00060020
07F60020
1FFFFFE0
3C0FFFE0
70060000
E0060000
C0060000
C0070000
C0070000
C00F0000
601F8030
603FC070
3876E1E0
1FE67F80
0F801F00
ENDCHAR
STARTCHAR 01FE
ENCODING 510
SWIDTH 600 0
DWIDTH 30 0
BBX 26 42 2 -2
BITMAP
00018000
00038000
00070000
000E0000
003C0000
00700000
00600000
00000000
00000000
00000000
000000C0
00000180
007F8380
01FFE300
03807600
07003C00
0E001C00
1C001E00
18003600
38006700
3000C300
3000C300
60018180
60030180
60060180
600E0180
600C0180
60180180
60300180
60700180
70600380
30C00300
31800300
1B800700
1B000600
0E000C00
0E001C00
1F003800
3BC0F000
30FFC000
603F0000
C0000000
ENDCHAR
STARTCHAR 01FF
ENCODING 511
SWIDTH 600 0
DWIDTH 30 0
BBX 24 35 3 -2
BITMAP
000300
000700
000E00
001C00
003800
00F000
00C000
000000
000000
000000
000003
000006
01FF8C
03FFDC
0F00F8
0C0030
180078
3800DC
30018C
70030E
600606
600C06
601806
603006
606006
60E006
31C00C
33800C
1F001C
1E0038
0E0070
1F81E0
33FFC0
607E00
C00000
ENDCHAR
STARTCHAR 0200
ENCODING 512
SWIDTH 600 0
DWIDTH 30 0
BBX 28 39 1 0
BITMAP
060C0000
070E0000
03870000
01C38000
00E1C000
0070E000
00306000
00000000
00000000
00000000
00000000
0FFF0000
0FFF0000
001B0000
00198000
00318000
0031C000
0030C000
0060C000
0060E000
00E06000
00C06000
00C03000
01C03000
01803800
01801800
03001800
03001C00
07FFFC00
07FFFE00
06000600
0E000600
0C000700
0C000300
18000300
18000180
18000180
FFC03FF0
FFC03FF0
ENDCHAR
STARTCHAR 0201
ENCODING 513
SWIDTH 600 0
DWIDTH 30 0
BBX 23 34 4 -1
BITMAP
0C1800
0E1C00
070E00
038700
01C380
00E1C0
0060C0
000000
000000
000000
000000
000000
07FF00
1FFF80
1001C0
0000E0
000060
000060
000060
000060
03FE60
0FFFE0
3E00E0
700060
600060
C00060
C00060
C00060
C000E0
E001E0
600760
781E7E
1FF87E
0FE000
ENDCHAR
STARTCHAR 0202
ENCODING 514
SWIDTH 600 0
DWIDTH 30 0
BBX 28 35 1 0
BITMAP
00080000
00FF0000
01FFC000
0380E000
07006000
06006000
00000000
0FFF0000
0FFF0000
001B0000
00198000
00318000
0031C000
0030C000
0060C000
0060E000
00E06000
00C06000
00C03000
01C03000
01803800
01801800
03001800
03001C00
07FFFC00
07FFFE00
06000600
0E000600
0C000700
0C000300
18000300
18000180
18000180
FFC03FF0
FFC03FF0
ENDCHAR
STARTCHAR 0203
ENCODING 515
SWIDTH 600 0
DWIDTH 30 0
BBX 23 30 4 -1
BITMAP
01FE00
07FF00
0F0380
0C01C0
0C00C0
000000
000000
000000
07FF00
1FFF80
1001C0
0000E0
000060
000060
000060
000060
03FE60
0FFFE0
3E00E0
700060
600060
C00060
C00060
C00060
C000E0
E001E0
600760
781E7E
1FF87E
0FE000
ENDCHAR
STARTCHAR 0204
ENCODING 516
SWIDTH 600 0
DWIDTH 30 0
BBX 24 39 2 0
BITMAP
103000
183800
0E1C00
070E00
038700
01C380
00C180
000000
000000
000000
000000
FFFFFE
FFFFFE
0C0006
0C0006
0C0006
0C0006
0C0006
0C0006
0C0000
0C0300
0C0300
0C0300
0FFF00
0FFF00
0C0300
0C0300
0C0300
0C0000
0C0000
0C0003
0C0003
0C0003
0C0003
0C0003
0C0003
0C0003
FFFFFF
FFFFFF
ENDCHAR
STARTCHAR 0205
ENCODING 517
SWIDTH 600 0
DWIDTH 30 0
BBX 23 33 3 -1
BITMAP
306000
387000
1C3800
0E1C00
070E00
038700
018300
000000
000000
000000
000000
01FF80
07FFC0
1E00F0
180038
300018
70001C
60000C
E00006
C00006
FFFFFE
FFFFFE
C00000
C00000
600000
600000
700000
300000
180006
0E001E
0780F8
03FFE0
007F00
ENDCHAR
STARTCHAR 0206
ENCODING 518
SWIDTH 600 0
DWIDTH 30 0
BBX 24 35 2 0
BITMAP
000800
00FF80
01FFC0
0380E0
070060
060060
000000
FFFFFE
FFFFFE
0C0006
0C0006
0C0006
0C0006
0C0006
0C0006
0C0000
0C0300
0C0300
0C0300
0FFF00
0FFF00
0C0300
0C0300
0C0300
0C0000
0C0000
0C0003
0C0003
0C0003
0C0003
0C0003
0C0003
0C0003
FFFFFF
FFFFFF
ENDCHAR
STARTCHAR 0207
ENCODING 519
SWIDTH 600 0
DWIDTH 30 0
BBX 23 30 3 -1
BITMAP
003C00
01FF00
03C7C0
0700C0
0600E0
060060
000000
000000
01FF80
07FFC0
1E00F0
180038
300018
70001C
60000C
E00006
C00006
FFFFFE
FFFFFE
C00000
C00000
600000
600000
700000
300000
180006
0E001E
0780F8
03FFE0
007F00
ENDCHAR
STARTCHAR 0208
ENCODING 520
SWIDTH 600 0
DWIDTH 30 0
BBX 19 39 5 0
BITMAP
C08000
E1C000
70E000
387000
1C3800
0E1C00
070600
000000
000000
000000
000000
7FFFE0
7FFFE0
006000
006000
006000
006000
006000
006000
006000
006000
006000
006000
006000
006000
006000
006000
006000
006000
006000
006000
006000
006000
006000
006000
006000
006000
7FFFE0
7FFFE0
ENDCHAR
STARTCHAR 0209
ENCODING 521
SWIDTH 600 0
DWIDTH 30 0
BBX 20 32 5 0
BITMAP
C18000
E0E000
387000
1C3800
0E1C00
070E00
020600
000000
000000
000000
000000
3FE000
3FE000
006000
006000
006000
006000
006000
006000
006000
006000
006000
006000
006000
006000
006000
006000
006000
006000
006000
FFFFF0
FFFFF0
ENDCHAR
STARTCHAR 020A
ENCODING 522
SWIDTH 600 0
DWIDTH 30 0
BBX 18 35 6 0
BITMAP
004000
07F800
1FFE00
1C0700
380300
300300
000000
FFFFC0
FFFFC0
00C000
00C000
00C000
00C000
00C000
00C000
00C000
00C000
00C000
00C000
00C000
00C000
00C000
00C000
00C000
00C000
00C000
00C000
00C000
00C000
00C000
00C000
00C000
00C000
FFFFC0
FFFFC0
ENDCHAR
STARTCHAR 020B
ENCODING 523
SWIDTH 600 0
DWIDTH 30 0
BBX 20 29 5 0
BITMAP
00F000
07FE00
0F0F00
0C0380
180180
180180
000000
000000
3FE000
3FE000
006000
006000
006000
006000
006000
006000
006000
006000
006000
006000
006000
006000
006000
006000
006000
006000
006000
FFFFF0
FFFFF0
ENDCHAR
STARTCHAR 020C
ENCODING 524
SWIDTH 600 0
DWIDTH 30 0
BBX 24 40 3 -1
BITMAP
306000
383000
1C1800
060E00
038700
018380
00C180
000000
000000
000000
000000
00FF80
03FFC0
0700E0
0E0070
1C0038
38001C
30000C
70000E
600006
600006
C00003
C00003
C00003
C00003
C00003
C00003
C00003
C00003
E00007
600006
600006
70000E
30000C
180018
1C0038
0E0070
0781E0
01FF80
007E00
ENDCHAR
STARTCHAR 020D
ENCODING 525
SWIDTH 600 0
DWIDTH 30 0
BBX 22 33 4 -1
BITMAP
70E000
387000
1C3800
0E1C00
070E00
038700
018300
000000
000000
000000
000000
03FF00
07FF80
0E01E0
180060
300030
700038
600018
E0001C
C0000C
C0000C
C0000C
C0000C
C0000C
C0000C
600018
600018
700038
380070
1C00E0
0F03C0
07FF80
00FC00
ENDCHAR
STARTCHAR 020E
ENCODING 526
SWIDTH 600 0
DWIDTH 30 0
BBX 24 36 3 -1
BITMAP
001800
00FF80
03E7C0
0300E0
060060
060060
000000
00FF80
03FFC0
0700E0
0E0070
1C0038
38001C
30000C
70000E
600006
600006
C00003
C00003
C00003
C00003
C00003
C00003
C00003
C00003
E00007
600006
600006
70000E
30000C
180018
1C0038
0E0070
0781E0
01FF80
007E00
ENDCHAR
STARTCHAR 020F
ENCODING 527
SWIDTH 600 0
DWIDTH 30 0
BBX 22 30 4 -1
BITMAP
007800
01FF00
078780
0601C0
0C00C0
0C00C0
000000
000000
03FF00
07FF80
0E01E0
180060
300030
700038
600018
E0001C
C0000C
C0000C
C0000C
C0000C
C0000C
C0000C
600018
600018
700038
380070
1C00E0
0F03C0
07FF80
00FC00
ENDCHAR
STARTCHAR 0210
ENCODING 528
SWIDTH 600 0
DWIDTH 30 0
BBX 27 39 2 0
BITMAP
C1800000
E1C00000
70E00000
38700000
1C380000
0E1C0000
060C0000
00000000
00000000
00000000
00000000
FFFF8000
FFFFE000
0C007800
0C001C00
0C000C00
0C000E00
0C000600
0C000600
0C000600
0C000E00
0C000C00
0C003800
0C00F000
0FFFE000
0FFF0000
0C038000
0C01C000
0C00E000
0C007000
0C003800
0C001800
0C001C00
0C000C00
0C000E00
0C000600
0C000300
FFE003E0
FFE001E0
ENDCHAR
STARTCHAR 0211
ENCODING 529
SWIDTH 600 0
DWIDTH 30 0
BBX 23 32 4 0
BITMAP
306000
387000
1C3800
0E1C00
070E00
038700
018300
000000
000000
000000
000000
7F03F8
7F0FFC
031C0E
033804
037000
03E000
038000
030000
030000
030000
030000
030000
030000
030000
030000
030000
030000
030000
030000
FFFFC0
FFFFC0
ENDCHAR
STARTCHAR 0212
ENCODING 530
SWIDTH 600 0
DWIDTH 30 0
BBX 27 34 2 1
BITMAP
01FF0000
03FF8000
0701C000
0600E000
06006000
00000000
FFFF8000
FFFFE000
0C007800
0C001C00
0C000C00
0C000E00
0C000600
0C000600
0C000600
0C000E00
0C000C00
0C003800
0C00F000
0FFFE000
0FFF0000
0C038000
0C01C000
0C00E000
0C007000
0C003800
0C001800
0C001C00
0C000C00
0C000E00
0C000600
0C000300
FFE003E0
FFE001E0
ENDCHAR
STARTCHAR 0213
ENCODING 531
SWIDTH 600 0
DWIDTH 30 0
BBX 23 29 4 0
BITMAP
003C00
01FF00
03C7C0
0700C0
060060
060060
000000
000000
7F03F8
7F0FFC
031C0E
033804
037000
03E000
038000
030000
030000
030000
030000
030000
030000
030000
030000
030000
030000
030000
030000
FFFFC0
FFFFC0
ENDCHAR
STARTCHAR 0214
ENCODING 532
SWIDTH 600 0
DWIDTH 30 0
BBX 26 40 2 -1
BITMAP
18300000
0C180000
060E0000
03870000
01C38000
00E1C000
0060C000
00000000
00000000
00000000
00000000
FFC0FFC0
FFC0FFC0
18000600
18000600
18000600
18000600
18000600
18000600
18000600
18000600
18000600
18000600
18000600
18000600
18000600
18000600
18000600
18000600
18000600
18000600
18000600
18000600
0C000C00
0C000C00
06001800
07003800
03C0F000
00FFC000
003F0000
ENDCHAR
STARTCHAR 0215
ENCODING 533
SWIDTH 600 0
DWIDTH 30 0
BBX 25 33 2 -1
BITMAP
30600000
38700000
1C380000
0E1C0000
070E0000
03830000
01810000
00000000
00000000
00000000
00000000
FC01FC00
FC01FC00
0C000C00
0C000C00
0C000C00
0C000C00
0C000C00
0C000C00
0C000C00
0C000C00
0C000C00
0C000C00
0C000C00
0C000C00
0C000C00
0C000C00
0C001C00
0E003C00
0600EC00
0783CF80
03FF0F80
00FC0000
ENDCHAR
STARTCHAR 0216
ENCODING 534
SWIDTH 600 0
DWIDTH 30 0
BBX 26 36 2 -1
BITMAP
000C0000
007FC000
01F3E000
01C07000
03803000
03003000
00000000
FFC0FFC0
FFC0FFC0
18000600
18000600
18000600
18000600
18000600
18000600
18000600
18000600
18000600
18000600
18000600
18000600
18000600
18000600
18000600
18000600
18000600
18000600
18000600
18000600
0C000C00
0C000C00
06001800
07003800
03C0F000
00FFC000
003F0000
ENDCHAR
STARTCHAR 0217
ENCODING 535
SWIDTH 600 0
DWIDTH 30 0
BBX 25 30 2 -1
BITMAP
003C0000
01FF8000
03C3C000
0700E000
06006000
06006000
00000000
00000000
FC01FC00
FC01FC00
0C000C00
0C000C00
0C000C00
0C000C00
0C000C00
0C000C00
0C000C00
0C000C00
0C000C00
0C000C00
0C000C00
0C000C00
0C000C00
0C000C00
0C001C00
0E003C00
0600EC00
0783CF80
03FF0F80
00FC0000
ENDCHAR
STARTCHAR 0218
ENCODING 536
SWIDTH 600 0
DWIDTH 30 0
BBX 20 38 5 -9
BITMAP
07FC60
0FFF60
1C03E0
3801E0
7000E0
600060
600060
600060
600000
700000
300000
3C0000
1F8000
03F800
007F00
0003C0
0000E0
000060
000030
000030
C00030
C00030
C00030
E00070
F000E0
F801C0
DE0780
CFFF00
01FC00
000000
000000
00E000
01C000
01C000
018000
038000
030000
020000
ENDCHAR
STARTCHAR 0219
ENCODING 537
SWIDTH 600 0
DWIDTH 30 0
BBX 20 31 5 -9
BITMAP
07FE60
1FFFE0
3801E0
7000E0
600060
600060
600000
380000
1F0000
07FC00
007F80
0003C0
0000E0
000070
400030
C00030
C00030
E00070
F000E0
FC07C0
CFFF80
03FC00
000000
000000
00E000
01C000
01C000
018000
038000
030000
020000
ENDCHAR
STARTCHAR 021A
ENCODING 538
SWIDTH 600 0
DWIDTH 30 0
BBX 22 38 4 -10
BITMAP
FFFFFC
FFFFFC
C0300C
C0300C
C0300C
C0300C
C0300C
003000
003000
003000
003000
003000
003000
003000
003000
003000
003000
003000
003000
003000
003000
003000
003000
003000
003000
003000
0FFFC0
0FFFC0
000000
000000
000000
007000
00E000
00E000
00C000
01C000
018000
010000
ENDCHAR
STARTCHAR 021B
ENCODING 539
SWIDTH 600 0
DWIDTH 30 0
BBX 23 38 2 -10
BITMAP
060000
060000
060000
060000
060000
060000
060000
FFFFE0
FFFFE0
060000
060000
060000
060000
060000
060000
060000
060000
060000
060000
060000
060000
060000
060000
060000
060000
03000E
03C0FC
01FFF0
007F80
000000
000000
001C00
003800
003800
003000
007000
006000
004000
ENDCHAR
STARTCHAR 021C
ENCODING 540
SWIDTH 600 0
DWIDTH 30 0
BBX 19 29 6 0
BITMAP
C7FC00
DFFE00
F80700
F00380
E001C0
C000C0
C000C0
C000C0
0000C0
0001C0
000180
000780
000E00
003E00
007F80
01E1C0
0180E0
000060
000060
000060
000060
000060
0000C0
0001C0
000380
001F00
0FFC00
FFF000
F80000
ENDCHAR
STARTCHAR 021D
ENCODING 541
SWIDTH 600 0
DWIDTH 30 0
BBX 19 27 6 -5
BITMAP
CFFC00
FFFF00
F00380
E001C0
C000C0
C000C0
0000C0
000180
000780
001F00
007F80
00F1C0
03C0E0
070060
000060
000060
000060
0000E0
0001C0
000780
000F00
003C00
007800
01E000
078000
0F0000
0C0000
ENDCHAR
STARTCHAR 021E
ENCODING 542
SWIDTH 600 0
DWIDTH 30 0
BBX 24 38 3 0
BITMAP
060060
0700E0
03C1C0
00E380
007700
003E00
001800
000000
000000
000000
7F81FE
7F81FE
180018
180018
180018
180018
180018
180018
180018
180018
180018
180018
1FFFF8
1FFFF8
180018
180018
180018
180018
180018
180018
180018
180018
180018
180018
180018
180018
FF81FF
FF81FF
ENDCHAR
STARTCHAR 021F
ENCODING 543
SWIDTH 600 0
DWIDTH 30 0
BBX 25 39 2 0
BITMAP
03003000
03C07000
00E1E000
00738000
003F0000
001E0000
000C0000
00000000
00000000
FC000000
FC000000
0C000000
0C000000
0C000000
0C000000
0C000000
0C000000
0C000000
0C3FC000
0CFFF000
0DC03800
0F801800
0F001C00
0E000C00
0C000C00
0C000C00
0C000C00
0C000C00
0C000C00
0C000C00
0C000C00
0C000C00
0C000C00
0C000C00
0C000C00
0C000C00
0C000C00
7F807F80
7F807F80
ENDCHAR
STARTCHAR 0220
ENCODING 544
SWIDTH 600 0
DWIDTH 30 0
BBX 27 37 1 -8
BITMAP
7C3FE000
7CFFF000
0DE03800
0F801C00
0F000C00
0E000E00
0C000600
0C000600
0C000300
0C000300
0C000300
0C000300
0C000300
0C000300
0C000300
0C000300
0C000300
0C000300
0C000300
0C000300
0C000300
0C000300
0C000300
0C000300
0C000300
0C000300
FF800300
FF800300
00000300
00000300
00000300
00000300
00000300
00000300
00000300
00001FE0
00001FE0
ENDCHAR
STARTCHAR 0224
ENCODING 548
SWIDTH 600 0
DWIDTH 30 0
BBX 19 38 6 -10
BITMAP
FFFF80
FFFF80
C00080
C00180
C00300
C00600
C00600
C00C00
C01800
001000
003000
006000
004000
00C000
018000
010000
030000
060000
040060
080060
180060
300060
200060
600060
C00060
800060
FFFFE0
FFFFE0
000060
000060
000060
000060
000060
0000E0
0001C0
00C380
00FF00
007E00
ENDCHAR
STARTCHAR 0225
ENCODING 549
SWIDTH 600 0
DWIDTH 30 0
BBX 18 31 6 -10
BITMAP
FFFF80
FFFF80
C00300
C00700
C00E00
C00C00
001800
003000
006000
00C000
01C000
038000
030000
060000
0C0000
1800C0
3000C0
7000C0
6000C0
FFFFC0
FFFFC0
0000C0
0000C0
0000C0
0000C0
0000C0
0001C0
000380
018700
01FE00
00FC00
ENDCHAR
STARTCHAR 0226
ENCODING 550
SWIDTH 600 0
DWIDTH 30 0
BBX 28 36 1 0
BITMAP
00060000
000F0000
000F8000
000F8000
000F0000
00000000
00000000
00000000
0FFF0000
0FFF0000
001B0000
00198000
00318000
0031C000
0030C000
0060C000
0060E000
00E06000
00C06000
00C03000
01C03000
01803800
01801800
03001800
03001C00
07FFFC00
07FFFE00
06000600
0E000600
0C000700
0C000300
18000300
18000180
18000180
FFC03FF0
FFC03FF0
ENDCHAR
STARTCHAR 0227
ENCODING 551
SWIDTH 600 0
DWIDTH 30 0
BBX 23 31 4 -1
BITMAP
003800
007C00
007C00
007C00
003800
000000
000000
000000
000000
07FF00
1FFF80
1001C0
0000E0
000060
000060
000060
000060
03FE60
0FFFE0
3E00E0
700060
600060
C00060
C00060
C00060
C000E0
E001E0
600760
781E7E
1FF87E
0FE000
ENDCHAR
STARTCHAR 0228
ENCODING 552
SWIDTH 600 0
DWIDTH 30 0
BBX 24 37 2 -9
BITMAP
FFFFFE
FFFFFE
0C0006
0C0006
0C0006
0C0006
0C0006
0C0006
0C0000
0C0600
0C0600
0C0600
0FFE00
0FFE00
0C0600
0C0600
0C0600
0C0000
0C0000
0C0003
0C0003
0C0003
0C0003
0C0003
0C0003
0C0003
FFFFFF
FFFFFF
001800
001800
001C00
001F00
000300
000300
00C700
00FE00
003C00
ENDCHAR
STARTCHAR 0229
ENCODING 553
SWIDTH 600 0
DWIDTH 30 0
BBX 23 30 4 -8
BITMAP
03FF00
0FFFC0
1C01E0
380070
300038
600018
40001C
C0000C
C0000C
FFFFFC
FFFFFE
C00000
C00000
C00000
600000
600000
300000
38000C
1C003C
0F80F8
03FFE0
00FF00
003000
003000
003800
003E00
000600
018600
01FE00
007800
ENDCHAR
STARTCHAR 022A
ENCODING 554
SWIDTH 600 0
DWIDTH 30 0
BBX 24 41 3 -1
BITMAP
03FFE0
07FFE0
000000
000000
0700E0
0F81F0
0F81F0
0F81F0
0700E0
000000
000000
000000
00FF80
03FFC0
0700E0
0E0070
1C0038
38001C
30000C
70000E
600006
600006
C00003
C00003
C00003
C00003
C00003
C00003
C00003
C00003
E00007
600006
600006
70000E
30000C
180018
1C0038
0E0070
0781E0
01FF80
007E00
ENDCHAR
STARTCHAR 022B
ENCODING 555
SWIDTH 600 0
DWIDTH 30 0
BBX 22 35 4 -1
BITMAP
0FFFC0
0FFFC0
000000
000000
0E01C0
1F03E0
1F03E0
1F03E0
0E01C0
000000
000000
000000
000000
03FF00
07FF80
0E01E0
180060
300030
700038
600018
E0001C
C0000C
C0000C
C0000C
C0000C
C0000C
C0000C
600018
600018
700038
380070
1C00E0
0F03C0
07FF80
00FC00
ENDCHAR
STARTCHAR 022C
ENCODING 556
SWIDTH 600 0
DWIDTH 30 0
BBX 24 41 3 -1
BITMAP
03FFE0
07FFE0
000000
000000
000000
01E020
07F8E0
0E3FC0
0C0F80
000000
000000
000000
00FF80
03FFC0
0700E0
0E0070
1C0038
38001C
30000C
70000E
600006
600006
C00003
C00003
C00003
C00003
C00003
C00003
C00003
C00003
E00007
600006
600006
70000E
30000C
180018
1C0038
0E0070
0781E0
01FF80
007E00
ENDCHAR
STARTCHAR 022D
ENCODING 557
SWIDTH 600 0
DWIDTH 30 0
BBX 22 35 4 -1
BITMAP
0FFFC0
0FFFC0
000000
000000
000000
038040
0FF0C0
1E7FC0
181F00
000000
000000
000000
000000
03FF00
07FF80
0E01E0
180060
300030
700038
600018
E0001C
C0000C
C0000C
C0000C
C0000C
C0000C
C0000C
600018
600018
700038
380070
1C00E0
0F03C0
07FF80
00FC00
ENDCHAR
STARTCHAR 022E
ENCODING 558
SWIDTH 600 0
DWIDTH 30 0
BBX 24 37 3 -1
BITMAP
001C00
003E00
003E00
003E00
001C00
000000
000000
000000
00FF80
03FFC0
0700E0
0E0070
1C0038
38001C
30000C
70000E
600006
600006
C00003
C00003
C00003
C00003
C00003
C00003
C00003
C00003
E00007
600006
600006
70000E
30000C
180018
1C0038
0E0070
0781E0
01FF80
007E00
ENDCHAR
STARTCHAR 022F
ENCODING 559
SWIDTH 600 0
DWIDTH 30 0
BBX 22 31 4 -1
BITMAP
003800
007C00
007C00
007C00
003800
000000
000000
000000
000000
03FF00
07FF80
0E01E0
180060
300030
700038
600018
E0001C
C0000C
C0000C
C0000C
C0000C
C0000C
C0000C
600018
600018
700038
380070
1C00E0
0F03C0
07FF80
00FC00
ENDCHAR
STARTCHAR 0230
ENCODING 560
SWIDTH 600 0
DWIDTH 30 0
BBX 24 41 3 -1
BITMAP
03FFE0
07FFE0
000000
000000
001C00
003E00
003E00
003E00
001C00
000000
000000
000000
00FF80
03FFC0
0700E0
0E0070
1C0038
38001C
30000C
70000E
600006
600006
C00003
C00003
C00003
C00003
C00003
C00003
C00003
C00003
E00007
600006
600006
70000E
30000C
180018
1C0038
0E0070
0781E0
01FF80
007E00
ENDCHAR
STARTCHAR 0231
ENCODING 561
SWIDTH 600 0
DWIDTH 30 0
BBX 22 35 4 -1
BITMAP
0FFFC0
07FFC0
000000
000000
003800
007C00
007C00
007C00
003800
000000
000000
000000
000000
03FF00
07FF80
0E01E0
180060
300030
700038
600018
E0001C
C0000C
C0000C
C0000C
C0000C
C0000C
C0000C
600018
600018
700038
380070
1C00E0
0F03C0
07FF80
00FC00
ENDCHAR
STARTCHAR 0232
ENCODING 562
SWIDTH 600 0
DWIDTH 30 0
BBX 24 33 3 0
BITMAP
07FFE0
07FFE0
000000
000000
000000
FF00FF
FF00FF
38001C
180018
0C0030
0E0070
070060
0300C0
0381C0
01C180
00C300
00E700
007600
003C00
003C00
001800
001800
001800
001800
001800
001800
001800
001800
001800
001800
001800
07FFE0
07FFE0
ENDCHAR
STARTCHAR 0233
ENCODING 563
SWIDTH 600 0
DWIDTH 30 0
BBX 24 35 3 -9
BITMAP
07FFE0
07FFE0
000000
000000
000000
FF00FF
FF00FF
30000C
38000C
180018
1C0018
0C0030
0E0030
060060
070060
0300C0
0380C0
018180
01C180
00C300
00E300
006600
007600
003C00
003C00
001800
001800
003000
003000
006000
006000
00C000
00C000
FFFC00
FFFC00
ENDCHAR
STARTCHAR 0237
ENCODING 567
SWIDTH 600 0
DWIDTH 30 0
BBX 15 30 6 -9
BITMAP
FFFE
FFFE
0006
0006
0006
0006
0006
0006
0006
0006
0006
0006
0006
0006
0006
0006
0006
0006
0006
0006
0006
0006
0006
0006
0006
000C
001C
0038
FFF0
FFC0
ENDCHAR
STARTCHAR 0250
ENCODING 592
SWIDTH 600 0
DWIDTH 30 0
BBX 23 23 4 -1
BITMAP
000F80
FC3FF0
FCF078
0DC01C
0F000C
0E000E
0C0006
0C0006
0C000C
0C000C
0C003C
0C00F8
0FFFE0
0DFF80
0C0000
0C0000
0C0000
0C0000
0C0000
0E0000
07E3F0
01FFE0
003C00
ENDCHAR
STARTCHAR 0251
ENCODING 593
SWIDTH 600 0
DWIDTH 30 0
BBX 26 22 3 0
BITMAP
03FE0000
07FF8C00
1E01CC00
18006C00
30003C00
70003C00
60001C00
E0001C00
C0000C00
C0000C00
C0000C00
C0000C00
C0000C00
C0000C00
60001C00
60001C00
30003C00
38006C00
1C00EC00
0F038FC0
07FF0FC0
00FC0000
ENDCHAR
STARTCHAR 0252
ENCODING 594
SWIDTH 600 0
DWIDTH 30 0
BBX 26 23 2 -1
BITMAP
000F8000
FC3FF000
FCF07800
0DC01C00
0F800600
0F000300
0E000380
0E000180
0C000180
0C0001C0
0C0000C0
0C0000C0
0C0000C0
0C0001C0
0C000180
0E000180
0E000380
0F000700
0F800E00
0DC01C00
0CF8F800
003FF000
00038000
ENDCHAR
STARTCHAR 0253
ENCODING 595
SWIDTH 600 0
DWIDTH 30 0
BBX 26 31 1 0
BITMAP
01FE0000
03FE0000
07000000
06000000
0E000000
0C000000
0C000000
0C000000
0C000000
0C1FF000
0C7FF800
0CE01E00
0D800700
0F000300
0F000380
0E000180
0E0001C0
0C0000C0
0C0000C0
0C0000C0
0C0000C0
0C0000C0
0C0000C0
0E000180
0E000180
0F000300
0D800700
0DC00E00
FCF03C00
FC3FF800
000FC000
ENDCHAR
STARTCHAR 0254
ENCODING 596
SWIDTH 600 0
DWIDTH 30 0
BBX 23 22 4 0
BITMAP
63FF00
6FFFC0
7E00E0
780030
700018
60001C
60000C
00000E
000006
000006
000006
000006
000006
000006
00000E
00000C
C0001C
E00038
780070
3E03E0
0FFFC0
01FE00
ENDCHAR
STARTCHAR 0255
ENCODING 597
SWIDTH 600 0
DWIDTH 30 0
BBX 23 27 4 -5
BITMAP
03FF8C
0FFFEC
1E00FC
38003C
30001C
60000C
60000C
C00000
C00000
C00000
C001F0
C003FC
C0070C
E00E06
600C06
600C06
300C06
380C0E
1C0C1C
0F0CF8
07FFF0
00FF80
000C00
000C00
000C00
000C00
000C00
ENDCHAR
STARTCHAR 0256
ENCODING 598
SWIDTH 600 0
DWIDTH 30 0
BBX 31 40 3 -10
BITMAP
0000FC00
0000FC00
00000C00
00000C00
00000C00
00000C00
00000C00
00000C00
00000C00
03FE0C00
07FF8C00
1E01CC00
18006C00
30003C00
70003C00
60001C00
E0001C00
C0000C00
C0000C00
C0000C00
C0000C00
C0000C00
C0000C00
60001C00
60001C00
70003C00
38006C00
1C00EC00
0F03CC00
07FF0C00
00FC0C00
00000C00
00000C00
00000C00
00000C00
00000600
00000700
00000386
000001FE
000000FC
ENDCHAR
STARTCHAR 0257
ENCODING 599
SWIDTH 600 0
DWIDTH 30 0
BBX 31 31 3 0
BITMAP
000001FE
000003FE
00000700
00000600
00000E00
00000C00
00000C00
00000C00
00000C00
03FE0C00
07FF8C00
1E01CC00
18006C00
30003C00
70003C00
60001C00
E0001C00
C0000C00
C0000C00
C0000C00
C0000C00
C0000C00
C0000C00
60001C00
60001C00
30003C00
38006C00
1C00EC00
0F038FC0
07FF0FC0
00FC0000
ENDCHAR
STARTCHAR 0258
ENCODING 600
SWIDTH 600 0
DWIDTH 30 0
BBX 23 22 3 0
BITMAP
01FF80
07FFC0
0E00F0
1C0038
300018
70000C
60000C
600006
C00006
FFFFFE
FFFFFE
000006
000006
00000E
00000C
00001C
000018
C00030
7000F0
3E03C0
0FFF80
01FE00
ENDCHAR
STARTCHAR 0259
ENCODING 601
SWIDTH 600 0
DWIDTH 30 0
BBX 23 23 3 -1
BITMAP
00F800
0FFF00
3F07C0
7800E0
E00070
000038
00001C
00000C
00000C
000006
000006
FFFFFE
FFFFFE
C00006
E00006
60000C
60000C
30001C
380038
1E0070
0F83E0
03FF80
007C00
ENDCHAR
STARTCHAR 025A
ENCODING 602
SWIDTH 600 0
DWIDTH 30 0
BBX 32 22 3 0
BITMAP
07FF0000
1FFFC000
7C01E000
F0007000
40003B80
00001F80
00001FC0
00007CC0
0001FEE0
0007C67F
001F061E
007C0600
01F00600
07C00600
1F000E00
7C000C00
30001C00
38003800
1C007000
0F01E000
03FFC000
00FE0000
ENDCHAR
STARTCHAR 025B
ENCODING 603
SWIDTH 600 0
DWIDTH 30 0
BBX 20 22 5 0
BITMAP
07FE60
1FFFE0
3801E0
7000E0
600060
600060
600000
300000
3C0000
1FFE00
1FFE00
3C0000
700000
E00000
C00000
C00030
C00030
E00070
7000F0
3C03F0
1FFF30
03FC00
ENDCHAR
STARTCHAR 025C
ENCODING 604
SWIDTH 600 0
DWIDTH 30 0
BBX 20 22 5 0
BITMAP
67FE00
7FFF80
7801C0
7000E0
600060
600060
000060
0000E0
0003C0
07FF80
07FF80
0003C0
0000E0
000070
000030
C00030
C00030
E00070
F000E0
FC03C0
CFFF80
03FC00
ENDCHAR
STARTCHAR 025D
ENCODING 605
SWIDTH 600 0
DWIDTH 30 0
BBX 28 22 5 0
BITMAP
67FE0000
7FFF9800
7801FC00
7000FC00
60006E00
60006700
000063F0
0000C1E0
0003C000
07FF8000
07FF8000
0003C000
0000E000
00007000
00003000
C0003000
C0003000
E0007000
F000E000
FC03C000
CFFF8000
03FC0000
ENDCHAR
STARTCHAR 025E
ENCODING 606
SWIDTH 600 0
DWIDTH 30 0
BBX 21 22 4 0
BITMAP
03FF00
0FFFC0
1E00E0
380070
700030
700030
600030
E00060
E001E0
E1FFC0
E1FFC0
E001E0
E00070
E00038
E00018
600018
700018
380038
3C0070
1F01E0
0FFFC0
01FE00
ENDCHAR
STARTCHAR 025F
ENCODING 607
SWIDTH 600 0
DWIDTH 30 0
BBX 19 30 8 -9
BITMAP
FFFE00
FFFE00
000600
000600
000600
000600
000600
000600
000600
000600
000600
000600
000600
000600
000600
000600
000600
000600
000600
07FFE0
07FFE0
000600
000600
000600
000600
000E00
001C00
003800
FFF000
FFC000
ENDCHAR
STARTCHAR 0260
ENCODING 608
SWIDTH 600 0
DWIDTH 30 0
BBX 30 39 3 -8
BITMAP
000003FC
000007FC
00000E00
00000C00
00001C00
00001800
00001800
00001800
00001800
03FE1800
0FFF1800
1E01D800
3800D800
70007800
60003800
E0003800
C0001800
C0001800
C0001800
C0001800
C0001800
C0001800
60003800
70007800
30007800
1C01D800
0F079800
07FF1800
01FC1800
00001800
00001800
00001800
00001800
00003800
00003000
00007000
0001E000
03FFC000
03FF0000
ENDCHAR
STARTCHAR 0261
ENCODING 609
SWIDTH 600 0
DWIDTH 30 0
BBX 21 31 3 -8
BITMAP
000018
03FE18
0FFF18
1E01D8
3800D8
700078
600038
E00038
C00018
C00018
C00018
C00018
C00018
C00018
600038
700078
300078
1C01D8
0F0798
07FF18
01FC18
000018
000018
000018
000018
000038
000030
000070
0001E0
03FFC0
03FF00
ENDCHAR
STARTCHAR 0262
ENCODING 610
SWIDTH 600 0
DWIDTH 30 0
BBX 21 21 4 1
BITMAP
03FF30
0FFFF0
1C00F0
380070
700030
600000
E00000
C00000
C00000
C00000
C00000
C00000
C01FF8
C01FF8
C00030
600030
700030
380030
1C0070
0FFFF0
03FFC0
ENDCHAR
STARTCHAR 0263
ENCODING 611
SWIDTH 600 0
DWIDTH 30 0
BBX 24 31 3 -10
BITMAP
FF00FF
FF00FF
30000C
38001C
180018
1C0018
0C0030
0E0030
060060
070060
0300C0
0300C0
0181C0
018180
00C380
00C300
006700
006600
007E00
003C00
003C00
001800
003C00
003C00
003C00
006600
006600
006600
006600
007E00
003C00
ENDCHAR
STARTCHAR 0264
ENCODING 612
SWIDTH 600 0
DWIDTH 30 0
BBX 24 22 3 -1
BITMAP
FF00FF
FFC3FF
E0FF07
C03C03
C03C03
C03C03
C07E03
006600
00C300
00C300
00C300
01C180
018180
018180
018180
018180
018180
018180
01C380
00E700
007E00
003C00
ENDCHAR
STARTCHAR 0265
ENCODING 613
SWIDTH 600 0
DWIDTH 30 0
BBX 25 30 3 -9
BITMAP
FE00FE00
FF00FF00
18001800
18001800
18001800
18001800
18001800
18001800
18001800
18001800
18001800
18001800
18001800
18001800
18001800
18003800
18007800
1C00F800
0E01D800
07CF9800
03FE1800
00301800
00001800
00001800
00001800
00001800
00001800
00001800
00001F00
00001F80
ENDCHAR
STARTCHAR 0266
ENCODING 614
SWIDTH 600 0
DWIDTH 30 0
BBX 24 30 3 1
BITMAP
03FC00
07FC00
0E0000
0C0000
1C0000
180000
180000
180000
180000
187F80
19FFE0
1B8070
1F0030
1E0038
1C0018
180018
180018
180018
180018
180018
180018
180018
180018
180018
180018
180018
180018
180018
FF00FF
FF00FF
ENDCHAR
STARTCHAR 0267
ENCODING 615
SWIDTH 600 0
DWIDTH 30 0
BBX 21 40 3 -9
BITMAP
03FC00
07FC00
0E0000
0C0000
1C0000
180000
180000
180000
180000
187F80
19FFE0
1B8070
1F0030
1E0038
1C0018
180018
180018
180018
180018
180018
180018
180018
180018
180018
180018
180018
180018
180018
FF0018
FF0018
000018
000018
000018
000018
000018
000030
000070
0030E0
003FC0
001F80
ENDCHAR
STARTCHAR 0268
ENCODING 616
SWIDTH 600 0
DWIDTH 30 0
BBX 20 31 5 0
BITMAP
00E000
00E000
00E000
00E000
00E000
000000
000000
000000
000000
000000
3FE000
3FE000
006000
006000
006000
006000
006000
006000
006000
FFFFF0
FFFFF0
006000
006000
006000
006000
006000
006000
006000
006000
FFFFF0
FFFFF0
ENDCHAR
STARTCHAR 0269
ENCODING 617
SWIDTH 600 0
DWIDTH 30 0
BBX 16 22 9 0
BITMAP
7C00
FC00
7C00
0C00
0C00
0C00
0C00
0C00
0C00
0C00
0C00
0C00
0C00
0C00
0C00
0C00
0C00
0C00
0C00
0607
07FE
03FC
ENDCHAR
STARTCHAR 026A
ENCODING 618
SWIDTH 600 0
DWIDTH 30 0
BBX 16 21 7 0
BITMAP
FFFF
FFFF
0180
0180
0180
0180
0180
0180
0180
0180
0180
0180
0180
0180
0180
0180
0180
0180
0180
FFFF
FFFF
ENDCHAR
STARTCHAR 026B
ENCODING 619
SWIDTH 600 0
DWIDTH 30 0
BBX 20 30 5 0
BITMAP
3FE000
3FE000
006000
006000
006000
006000
006000
006000
006000
006000
006000
006000
006000
0F6000
3FE030
70E070
E078E0
C07FC0
006F00
006000
006000
006000
006000
006000
006000
006000
006000
006000
FFFFF0
FFFFF0
ENDCHAR
STARTCHAR 026C
ENCODING 620
SWIDTH 600 0
DWIDTH 30 0
BBX 20 30 5 0
BITMAP
3FE000
3FE000
006000
006000
006000
006000
006000
006000
0FE000
1FE000
38E000
306000
306000
306000
386000
1FFFF0
0FFFF0
006000
006000
006000
006000
006000
006000
006000
006000
006000
006000
006000
FFFFF0
FFFFF0
ENDCHAR
STARTCHAR 026D
ENCODING 621
SWIDTH 600 0
DWIDTH 30 0
BBX 18 40 7 -10
BITMAP
FF8000
FF8000
018000
018000
018000
018000
018000
018000
018000
018000
018000
018000
018000
018000
018000
018000
018000
018000
018000
018000
018000
018000
018000
018000
018000
018000
018000
018000
018000
018000
018000
018000
018000
018000
018000
00C000
00E000
0070C0
003FC0
001F80
ENDCHAR
STARTCHAR 026E
ENCODING 622
SWIDTH 600 0
DWIDTH 30 0
BBX 28 38 1 -8
BITMAP
3FC00000
3FC00000
00C00000
00C00000
00C00000
00C00000
00C00000
00C00000
00C00000
00FFFFF0
00FFFFF0
00C00380
00C00700
00C00E00
00C01800
00C07000
00C0E000
00C1FC00
00C3FE00
00C70700
00C60380
00C001C0
00C000C0
00C000E0
00C00060
00C00060
00C00060
00C00060
FFFF8060
FFFF8060
000000E0
000000C0
001800C0
001C01C0
000E0380
00078700
0003FE00
0000FC00
ENDCHAR
STARTCHAR 026F
ENCODING 623
SWIDTH 600 0
DWIDTH 30 0
BBX 29 22 0 -1
BITMAP
F81F07F8
F81F07F8
180300C0
180300C0
180300C0
180300C0
180300C0
180300C0
180300C0
180300C0
180300C0
180300C0
180300C0
180300C0
180300C0
180300C0
180300C0
1C0701C0
0C0D83C0
0F79EEF8
07F0FCF8
00C03800
ENDCHAR
STARTCHAR 0270
ENCODING 624
SWIDTH 600 0
DWIDTH 30 0
BBX 29 30 1 -9
BITMAP
F83E07F8
F83E07F8
180600C0
180600C0
180600C0
180600C0
180600C0
180600C0
180600C0
180600C0
180600C0
180600C0
180600C0
180600C0
180600C0
180600C0
180E01C0
181E03C0
0C3B07C0
0FF3FEC0
07E1FCC0
000000C0
000000C0
000000C0
000000C0
000000C0
000000C0
000000C0
000000F8
000000F8
ENDCHAR
STARTCHAR 0271
ENCODING 625
SWIDTH 600 0
DWIDTH 30 0
BBX 26 31 1 -9
BITMAP
F9F87F00
FBFCFF80
1F0DC180
1E0780C0
1C0700C0
180600C0
180600C0
180600C0
180600C0
180600C0
180600C0
180600C0
180600C0
180600C0
180600C0
180600C0
180600C0
180600C0
180600C0
FF07C0C0
FF07C0C0
000000C0
000000C0
000000C0
000000C0
000000C0
00000180
00000380
00018700
0001FE00
0000FC00
ENDCHAR
STARTCHAR 0272
ENCODING 626
SWIDTH 600 0
DWIDTH 30 0
BBX 30 31 -3 -9
BITMAP
03E1FE00
03E7FF80
006E01C0
007800C0
007000E0
00700060
00600060
00600060
00600060
00600060
00600060
00600060
00600060
00600060
00600060
00600060
00600060
00600060
00600060
006003FC
006003FC
00600000
00600000
00600000
00600000
00600000
00C00000
01C00000
C3800000
FF000000
7E000000
ENDCHAR
STARTCHAR 0273
ENCODING 627
SWIDTH 600 0
DWIDTH 30 0
BBX 31 31 2 -9
BITMAP
7C3FC000
7CFFF000
0DC03800
0F001800
0E000C00
0E000C00
0C000C00
0C000C00
0C000C00
0C000C00
0C000C00
0C000C00
0C000C00
0C000C00
0C000C00
0C000C00
0C000C00
0C000C00
0C000C00
FF800C00
FF800C00
00000C00
00000C00
00000C00
00000C00
00000C00
00000600
00000700
00000380
000001FE
000000FC
ENDCHAR
STARTCHAR 0274
ENCODING 628
SWIDTH 600 0
DWIDTH 30 0
BBX 23 21 3 0
BITMAP
FC01FE
FE01FE
1E0018
1B0018
1B8018
198018
18C018
186018
187018
183018
181818
180C18
180E18
180618
180318
180198
1801D8
1800D8
180078
7F8078
7F8038
ENDCHAR
STARTCHAR 0275
ENCODING 629
SWIDTH 600 0
DWIDTH 30 0
BBX 22 22 4 0
BITMAP
03FF00
07FF80
0E01C0
1C0060
300030
700038
600018
E0001C
C0000C
C0000C
FFFFFC
FFFFFC
C0000C
C0000C
60001C
600018
700038
380070
1C00E0
0F03C0
07FF80
00FC00
ENDCHAR
STARTCHAR 0276
ENCODING 630
SWIDTH 600 0
DWIDTH 30 0
BBX 28 21 1 0
BITMAP
01FFFFE0
07FFFFE0
1F030060
38030060
70030060
60030060
E0030060
C0030C60
C0030C60
C003FC00
C003FC00
C0030C00
C0030C00
E0030000
60030030
70030030
38030030
1C030030
0F830030
03FFFFF0
00FFFFF0
ENDCHAR
STARTCHAR 0277
ENCODING 631
SWIDTH 600 0
DWIDTH 30 0
BBX 26 25 2 -1
BITMAP
00040000
01FFE000
07FFF800
0F001C00
1C000E00
38000700
70000380
60000180
600001C0
C00000C0
C00C00C0
C00C00C0
C00C00C0
C00C00C0
C00C00C0
C00C00C0
C00C00C0
E00C01C0
600C0180
600C0180
300C0380
381E0700
1C3F8E00
0FF3FC00
07E0F000
ENDCHAR
STARTCHAR 0278
ENCODING 632
SWIDTH 600 0
DWIDTH 30 0
BBX 21 40 6 -10
BITMAP
006000
006000
006000
006000
006000
006000
006000
006000
006000
0FFF80
3FFFE0
7060F0
606030
C06018
C06018
C06018
C06018
C06018
C06018
C06018
C06018
C06018
C06018
C06018
C06018
C06018
606030
7860F0
3FFFE0
0FFF80
006000
006000
006000
006000
006000
006000
006000
006000
006000
006000
ENDCHAR
STARTCHAR 0279
ENCODING 633
SWIDTH 600 0
DWIDTH 30 0
BBX 22 22 5 -1
BITMAP
0FFFFC
0FFFFC
000300
000300
000300
000300
000300
000300
000300
000300
000300
000300
000300
000300
000700
000F00
001F00
007B00
C0E300
F7C3F8
7F03F8
0C0000
ENDCHAR
STARTCHAR 027A
ENCODING 634
SWIDTH 600 0
DWIDTH 30 0
BBX 22 31 5 -1
BITMAP
0FFFFC
0FFFFC
000300
000300
000300
000300
000300
000300
000300
000300
000300
000300
000300
000300
000300
000300
000300
000300
000300
000300
000300
000300
000300
000700
000F00
001F00
007B00
C0E300
F7C3F8
7F83F8
0C0000
ENDCHAR
STARTCHAR 027B
ENCODING 635
SWIDTH 600 0
DWIDTH 30 0
BBX 26 31 2 -10
BITMAP
07FFFE00
07FFFE00
00018000
00018000
00018000
00018000
00018000
00018000
00018000
00018000
00018000
00018000
00018000
00018000
00038000
000F8000
001D8000
40398000
E0718000
7FE18000
3F818000
00018000
00018000
00018000
00018000
00018000
0000C000
0000E000
00007000
00003FC0
00001F80
ENDCHAR
STARTCHAR 027C
ENCODING 636
SWIDTH 600 0
DWIDTH 30 0
BBX 23 30 4 -8
BITMAP
7F03F8
7F0FFC
031C0E
033804
037000
03E000
038000
030000
030000
030000
030000
030000
030000
030000
030000
030000
030000
030000
030000
030000
030000
030000
030000
030000
030000
030000
030000
030000
FFFFC0
FFFFC0
ENDCHAR
STARTCHAR 027D
ENCODING 637
SWIDTH 600 0
DWIDTH 30 0
BBX 22 31 5 -9
BITMAP
FE07F0
FE1FF8
06381C
067008
06E000
07C000
070000
060000
060000
060000
060000
060000
060000
060000
060000
060000
060000
060000
060000
060000
060000
060000
060000
060000
060000
060000
030000
038000
01C000
00FF00
007E00
ENDCHAR
STARTCHAR 027E
ENCODING 638
SWIDTH 600 0
DWIDTH 30 0
BBX 21 21 4 0
BITMAP
001FF8
007FF8
00E000
01C000
018000
030000
030000
030000
030000
030000
030000
030000
030000
030000
030000
030000
030000
030000
030000
FFFFC0
FFFFC0
ENDCHAR
STARTCHAR 027F
ENCODING 639
SWIDTH 600 0
DWIDTH 30 0
BBX 21 31 5 -10
BITMAP
FFC000
FFF000
003800
001C00
000C00
000600
000600
000600
000600
000600
000600
000600
000600
000600
000600
000600
000600
000600
000600
000600
000600
000600
000600
000600
000600
000600
000600
000600
000600
1FFFF8
1FFFF8
ENDCHAR
STARTCHAR 0280
ENCODING 640
SWIDTH 600 0
DWIDTH 30 0
BBX 24 21 3 0
BITMAP
FFFE00
FFFF80
1801E0
180060
180030
180030
180030
180070
1800E0
1803C0
1FFF00
1FFC00
180F00
180380
1801C0
1800E0
180070
180030
180018
FF801F
FF800F
ENDCHAR
STARTCHAR 0281
ENCODING 641
SWIDTH 600 0
DWIDTH 30 0
BBX 24 21 3 0
BITMAP
FF800F
FF801F
180018
180030
180070
1800E0
1801C0
180380
180F00
1FFC00
1FFF00
1803C0
1800E0
180070
180030
180030
180030
180060
1801E0
FFFF80
FFFE00
ENDCHAR
STARTCHAR 0282
ENCODING 642
SWIDTH 600 0
DWIDTH 30 0
BBX 20 31 5 -9
BITMAP
07FE60
1FFFE0
3801E0
7000E0
600060
600060
600000
380000
1F8000
07FE00
007F80
0003C0
0000E0
000070
000030
C00030
C00030
C00070
F000E0
FC07C0
CFFF80
C3FC00
C00000
C00000
C00000
C00000
E00000
700000
380000
1FE000
0FC000
ENDCHAR
STARTCHAR 0283
ENCODING 643
SWIDTH 600 0
DWIDTH 30 0
BBX 20 35 5 -4
BITMAP
000FF0
001FF0
003800
003000
007000
006000
006000
006000
006000
006000
006000
006000
006000
006000
006000
006000
006000
006000
006000
006000
006000
006000
006000
006000
006000
006000
006000
006000
006000
006000
00C000
01C000
C38000
FF0000
7E0000
ENDCHAR
STARTCHAR 0284
ENCODING 644
SWIDTH 600 0
DWIDTH 30 0
BBX 20 35 5 -4
BITMAP
000FF0
001FF0
003800
003000
007000
006000
006000
006000
006000
006000
006000
006000
006000
006000
006000
006000
006000
006000
006000
006000
006000
006000
006000
006000
006000
006000
006000
006000
1FFF80
1FFF80
00C000
01C000
838000
FF0000
7C0000
ENDCHAR
STARTCHAR 0285
ENCODING 645
SWIDTH 600 0
DWIDTH 30 0
BBX 20 35 5 -4
BITMAP
FF0000
7F8000
01C000
00C000
00E000
006000
006000
006000
006000
006000
006000
006000
006000
006000
006000
006000
006000
006000
006000
006000
006000
006000
006000
006000
006000
006000
006000
006000
006000
006000
003000
003800
001C30
000FF0
0007E0
ENDCHAR
STARTCHAR 0286
ENCODING 646
SWIDTH 600 0
DWIDTH 30 0
BBX 21 36 4 -5
BITMAP
000080
0007F8
000FF8
001C00
001800
003800
003000
003000
003000
003000
003000
003000
003000
003000
003000
003000
003000
003000
003000
003000
003000
003000
003000
003000
003000
003000
0C3000
3F3000
61B000
C0B000
C0F000
C0E000
C0E000
61C000
7F8000
1E0000
ENDCHAR
STARTCHAR 0287
ENCODING 647
SWIDTH 600 0
DWIDTH 30 0
BBX 22 28 3 -1
BITMAP
0FFC00
7FFE00
F00700
C00380
000180
000180
000180
000180
000180
000180
000180
000180
000180
000180
000180
000180
000180
000180
000180
000180
1FFFFC
0FFFF8
000180
000180
000180
000180
000180
000180
ENDCHAR
STARTCHAR 0288
ENCODING 648
SWIDTH 600 0
DWIDTH 30 0
BBX 23 38 2 -10
BITMAP
060000
060000
060000
060000
060000
060000
060000
FFFFE0
FFFFE0
060000
060000
060000
060000
060000
060000
060000
060000
060000
060000
060000
060000
060000
060000
060000
060000
060000
060000
060000
060000
060000
060000
060000
060000
060000
03000E
03C0FC
01FFF0
007F80
ENDCHAR
STARTCHAR 0289
ENCODING 649
SWIDTH 600 0
DWIDTH 30 0
BBX 25 22 2 -1
BITMAP
FC01FC00
FC01FC00
0C000C00
0C000C00
0C000C00
0C000C00
FFFFFF80
FFFFFF80
0C000C00
0C000C00
0C000C00
0C000C00
0C000C00
0C000C00
0C000C00
0C000C00
0C001C00
0E003C00
0600EC00
0783CF80
03FF0F80
00FC0000
ENDCHAR
STARTCHAR 028A
ENCODING 650
SWIDTH 600 0
DWIDTH 30 0
BBX 22 24 4 -1
BITMAP
7FCFF8
7FCFF8
03CF00
0FCFC0
1E01E0
380070
300030
700038
600018
E0001C
C0000C
C0000C
C0000C
C0000C
C0000C
C0000C
E0000C
600018
600018
300030
380070
1E01E0
0FFFC0
01FF00
ENDCHAR
STARTCHAR 028B
ENCODING 651
SWIDTH 600 0
DWIDTH 30 0
BBX 24 27 1 0
BITMAP
00000C
00000E
000006
000003
000003
000003
FFC003
FFC003
0C0006
0C0006
06000E
06000C
03000C
030018
038018
018030
01C030
00C070
00C060
006060
0060C0
0030C0
003180
003980
001B80
001F00
000F00
ENDCHAR
STARTCHAR 028C
ENCODING 652
SWIDTH 600 0
DWIDTH 30 0
BBX 26 21 2 0
BITMAP
001E0000
001E0000
00370000
00330000
00638000
00618000
00E1C000
00C0C000
00C0C000
01806000
01806000
03007000
03003000
07003800
06001800
0E001800
0C000C00
0C000C00
18000600
FFC0FFC0
FFC0FFC0
ENDCHAR
STARTCHAR 028D
ENCODING 653
SWIDTH 600 0
DWIDTH 30 0
BBX 26 21 2 0
BITMAP
03807000
03807000
07807800
07C0D800
06C0D800
06C0D800
06619800
0C618C00
0C618C00
0C330C00
0C330C00
0C330600
181E0600
181E0600
181E0600
180C0600
30000300
30000300
30000300
FE003FC0
FF003FC0
ENDCHAR
STARTCHAR 028E
ENCODING 654
SWIDTH 600 0
DWIDTH 30 0
BBX 24 30 3 0
BITMAP
003FFF
003FFF
000300
000300
000600
000600
000C00
000C00
001800
001800
003800
003C00
006C00
006600
00C600
00C300
018300
018180
030180
0300C0
0600C0
060060
0C0060
0C0030
180030
180018
380018
30000C
FE00FF
FF00FF
ENDCHAR
STARTCHAR 028F
ENCODING 655
SWIDTH 600 0
DWIDTH 30 0
BBX 22 21 4 0
BITMAP
FF03FC
FF03FC
180060
0C00C0
0E01C0
060180
030300
038700
018600
00CE00
00EC00
007800
007800
003000
003000
003000
003000
003000
003000
07FF80
07FF80
ENDCHAR
STARTCHAR 0290
ENCODING 656
SWIDTH 600 0
DWIDTH 30 0
BBX 27 31 6 -10
BITMAP
FFFF8000
FFFF8000
C0030000
C0070000
C00E0000
C00C0000
00180000
00300000
00600000
00C00000
01C00000
03800000
03000000
06000000
0C000000
1800C000
3000C000
7000C000
6000C000
FFFFC000
FFFFC000
0000C000
0000C000
0000C000
0000C000
0000C000
00006000
00007000
00003860
00001FE0
00000FC0
ENDCHAR
STARTCHAR 0291
ENCODING 657
SWIDTH 600 0
DWIDTH 30 0
BBX 20 26 6 -5
BITMAP
FFFF80
FFFF80
C00300
C00700
C00600
C00C00
001800
003000
006000
004000
00C000
018000
0307C0
020FE0
041C70
081830
101830
301830
201870
7FFFE0
7FFF80
001800
001800
001800
001800
001800
ENDCHAR
STARTCHAR 0292
ENCODING 658
SWIDTH 600 0
DWIDTH 30 0
BBX 17 29 5 -8
BITMAP
7FFF80
7FFF80
001C00
003800
007000
00E000
018000
030000
07E000
0FF800
1C3C00
380C00
000E00
000600
000700
000300
000300
000300
000300
000300
000300
000700
000600
800600
C00C00
F01C00
383800
1FF000
07C000
ENDCHAR
STARTCHAR 0293
ENCODING 659
SWIDTH 600 0
DWIDTH 30 0
BBX 16 31 6 -10
BITMAP
FFFF
FFFF
0038
0070
00E0
01C0
0380
0600
0FC0
1FF0
3878
3018
000C
000C
000E
0006
0006
0006
0006
0006
0006
1E06
3F8C
718C
60D8
60F8
6070
71F0
3FB0
1F18
0018
ENDCHAR
STARTCHAR 0294
ENCODING 660
SWIDTH 600 0
DWIDTH 30 0
BBX 17 28 7 1
BITMAP
1FF800
7FFC00
F00E00
C00700
C00380
C00180
C00180
000180
000180
000180
000300
000700
001E00
003C00
01F000
01C000
018000
018000
018000
018000
018000
018000
018000
018000
018000
018000
0FF000
0FF000
ENDCHAR
STARTCHAR 0295
ENCODING 661
SWIDTH 600 0
DWIDTH 30 0
BBX 17 28 7 1
BITMAP
0FFC00
1FFF00
380780
700180
600180
C00180
C00180
C00000
C00000
C00000
600000
700000
3C0000
1E0000
07C000
01C000
00C000
00C000
00C000
00C000
00C000
00C000
00C000
00C000
00C000
00C000
07F800
07F800
ENDCHAR
STARTCHAR 0296
ENCODING 662
SWIDTH 600 0
DWIDTH 30 0
BBX 17 28 7 0
BITMAP
0FF000
0FF000
018000
018000
018000
018000
018000
018000
018000
018000
018000
018000
01C000
01F000
007800
001E00
000F00
000300
000380
000180
000180
000180
C00180
C00380
C00700
F00F00
7FFE00
1FF800
ENDCHAR
STARTCHAR 0297
ENCODING 663
SWIDTH 600 0
DWIDTH 30 0
BBX 24 39 3 -10
BITMAP
007F00
03FFC6
0781F6
0E003E
1C001E
38000E
300006
600006
600006
E00000
C00000
C00000
C00000
C00000
C00000
C00000
C00000
C00000
C00000
C00000
C00000
C00000
C00000
C00000
C00000
C00000
C00000
C00000
C00000
E00000
600000
700000
300003
180007
1C000E
0F001C
03C0F8
01FFE0
003F80
ENDCHAR
STARTCHAR 0298
ENCODING 664
SWIDTH 600 0
DWIDTH 30 0
BBX 22 22 4 0
BITMAP
03FE00
07FF80
1E01C0
1800E0
300070
700038
600018
E00018
C0780C
C1FC0C
C1FC0C
C1FC0C
C1FC0C
C0FC0C
E0201C
600018
700038
380070
1C00E0
0F03C0
07FF80
01FC00
ENDCHAR
STARTCHAR 0299
ENCODING 665
SWIDTH 600 0
DWIDTH 30 0
BBX 22 21 4 0
BITMAP
FFFF00
FFFFC0
1800E0
180070
180030
180030
180030
180060
1801C0
1FFF80
1FFFC0
1800F0
180018
18000C
18000C
18000C
18000C
18001C
180078
FFFFF0
FFFFC0
ENDCHAR
STARTCHAR 029A
ENCODING 666
SWIDTH 600 0
DWIDTH 30 0
BBX 20 22 5 0
BITMAP
07FE00
1FFF80
3803C0
7000E0
600060
600070
600030
300030
3C0030
1FFC30
1FFC30
3C0030
700030
E00030
C00030
C00060
C00060
E000E0
7001C0
3C0780
1FFF00
03FC00
ENDCHAR
STARTCHAR 029B
ENCODING 667
SWIDTH 600 0
DWIDTH 30 0
BBX 27 25 4 0
BITMAP
00000700
00001FC0
000018C0
00003860
03FF3060
0FFFF060
1C00F000
38007000
70003000
60000000
E0000000
C0000000
C0000000
C0000000
C0000000
C0000000
C01FF800
C01FF800
C0003000
60003000
70003000
38003000
1C007000
0FFFF000
03FFC000
ENDCHAR
STARTCHAR 029C
ENCODING 668
SWIDTH 600 0
DWIDTH 30 0
BBX 22 21 4 0
BITMAP
7F03F8
7F03F8
180060
180060
180060
180060
180060
180060
180060
1FFFE0
1FFFE0
180060
180060
180060
180060
180060
180060
180060
180060
FF03FC
FF03FC
ENDCHAR
STARTCHAR 029D
ENCODING 669
SWIDTH 600 0
DWIDTH 30 0
BBX 20 40 7 -9
BITMAP
001C00
001C00
001C00
001C00
001C00
000000
000000
000000
000000
000000
7FFF00
7FFF00
000300
000300
000300
000300
000300
000300
000300
000300
000300
000300
000300
000300
000300
000300
000300
000300
000300
0FFFF0
3FFFF0
700300
E00300
C00300
C00300
C00700
E00E00
703C00
3FF800
0FE000
ENDCHAR
STARTCHAR 029E
ENCODING 670
SWIDTH 600 0
DWIDTH 30 0
BBX 24 30 3 -9
BITMAP
7F803F
FFC03F
0E0030
070030
038030
01C030
00E030
007030
003830
001C30
000E70
0007F0
0003B0
000730
000E30
001C30
003830
00E030
01C030
1FF030
1FF030
000030
000030
000030
000030
000030
000030
000030
00003F
00003F
ENDCHAR
STARTCHAR 029F
ENCODING 671
SWIDTH 600 0
DWIDTH 30 0
BBX 21 21 5 0
BITMAP
FFF000
FFF000
060000
060000
060000
060000
060000
060000
060000
060000
060000
060000
060000
060018
060018
060018
060018
060018
060018
FFFFF8
FFFFF8
ENDCHAR
STARTCHAR 02A0
ENCODING 672
SWIDTH 600 0
DWIDTH 30 0
BBX 31 39 3 -8
BITMAP
000001FE
000003FE
00000700
00000600
00000E00
00000C00
00000C00
00000C00
00000C00
03FF0C00
0FFF8C00
1E01CC00
38006C00
70003C00
60001C00
E0001C00
C0000C00
C0000C00
C0000C00
C0000C00
C0000C00
E0001C00
60001C00
70003C00
38007C00
1C00EC00
0F03CC00
07FF8C00
01FC0C00
00000C00
00000C00
00000C00
00000C00
00000C00
00000C00
00000C00
00000C00
0003FFC0
0003FFC0
ENDCHAR
STARTCHAR 02A1
ENCODING 673
SWIDTH 600 0
DWIDTH 30 0
BBX 17 28 7 1
BITMAP
1FF800
7FFC00
F00E00
C00700
C00380
C00180
C00180
000180
000180
000380
000300
000700
001E00
007800
01E000
018000
018000
018000
7FFE00
7FFE00
018000
018000
018000
018000
018000
018000
0FF000
0FF000
ENDCHAR
STARTCHAR 02A2
ENCODING 674
SWIDTH 600 0
DWIDTH 30 0
BBX 17 28 7 1
BITMAP
0FFC00
1FFF00
380780
700180
600180
C00180
C00180
C00000
C00000
E00000
600000
700000
1C0000
0F0000
03C000
00C000
00C000
00C000
3FFF00
3FFF00
00C000
00C000
00C000
00C000
00C000
00C000
07F800
07F800
ENDCHAR
STARTCHAR 02A3
ENCODING 675
SWIDTH 600 0
DWIDTH 30 0
BBX 26 31 2 -1
BITMAP
01F80000
01F80000
00180000
00180000
00180000
00180000
00180000
00180000
00180000
1F9FFF80
3FDFFF80
30F80380
60780300
60380700
60380600
C0380E00
C0180C00
C0181C00
C0181800
C0183800
C0183000
C0187000
C0186000
C018E000
6038C0C0
6039C0C0
6079C0C0
307B80C0
38FFFFC0
1FDFFFC0
0F800000
ENDCHAR
STARTCHAR 02A4
ENCODING 676
SWIDTH 600 0
DWIDTH 30 0
BBX 27 38 1 -8
BITMAP
01F80000
01F80000
00180000
00180000
00180000
00180000
00180000
00180000
00180000
1F9FFFE0
3FDFFFE0
30F80380
70780700
60380E00
60381C00
E0383800
C0187000
C018E000
C019FC00
C01BFF00
C01B8380
C01F0180
C01800C0
C01800C0
E0380060
60380060
60380060
70780060
38FF0060
1FDF0060
0F8000E0
000000C0
001000C0
001801C0
001E0380
00070700
0003FE00
0000FC00
ENDCHAR
STARTCHAR 02A5
ENCODING 677
SWIDTH 600 0
DWIDTH 30 0
BBX 29 35 1 -5
BITMAP
01F80000
01F80000
00180000
00180000
00180000
00180000
00180000
00180000
00180000
1F9FFF80
3FDFFF80
30F80380
60780300
60380700
60380600
C0380E00
C0180C00
C0181C00
C0181800
C0183800
C0183800
C01873E0
C01877F0
C018EE38
E038EC18
6039CC18
6079CC18
307B8C38
38FFFFF0
1FDFFFC0
0F800C00
00000C00
00000C00
00000C00
00000C00
ENDCHAR
STARTCHAR 02A6
ENCODING 678
SWIDTH 600 0
DWIDTH 30 0
BBX 28 29 1 -1
BITMAP
06000000
06000000
06000000
06000000
06000000
06000000
06000000
FFE1FE60
FFE7FFE0
060601E0
060E00E0
060C0060
060C0060
060C0000
06070000
0607E000
0601FF00
06003FC0
060001E0
06000060
06000030
06000030
06000030
06000030
03000070
038000E0
01C001C0
00FFFF80
003FFE00
ENDCHAR
STARTCHAR 02A7
ENCODING 679
SWIDTH 600 0
DWIDTH 30 0
BBX 27 32 1 -1
BITMAP
00000200
00001FE0
00003FE0
06007000
06006000
0600C000
0600C000
0600C000
0600C000
0600C000
FFFCC000
FFFCE000
06006000
06006000
06006000
06006000
06006000
06006000
06006000
06006000
06003000
06003000
06003000
06003000
06003000
06003000
06003000
03007000
0380E000
01C1C000
00FF8000
003E0000
ENDCHAR
STARTCHAR 02A8
ENCODING 680
SWIDTH 600 0
DWIDTH 30 0
BBX 30 33 0 -5
BITMAP
06000000
06000000
06000000
06000000
06000000
06000000
06000000
FFC0FF18
FFC3FFD8
060700F8
06060038
060C0018
060C0018
061C0018
06180000
06180000
06180000
061801F0
061807F8
06180618
06180C0C
06180C0C
060C0C0C
060C0C0C
07060C1C
03870C38
01FFEFF0
00FFFFE0
00001C00
00000C00
00000C00
00000C00
00000C00
ENDCHAR
STARTCHAR 02A9
ENCODING 681
SWIDTH 600 0
DWIDTH 30 0
BBX 28 40 1 -10
BITMAP
007FE000
01FFF000
03C00000
03000000
06000000
06000000
06000000
06000000
06000000
7FFC7F80
7FFCFFC0
060DC0E0
060F8060
060E0030
060E0030
060C0030
060C0030
060C0030
060C0030
060C0030
060C0030
060C0030
060C0030
060C0030
060C0030
060C0030
060C0030
060C0030
FFFF8030
FFFF8030
00000030
00000030
00000030
00000030
00000030
00000070
000000E0
000031E0
00003FC0
00001F00
ENDCHAR
STARTCHAR 02AA
ENCODING 682
SWIDTH 600 0
DWIDTH 30 0
BBX 28 30 1 0
BITMAP
3F800000
3F800000
01800000
01800000
01800000
01800000
01800000
01800000
01800000
0181FE60
0187FFE0
018601E0
018C00E0
018C0060
018C0060
018E0000
0187E000
0181F800
01803E00
01800180
01800060
01800020
01800030
01800030
01800030
01800070
018000E0
018003E0
FFFFFF80
FFFFFE00
ENDCHAR
STARTCHAR 02AB
ENCODING 683
SWIDTH 600 0
DWIDTH 30 0
BBX 25 30 3 0
BITMAP
3F800000
3F800000
01800000
01800000
01800000
01800000
01800000
01800000
01800000
01FFFF00
01FFFF00
01800700
01800E00
01800C00
01801800
01803800
01807000
01806000
0180C000
0181C000
01838000
01830000
01870000
018E0000
018C0180
01980180
01B80180
01F00180
FFFFFF80
FFFFFF80
ENDCHAR
STARTCHAR 02AC
ENCODING 684
SWIDTH 600 0
DWIDTH 30 0
BBX 18 33 6 0
BITMAP
F807C0
F807C0
600100
60C100
21E100
31E300
316300
333200
133200
1A3600
1E1E00
1E1C00
0C0C00
000000
000000
000000
000000
000000
000000
000000
F807C0
F807C0
600100
60C100
21E100
31E300
316300
333200
133200
1A3600
1E1E00
1E1C00
0C0C00
ENDCHAR
STARTCHAR 02AD
ENCODING 685
SWIDTH 600 0
DWIDTH 30 0
BBX 22 28 4 0
BITMAP
FFFFFC
FFFFFC
C0000C
C0000C
C0000C
C0000C
C0000C
C0000C
000000
000000
000000
000000
000000
000000
000000
000000
000000
000000
000000
000000
FFFFFC
FFFFFC
C0000C
C0000C
C0000C
C0000C
C0000C
C0000C
ENDCHAR
STARTCHAR 02AE
ENCODING 686
SWIDTH 600 0
DWIDTH 30 0
BBX 26 39 1 -8
BITMAP
FE000000
FF000000
03000000
01800000
01800000
01800000
01800000
01800000
01800000
01807F80
01807F80
01800C00
01800C00
01800C00
01800C00
01800C00
01800C00
01800C00
01800C00
01800C00
01800C00
01800C00
01800C00
01800C00
01801C00
01801C00
00C03C00
00E07C00
007FEC00
003FCC00
00000C00
00000C00
00000C00
00000C00
00000C00
00000C00
00000C00
00000FC0
00000FC0
ENDCHAR
STARTCHAR 02AF
ENCODING 687
SWIDTH 600 0
DWIDTH 30 0
BBX 28 40 1 -9
BITMAP
FE000000
FF000000
03000000
01800000
01800000
01800000
01800000
01800000
01800000
01807F80
01807F80
01800C00
01800C00
01800C00
01800C00
01800C00
01800C00
01800C00
01800C00
01800C00
01800C00
01800C00
01800C00
01800C00
01801C00
01801C00
00C03C00
00E07C00
007FEC00
003FCC00
00000C00
00000C00
00000C00
00000C00
00000C00
00000C00
00000600
00000700
000003F0
000001E0
ENDCHAR
STARTCHAR 02B0
ENCODING 688
SWIDTH 600 0
DWIDTH 30 0
BBX 16 20 7 19
BITMAP
F000
F000
3000
3000
3000
31C0
37F0
3C18
3808
300C
300C
300C
300C
300C
300C
300C
300C
300C
FC3E
FC3F
ENDCHAR
STARTCHAR 02B1
ENCODING 689
SWIDTH 600 0
DWIDTH 30 0
BBX 16 20 7 19
BITMAP
0300
1FC0
1800
3000
3000
31C0
37F0
3C18
3808
300C
300C
300C
300C
300C
300C
300C
300C
300C
FC3E
FC3F
ENDCHAR
STARTCHAR 02B2
ENCODING 690
SWIDTH 600 0
DWIDTH 30 0
BBX 10 26 10 13
BITMAP
00C0
00C0
00C0
00C0
0000
0000
0000
7FC0
7FC0
00C0
00C0
00C0
00C0
00C0
00C0
00C0
00C0
00C0
00C0
00C0
00C0
00C0
00C0
0180
FF00
FE00
ENDCHAR
STARTCHAR 02B3
ENCODING 691
SWIDTH 600 0
DWIDTH 30 0
BBX 15 15 7 19
BITMAP
0038
7C7C
0DC6
0F80
0F00
0C00
0C00
0C00
0C00
0C00
0C00
0C00
0C00
FFF0
FFF0
ENDCHAR
STARTCHAR 02B4
ENCODING 692
SWIDTH 600 0
DWIDTH 30 0
BBX 15 15 5 18
BITMAP
1FFE
1FFE
0060
0060
0060
0060
0060
0060
0060
0060
01E0
03E0
C760
7C7C
3800
ENDCHAR
STARTCHAR 02B5
ENCODING 693
SWIDTH 600 0
DWIDTH 30 0
BBX 17 19 6 14
BITMAP
1FFC00
1FFE00
006000
006000
006000
006000
006000
006000
006000
00E000
01E000
C76000
FE6000
786000
006000
006000
007000
003F80
000F00
ENDCHAR
STARTCHAR 02B6
ENCODING 694
SWIDTH 600 0
DWIDTH 30 0
BBX 17 18 6 20
BITMAP
FE0380
200200
200600
200C00
200C00
201800
203000
206000
20C000
3FE000
203800
200C00
200400
200400
200400
200C00
201800
FFF000
ENDCHAR
STARTCHAR 02B7
ENCODING 695
SWIDTH 600 0
DWIDTH 30 0
BBX 18 13 6 20
BITMAP
F807C0
F807C0
600100
60C100
21E100
31E300
316300
333200
133200
1A3600
1E1E00
1E1C00
0C0C00
ENDCHAR
STARTCHAR 02B8
ENCODING 696
SWIDTH 600 0
DWIDTH 30 0
BBX 17 19 7 14
BITMAP
F81F80
F81F00
300600
300400
180C00
181800
0C1800
0C3000
063000
026000
036000
01C000
018000
018000
010000
030000
060000
7FC000
7FC000
ENDCHAR
STARTCHAR 02B9
ENCODING 697
SWIDTH 600 0
DWIDTH 30 0
BBX 6 9 13 25
BITMAP
3C
3C
38
70
70
60
E0
C0
C0
ENDCHAR
STARTCHAR 02BA
ENCODING 698
SWIDTH 600 0
DWIDTH 30 0
BBX 13 9 9 25
BITMAP
3C78
3C78
3870
70E0
70E0
60C0
E1C0
C180
C180
ENDCHAR
STARTCHAR 02BB
ENCODING 699
SWIDTH 600 0
DWIDTH 30 0
BBX 6 9 13 25
BITMAP
04
0C
0C
1C
38
38
78
70
F0
ENDCHAR
STARTCHAR 02BC
ENCODING 700
SWIDTH 600 0
DWIDTH 30 0
BBX 6 9 13 25
BITMAP
3C
3C
38
70
70
60
E0
C0
C0
ENDCHAR
STARTCHAR 02BD
ENCODING 701
SWIDTH 600 0
DWIDTH 30 0
BBX 6 9 13 25
BITMAP
F0
70
78
38
38
18
1C
0C
0C
ENDCHAR
STARTCHAR 02BE
ENCODING 702
SWIDTH 600 0
DWIDTH 30 0
BBX 5 9 15 24
BITMAP
80
E0
30
10
18
18
30
F0
C0
ENDCHAR
STARTCHAR 02BF
ENCODING 703
SWIDTH 600 0
DWIDTH 30 0
BBX 5 9 10 24
BITMAP
08
78
60
C0
C0
C0
C0
78
38
ENDCHAR
STARTCHAR 02C0
ENCODING 704
SWIDTH 600 0
DWIDTH 30 0
BBX 11 17 10 20
BITMAP
3F80
E0C0
8060
8020
0020
0020
0060
00C0
0380
0E00
0800
0800
0800
0800
0800
0800
0800
ENDCHAR
STARTCHAR 02C1
ENCODING 705
SWIDTH 600 0
DWIDTH 30 0
BBX 11 17 10 20
BITMAP
3FC0
60E0
C020
8020
8000
8000
C000
6000
3800
0C00
0400
0400
0400
0400
0400
0400
0400
ENDCHAR
STARTCHAR 02C2
ENCODING 706
SWIDTH 600 0
DWIDTH 30 0
BBX 10 10 10 30
BITMAP
00C0
03C0
0F00
3E00
7800
F800
1E00
0780
03C0
00C0
ENDCHAR
STARTCHAR 02C3
ENCODING 707
SWIDTH 600 0
DWIDTH 30 0
BBX 10 10 10 30
BITMAP
C000
F000
7800
1E00
0780
07C0
1F00
3C00
F000
C000
ENDCHAR
STARTCHAR 02C4
ENCODING 708
SWIDTH 600 0
DWIDTH 30 0
BBX 10 10 10 30
BITMAP
0400
0C00
0E00
1E00
3F00
3300
7180
6180
C0C0
C0C0
ENDCHAR
STARTCHAR 02C5
ENCODING 709
SWIDTH 600 0
DWIDTH 30 0
BBX 10 10 10 30
BITMAP
C0C0
C0C0
6180
6380
3300
3F00
1E00
1C00
0C00
0800
ENDCHAR
STARTCHAR 02C6
ENCODING 710
SWIDTH 600 0
DWIDTH 30 0
BBX 14 7 8 25
BITMAP
0300
07C0
0EE0
3C70
7038
E01C
C00C
ENDCHAR
STARTCHAR 02C7
ENCODING 711
SWIDTH 600 0
DWIDTH 30 0
BBX 14 7 8 25
BITMAP
E00C
701C
3878
1CF0
0FC0
0780
0100
ENDCHAR
STARTCHAR 02C8
ENCODING 712
SWIDTH 600 0
DWIDTH 30 0
BBX 2 7 14 25
BITMAP
C0
C0
C0
C0
C0
C0
C0
ENDCHAR
STARTCHAR 02C9
ENCODING 713
SWIDTH 600 0
DWIDTH 30 0
BBX 14 3 8 26
BITMAP
7FF8
FFFC
7FF8
ENDCHAR
STARTCHAR 02CA
ENCODING 714
SWIDTH 600 0
DWIDTH 30 0
BBX 8 7 14 25
BITMAP
07
0E
1C
38
70
E0
C0
ENDCHAR
STARTCHAR 02CB
ENCODING 715
SWIDTH 600 0
DWIDTH 30 0
BBX 8 7 8 25
BITMAP
E0
70
38
1C
0E
07
03
ENDCHAR
STARTCHAR 02CC
ENCODING 716
SWIDTH 600 0
DWIDTH 30 0
BBX 2 7 14 -9
BITMAP
C0
C0
C0
C0
C0
C0
C0
ENDCHAR
STARTCHAR 02CD
ENCODING 717
SWIDTH 600 0
DWIDTH 30 0
BBX 14 3 8 -7
BITMAP
7FF8
FFFC
7FF8
ENDCHAR
STARTCHAR 02CE
ENCODING 718
SWIDTH 600 0
DWIDTH 30 0
BBX 8 7 11 -9
BITMAP
E0
70
38
1C
0E
07
03
ENDCHAR
STARTCHAR 02CF
ENCODING 719
SWIDTH 600 0
DWIDTH 30 0
BBX 8 7 11 -9
BITMAP
03
07
1E
38
70
E0
C0
ENDCHAR
STARTCHAR 02D0
ENCODING 720
SWIDTH 600 0
DWIDTH 30 0
BBX 7 21 12 0
BITMAP
FE
FE
7C
7C
38
38
10
00
00
00
00
00
00
00
10
38
38
7C
7C
FE
FE
ENDCHAR
STARTCHAR 02D1
ENCODING 721
SWIDTH 600 0
DWIDTH 30 0
BBX 7 7 12 14
BITMAP
FE
FE
7C
7C
38
38
10
ENDCHAR
STARTCHAR 02D2
ENCODING 722
SWIDTH 600 0
DWIDTH 30 0
BBX 5 8 15 10
BITMAP
E0
70
30
18
18
10
70
E0
ENDCHAR
STARTCHAR 02D3
ENCODING 723
SWIDTH 600 0
DWIDTH 30 0
BBX 5 8 10 10
BITMAP
38
70
C0
C0
C0
C0
60
38
ENDCHAR
STARTCHAR 02D4
ENCODING 724
SWIDTH 600 0
DWIDTH 30 0
BBX 10 6 10 27
BITMAP
0C00
0C00
0C00
0F80
FFC0
7F80
ENDCHAR
STARTCHAR 02D5
ENCODING 725
SWIDTH 600 0
DWIDTH 30 0
BBX 10 6 10 26
BITMAP
7F80
FFC0
7C00
0C00
0C00
0C00
ENDCHAR
STARTCHAR 02D6
ENCODING 726
SWIDTH 600 0
DWIDTH 30 0
BBX 10 10 10 25
BITMAP
0C00
0C00
0C00
0C00
FFC0
FFC0
0C00
0C00
0C00
0C00
ENDCHAR
STARTCHAR 02D7
ENCODING 727
SWIDTH 600 0
DWIDTH 30 0
BBX 11 3 9 26
BITMAP
7FC0
FFE0
7FC0
ENDCHAR
STARTCHAR 02D8
ENCODING 728
SWIDTH 600 0
DWIDTH 30 0
BBX 14 6 8 25
BITMAP
C00C
C00C
E01C
7038
3FF0
0FC0
ENDCHAR
STARTCHAR 02D9
ENCODING 729
SWIDTH 600 0
DWIDTH 30 0
BBX 5 5 13 26
BITMAP
70
F8
F8
F8
70
ENDCHAR
STARTCHAR 02DA
ENCODING 730
SWIDTH 600 0
DWIDTH 30 0
BBX 10 9 10 24
BITMAP
0C00
3F00
6180
C080
C0C0
C0C0
E180
7F00
1E00
ENDCHAR
STARTCHAR 02DB
ENCODING 731
SWIDTH 600 0
DWIDTH 30 0
BBX 7 8 14 -8
BITMAP
18
30
60
C0
C0
C0
FE
7C
ENDCHAR
STARTCHAR 02DC
ENCODING 732
SWIDTH 600 0
DWIDTH 30 0
BBX 15 4 7 26
BITMAP
1E02
7F8E
E3FC
C078
ENDCHAR
STARTCHAR 02DD
ENCODING 733
SWIDTH 600 0
DWIDTH 30 0
BBX 14 7 8 25
BITMAP
060C
0E1C
1C38
3870
70E0
E1C0
C180
ENDCHAR
STARTCHAR 02DE
ENCODING 734
SWIDTH 600 0
DWIDTH 30 0
BBX 12 7 9 13
BITMAP
0800
3C00
FC00
4E00
0700
03F0
01E0
ENDCHAR
STARTCHAR 02DF
ENCODING 735
SWIDTH 600 0
DWIDTH 30 0
BBX 9 9 11 26
BITMAP
0100
E380
7700
3E00
1C00
3E00
7700
E300
C100
ENDCHAR
STARTCHAR 02E0
ENCODING 736
SWIDTH 600 0
DWIDTH 30 0
BBX 17 20 7 13
BITMAP
F81F80
200600
300400
300C00
100C00
181800
081800
0C3000
043000
066000
026000
03C000
01C000
018000
018000
03C000
034000
024000
034000
01C000
ENDCHAR
STARTCHAR 02E1
ENCODING 737
SWIDTH 600 0
DWIDTH 30 0
BBX 13 20 8 19
BITMAP
3E00
0200
0200
0200
0200
0200
0200
0200
0200
0200
0200
0200
0200
0200
0200
0200
0200
0200
0200
FFF8
ENDCHAR
STARTCHAR 02E2
ENCODING 738
SWIDTH 600 0
DWIDTH 30 0
BBX 12 15 9 19
BITMAP
1FA0
3060
6020
4020
6000
7000
3F00
03E0
0030
0010
8010
C010
C030
B9E0
1F80
ENDCHAR
STARTCHAR 02E3
ENCODING 739
SWIDTH 600 0
DWIDTH 30 0
BBX 16 14 7 19
BITMAP
7C3E
300C
1818
0C30
0660
03C0
0180
03C0
0660
0C30
1818
300C
6006
FC3F
ENDCHAR
STARTCHAR 02E4
ENCODING 740
SWIDTH 600 0
DWIDTH 30 0
BBX 11 19 10 19
BITMAP
3FC0
60E0
C020
C020
8000
8000
C000
6000
3000
1C00
0400
0400
0400
0400
0400
0400
0400
0400
1F80
ENDCHAR
STARTCHAR 02E5
ENCODING 741
SWIDTH 600 0
DWIDTH 30 0
BBX 20 40 3 0
BITMAP
FFFFF0
FFFFF0
000030
000030
000030
000030
000030
000030
000030
000030
000030
000030
000030
000030
000030
000030
000030
000030
000030
000030
000030
000030
000030
000030
000030
000030
000030
000030
000030
000030
000030
000030
000030
000030
000030
000030
000030
000030
000030
000030
ENDCHAR
STARTCHAR 02E6
ENCODING 742
SWIDTH 600 0
DWIDTH 30 0
BBX 20 39 3 0
BITMAP
000030
000030
000030
000030
000030
000030
000030
FFFFF0
FFFFF0
000030
000030
000030
000030
000030
000030
000030
000030
000030
000030
000030
000030
000030
000030
000030
000030
000030
000030
000030
000030
000030
000030
000030
000030
000030
000030
000030
000030
000030
000030
ENDCHAR
STARTCHAR 02E7
ENCODING 743
SWIDTH 600 0
DWIDTH 30 0
BBX 20 40 3 0
BITMAP
000030
000030
000030
000030
000030
000030
000030
000030
000030
000030
000030
000030
000030
000030
000030
000030
000030
000030
000030
FFFFF0
FFFFF0
000030
000030
000030
000030
000030
000030
000030
000030
000030
000030
000030
000030
000030
000030
000030
000030
000030
000030
000030
ENDCHAR
STARTCHAR 02E8
ENCODING 744
SWIDTH 600 0
DWIDTH 30 0
BBX 20 39 3 0
BITMAP
000030
000030
000030
000030
000030
000030
000030
000030
000030
000030
000030
000030
000030
000030
000030
000030
000030
000030
000030
000030
000030
000030
000030
000030
000030
000030
000030
000030
FFFFF0
FFFFF0
000030
000030
000030
000030
000030
000030
000030
000030
000030
ENDCHAR
STARTCHAR 02E9
ENCODING 745
SWIDTH 600 0
DWIDTH 30 0
BBX 20 40 3 0
BITMAP
000030
000030
000030
000030
000030
000030
000030
000030
000030
000030
000030
000030
000030
000030
000030
000030
000030
000030
000030
000030
000030
000030
000030
000030
000030
000030
000030
000030
000030
000030
000030
000030
000030
000030
000030
000030
000030
000030
FFFFF0
FFFFF0
ENDCHAR
STARTCHAR 02EA
ENCODING 746
SWIDTH 600 0
DWIDTH 30 0
BBX 20 34 5 0
BITMAP
C00000
C00000
C00000
C00000
C00000
C00000
C00000
C00000
C00000
C00000
C00000
C00000
C00000
C00000
C00000
C00000
C00000
C00000
C00000
C00000
C00000
C00000
C00000
C00000
C00000
C00000
C00000
C00000
C00000
C00000
C00000
C00000
FFFFF0
FFFFF0
ENDCHAR
STARTCHAR 02EB
ENCODING 747
SWIDTH 600 0
DWIDTH 30 0
BBX 20 18 5 0
BITMAP
C00000
C00000
C00000
C00000
C00000
C00000
C00000
C00000
FFFFF0
FFFFF0
C00000
C00000
C00000
C00000
C00000
C00000
C00000
C00000
ENDCHAR
STARTCHAR 02EC
ENCODING 748
SWIDTH 600 0
DWIDTH 30 0
BBX 14 7 8 -10
BITMAP
E00C
701C
3878
1CF0
0FC0
0780
0100
ENDCHAR
STARTCHAR 02ED
ENCODING 749
SWIDTH 600 0
DWIDTH 30 0
BBX 24 7 3 26
BITMAP
FFFFFF
FFFFFF
000000
000000
7FFFFE
FFFFFF
7FFFFE
ENDCHAR
STARTCHAR 02EE
ENCODING 750
SWIDTH 600 0
DWIDTH 30 0
BBX 18 13 5 17
BITMAP
3F0FC0
3F0FC0
1F07C0
1F07C0
1F07C0
3E0F80
3E0F80
3C0F00
781E00
781E00
701C00
F03C00
601800
ENDCHAR
STARTCHAR 02EF
ENCODING 751
SWIDTH 600 0
DWIDTH 30 0
BBX 10 10 10 -10
BITMAP
C0C0
E0C0
6180
7380
3300
1F00
1E00
0E00
0C00
0800
ENDCHAR
ENDFONT
